<svg width="2028" height="563" viewBox="0 0 2028 563" fill="none" xmlns="http://www.w3.org/2000/svg">
<path d="M1079.93 96.2384L1044.47 131.974C1035.01 141.517 1019.59 141.578 1010.05 132.11C1000.51 122.643 1000.45 107.232 1009.92 97.6889L1045.37 61.9529C1054.84 52.4102 1070.25 52.3494 1079.79 61.8169C1089.33 71.2846 1089.4 86.6957 1079.93 96.2384Z" stroke="white" stroke-width="2"/>
<path d="M1079.89 61.9446L1115.62 97.3994C1125.17 106.867 1125.23 122.278 1115.76 131.821C1106.29 141.363 1090.88 141.424 1081.34 131.957L1045.6 96.5021C1036.06 87.0345 1036 71.6233 1045.47 62.0806C1054.93 52.5379 1070.34 52.477 1079.89 61.9446Z" stroke="white" stroke-width="2"/>
<path d="M1079.93 368.403L1044.47 404.139C1035.01 413.682 1019.59 413.743 1010.05 404.275C1000.51 394.808 1000.45 379.397 1009.92 369.854L1045.37 334.118C1054.84 324.575 1070.25 324.514 1079.79 333.982C1089.33 343.45 1089.4 358.861 1079.93 368.403Z" stroke="white" stroke-width="2"/>
<path d="M1079.89 334.11L1115.62 369.564C1125.17 379.032 1125.23 394.443 1115.76 403.986C1106.29 413.529 1090.88 413.589 1081.34 404.122L1045.6 368.667C1036.06 359.2 1036 343.788 1045.47 334.246C1054.93 324.703 1070.34 324.642 1079.89 334.11Z" stroke="white" stroke-width="2"/>
<path d="M1079.93 232.59L1044.47 268.326C1035.01 277.869 1019.59 277.93 1010.05 268.462C1000.51 258.994 1000.45 243.583 1009.92 234.04L1045.37 198.304C1054.84 188.762 1070.25 188.701 1079.79 198.169C1089.33 207.636 1089.4 223.047 1079.93 232.59Z" stroke="white" stroke-width="2"/>
<path d="M1079.89 198.296L1115.62 233.751C1125.17 243.219 1125.23 258.63 1115.76 268.172C1106.29 277.715 1090.88 277.776 1081.34 268.308L1045.6 232.854C1036.06 223.386 1036 207.975 1045.47 198.432C1054.93 188.889 1070.34 188.829 1079.89 198.296Z" stroke="white" stroke-width="2"/>
<path d="M1079.93 504.757L1044.47 540.493C1035.01 550.036 1019.59 550.097 1010.05 540.629C1000.51 531.161 1000.45 515.75 1009.92 506.207L1045.37 470.471C1054.84 460.929 1070.25 460.868 1079.79 470.335C1089.33 479.803 1089.4 495.214 1079.93 504.757Z" stroke="white" stroke-width="2"/>
<path d="M1079.89 470.461L1115.62 505.916C1125.17 515.384 1125.23 530.795 1115.76 540.337C1106.29 549.88 1090.88 549.941 1081.34 540.473L1045.6 505.019C1036.06 495.551 1036 480.14 1045.47 470.597C1054.93 461.055 1070.34 460.994 1079.89 470.461Z" stroke="white" stroke-width="2"/>
<path d="M1276.55 96.8849L1241.1 132.621C1231.63 142.164 1216.22 142.224 1206.68 132.757C1197.13 123.289 1197.07 107.878 1206.54 98.3354L1241.99 62.5994C1251.46 53.0567 1266.87 52.9959 1276.42 62.4634C1285.96 71.931 1286.02 87.3422 1276.55 96.8849Z" stroke="white" stroke-width="2"/>
<path d="M1276.51 62.5911L1312.25 98.0459C1321.79 107.514 1321.85 122.925 1312.38 132.467C1302.92 142.01 1287.5 142.071 1277.96 132.603L1242.23 97.1486C1232.68 87.681 1232.62 72.2698 1242.09 62.7271C1251.56 53.1844 1266.97 53.1235 1276.51 62.5911Z" stroke="white" stroke-width="2"/>
<path d="M1276.55 369.049L1241.1 404.785C1231.63 414.328 1216.22 414.389 1206.68 404.921C1197.13 395.453 1197.07 380.042 1206.54 370.499L1241.99 334.763C1251.46 325.221 1266.87 325.16 1276.42 334.627C1285.96 344.095 1286.02 359.506 1276.55 369.049Z" stroke="white" stroke-width="2"/>
<path d="M1276.51 334.755L1312.25 370.21C1321.79 379.678 1321.85 395.089 1312.38 404.631C1302.92 414.174 1287.5 414.235 1277.96 404.767L1242.23 369.313C1232.68 359.845 1232.62 344.434 1242.09 334.891C1251.56 325.348 1266.97 325.288 1276.51 334.755Z" stroke="white" stroke-width="2"/>
<path d="M1276.55 233.235L1241.1 268.971C1231.63 278.514 1216.22 278.575 1206.68 269.107C1197.13 259.64 1197.07 244.229 1206.54 234.686L1241.99 198.95C1251.46 189.407 1266.87 189.347 1276.42 198.814C1285.96 208.282 1286.02 223.693 1276.55 233.235Z" stroke="white" stroke-width="2"/>
<path d="M1276.51 198.941L1312.25 234.395C1321.79 243.863 1321.85 259.274 1312.38 268.817C1302.92 278.36 1287.5 278.421 1277.96 268.953L1242.23 233.498C1232.68 224.031 1232.62 208.619 1242.09 199.077C1251.56 189.534 1266.97 189.473 1276.51 198.941Z" stroke="white" stroke-width="2"/>
<path d="M1276.55 505.401L1241.1 541.137C1231.63 550.68 1216.22 550.741 1206.68 541.273C1197.13 531.806 1197.07 516.395 1206.54 506.852L1241.99 471.116C1251.46 461.573 1266.87 461.513 1276.42 470.98C1285.96 480.448 1286.02 495.859 1276.55 505.401Z" stroke="white" stroke-width="2"/>
<path d="M1276.51 471.107L1312.25 506.562C1321.79 516.029 1321.85 531.44 1312.38 540.983C1302.92 550.526 1287.5 550.587 1277.96 541.119L1242.23 505.664C1232.68 496.197 1232.62 480.785 1242.09 471.243C1251.56 461.7 1266.97 461.639 1276.51 471.107Z" stroke="white" stroke-width="2"/>
<path d="M1673.41 96.8849L1637.96 132.621C1628.49 142.164 1613.08 142.224 1603.54 132.757C1593.99 123.289 1593.93 107.878 1603.4 98.3354L1638.86 62.5994C1648.32 53.0567 1663.74 52.9959 1673.28 62.4634C1682.82 71.931 1682.88 87.3422 1673.41 96.8849Z" stroke="white" stroke-width="2"/>
<path d="M1673.37 62.5911L1709.11 98.0459C1718.65 107.514 1718.71 122.925 1709.24 132.467C1699.78 142.01 1684.37 142.071 1674.82 132.603L1639.09 97.1486C1629.54 87.681 1629.48 72.2698 1638.95 62.7271C1648.42 53.1844 1663.83 53.1235 1673.37 62.5911Z" stroke="white" stroke-width="2"/>
<path d="M1673.41 369.049L1637.96 404.785C1628.49 414.328 1613.08 414.389 1603.54 404.921C1593.99 395.453 1593.93 380.042 1603.4 370.499L1638.86 334.763C1648.32 325.221 1663.73 325.16 1673.28 334.627C1682.82 344.095 1682.88 359.506 1673.41 369.049Z" stroke="white" stroke-width="2"/>
<path d="M1673.37 334.755L1709.11 370.21C1718.65 379.678 1718.71 395.089 1709.24 404.631C1699.78 414.174 1684.37 414.235 1674.82 404.767L1639.09 369.313C1629.54 359.845 1629.48 344.434 1638.95 334.891C1648.42 325.348 1663.83 325.288 1673.37 334.755Z" stroke="white" stroke-width="2"/>
<path d="M1673.41 233.235L1637.96 268.971C1628.49 278.514 1613.08 278.575 1603.54 269.107C1593.99 259.64 1593.93 244.229 1603.4 234.686L1638.86 198.95C1648.32 189.407 1663.73 189.347 1673.28 198.814C1682.82 208.282 1682.88 223.693 1673.41 233.235Z" stroke="white" stroke-width="2"/>
<path d="M1673.37 198.941L1709.11 234.395C1718.65 243.863 1718.71 259.274 1709.24 268.817C1699.78 278.36 1684.37 278.421 1674.82 268.953L1639.09 233.498C1629.54 224.031 1629.48 208.619 1638.95 199.077C1648.42 189.534 1663.83 189.473 1673.37 198.941Z" stroke="white" stroke-width="2"/>
<path d="M1673.41 505.401L1637.96 541.137C1628.49 550.68 1613.08 550.741 1603.54 541.273C1593.99 531.806 1593.93 516.395 1603.4 506.852L1638.86 471.116C1648.32 461.573 1663.73 461.513 1673.28 470.98C1682.82 480.448 1682.88 495.859 1673.41 505.401Z" stroke="white" stroke-width="2"/>
<path d="M1673.37 471.107L1709.11 506.562C1718.65 516.029 1718.71 531.44 1709.24 540.983C1699.78 550.526 1684.37 550.587 1674.82 541.119L1639.09 505.664C1629.54 496.197 1629.48 480.785 1638.95 471.243C1648.42 461.7 1663.83 461.639 1673.37 471.107Z" stroke="white" stroke-width="2"/>
<path d="M1476.53 95.0782L1441.08 130.814C1431.61 140.357 1416.2 140.418 1406.65 130.95C1397.11 121.483 1397.05 106.071 1406.52 96.5287L1441.97 60.7928C1451.44 51.2501 1466.85 51.1893 1476.39 60.6568C1485.94 70.1244 1486 85.5355 1476.53 95.0782Z" stroke="white" stroke-width="2"/>
<path d="M1476.49 60.7845L1512.23 96.2392C1521.77 105.707 1521.83 121.118 1512.36 130.661C1502.89 140.203 1487.48 140.264 1477.94 130.797L1442.2 95.3419C1432.66 85.8743 1432.6 70.4632 1442.07 60.9205C1451.54 51.3777 1466.95 51.3169 1476.49 60.7845Z" stroke="white" stroke-width="2"/>
<path d="M1476.53 367.243L1441.08 402.979C1431.61 412.522 1416.2 412.583 1406.65 403.115C1397.11 393.648 1397.05 378.236 1406.52 368.694L1441.97 332.958C1451.44 323.415 1466.85 323.354 1476.39 332.822C1485.94 342.289 1486 357.701 1476.53 367.243Z" stroke="white" stroke-width="2"/>
<path d="M1476.49 332.951L1512.23 368.405C1521.77 377.873 1521.83 393.284 1512.36 402.827C1502.89 412.369 1487.48 412.43 1477.94 402.963L1442.2 367.508C1432.66 358.04 1432.6 342.629 1442.07 333.086C1451.54 323.544 1466.95 323.483 1476.49 332.951Z" stroke="white" stroke-width="2"/>
<path d="M1476.53 231.429L1441.08 267.165C1431.61 276.708 1416.2 276.768 1406.65 267.301C1397.11 257.833 1397.05 242.422 1406.52 232.879L1441.97 197.143C1451.44 187.601 1466.85 187.54 1476.39 197.007C1485.94 206.475 1486 221.886 1476.53 231.429Z" stroke="white" stroke-width="2"/>
<path d="M1476.49 197.135L1512.23 232.59C1521.77 242.057 1521.83 257.469 1512.36 267.011C1502.89 276.554 1487.48 276.615 1477.94 267.147L1442.2 231.693C1432.66 222.225 1432.6 206.814 1442.07 197.271C1451.54 187.728 1466.95 187.667 1476.49 197.135Z" stroke="white" stroke-width="2"/>
<path d="M1476.53 503.595L1441.08 539.331C1431.61 548.874 1416.2 548.934 1406.65 539.467C1397.11 529.999 1397.05 514.588 1406.52 505.045L1441.97 469.309C1451.44 459.767 1466.85 459.706 1476.39 469.173C1485.94 478.641 1486 494.052 1476.53 503.595Z" stroke="white" stroke-width="2"/>
<path d="M1476.49 469.3L1512.23 504.755C1521.77 514.222 1521.83 529.634 1512.36 539.176C1502.89 548.719 1487.48 548.78 1477.94 539.312L1442.2 503.858C1432.66 494.39 1432.6 478.979 1442.07 469.436C1451.54 459.893 1466.95 459.832 1476.49 469.3Z" stroke="white" stroke-width="2"/>
<path d="M1873.39 95.0782L1837.94 130.814C1828.47 140.357 1813.06 140.418 1803.52 130.95C1793.97 121.483 1793.91 106.071 1803.38 96.5287L1838.83 60.7928C1848.3 51.2501 1863.71 51.1893 1873.26 60.6568C1882.8 70.1244 1882.86 85.5355 1873.39 95.0782Z" stroke="white" stroke-width="2"/>
<path d="M1873.35 60.7845L1909.09 96.2392C1918.63 105.707 1918.69 121.118 1909.22 130.661C1899.76 140.203 1884.34 140.264 1874.8 130.797L1839.07 95.3419C1829.52 85.8743 1829.46 70.4632 1838.93 60.9205C1848.4 51.3777 1863.81 51.3169 1873.35 60.7845Z" stroke="white" stroke-width="2"/>
<path d="M1873.39 367.243L1837.94 402.979C1828.47 412.522 1813.06 412.583 1803.52 403.115C1793.97 393.648 1793.91 378.236 1803.38 368.694L1838.83 332.958C1848.3 323.415 1863.71 323.354 1873.26 332.822C1882.8 342.289 1882.86 357.701 1873.39 367.243Z" stroke="white" stroke-width="2"/>
<path d="M1873.35 332.951L1909.09 368.405C1918.63 377.873 1918.69 393.284 1909.22 402.827C1899.76 412.369 1884.34 412.43 1874.8 402.963L1839.07 367.508C1829.52 358.04 1829.46 342.629 1838.93 333.086C1848.4 323.544 1863.81 323.483 1873.35 332.951Z" stroke="white" stroke-width="2"/>
<path d="M1873.39 231.429L1837.94 267.165C1828.47 276.708 1813.06 276.768 1803.52 267.301C1793.97 257.833 1793.91 242.422 1803.38 232.879L1838.83 197.143C1848.3 187.601 1863.71 187.54 1873.26 197.007C1882.8 206.475 1882.86 221.886 1873.39 231.429Z" stroke="white" stroke-width="2"/>
<path d="M1873.35 197.135L1909.09 232.59C1918.63 242.057 1918.69 257.469 1909.22 267.011C1899.76 276.554 1884.34 276.615 1874.8 267.147L1839.07 231.693C1829.52 222.225 1829.46 206.814 1838.93 197.271C1848.4 187.728 1863.81 187.667 1873.35 197.135Z" stroke="white" stroke-width="2"/>
<path d="M1873.39 503.595L1837.94 539.331C1828.47 548.874 1813.06 548.934 1803.52 539.467C1793.97 529.999 1793.91 514.588 1803.38 505.045L1838.83 469.309C1848.3 459.767 1863.71 459.706 1873.26 469.173C1882.8 478.641 1882.86 494.052 1873.39 503.595Z" stroke="white" stroke-width="2"/>
<path d="M1873.35 469.3L1909.09 504.755C1918.63 514.222 1918.69 529.634 1909.22 539.176C1899.76 548.719 1884.34 548.78 1874.8 539.312L1839.07 503.858C1829.52 494.39 1829.46 478.979 1838.93 469.436C1848.4 459.893 1863.81 459.832 1873.35 469.3Z" stroke="white" stroke-width="2"/>
<path d="M1145.23 55.6472L1181.09 20.3197C1190.66 10.886 1206.08 11.0017 1215.51 20.578C1224.94 30.1543 1224.83 45.5652 1215.25 54.9988L1179.39 90.3263C1169.81 99.7599 1154.4 99.6441 1144.97 90.0679C1135.68 80.6412 1135.65 65.5606 1144.78 56.0934L1145.23 55.6472Z" stroke="white" stroke-width="2"/>
<path d="M1144.87 89.9406L1109.55 54.0788C1100.11 44.5025 1100.23 29.0917 1109.81 19.6581C1119.38 10.2245 1134.79 10.3401 1144.23 19.9164L1179.55 55.7782C1188.99 65.3545 1188.87 80.7653 1179.3 90.1989C1169.87 99.4853 1154.79 99.5184 1145.32 90.3825L1144.87 89.9406Z" stroke="white" stroke-width="2"/>
<path d="M1145.23 327.813L1181.09 292.486C1190.66 283.052 1206.08 283.168 1215.51 292.744C1224.94 302.32 1224.83 317.731 1215.25 327.165L1179.39 362.492C1169.81 371.926 1154.4 371.81 1144.97 362.234C1135.68 352.807 1135.65 337.727 1144.78 328.259L1145.23 327.813Z" stroke="white" stroke-width="2"/>
<path d="M1144.87 362.107L1109.55 326.245C1100.11 316.669 1100.23 301.258 1109.81 291.824C1119.38 282.391 1134.79 282.506 1144.23 292.082L1179.55 327.944C1188.99 337.52 1188.87 352.931 1179.3 362.365C1169.87 371.651 1154.79 371.684 1145.32 362.548L1144.87 362.107Z" stroke="white" stroke-width="2"/>
<path d="M1145.23 192L1181.09 156.672C1190.66 147.239 1206.08 147.354 1215.51 156.931C1224.94 166.507 1224.83 181.918 1215.25 191.351L1179.39 226.679C1169.81 236.112 1154.4 235.997 1144.97 226.42C1135.68 216.994 1135.65 201.913 1144.78 192.446L1145.23 192Z" stroke="white" stroke-width="2"/>
<path d="M1144.87 226.292L1109.55 190.43C1100.11 180.854 1100.23 165.443 1109.81 156.01C1119.38 146.576 1134.79 146.692 1144.23 156.268L1179.55 192.13C1188.99 201.706 1188.87 217.117 1179.3 226.551C1169.87 235.837 1154.79 235.87 1145.32 226.734L1144.87 226.292Z" stroke="white" stroke-width="2"/>
<path d="M1145.23 464.167L1181.09 428.839C1190.66 419.406 1206.08 419.521 1215.51 429.098C1224.94 438.674 1224.83 454.085 1215.25 463.518L1179.39 498.846C1169.81 508.279 1154.4 508.164 1144.97 498.587C1135.68 489.161 1135.65 474.08 1144.78 464.613L1145.23 464.167Z" stroke="white" stroke-width="2"/>
<path d="M1144.87 498.458L1109.55 462.596C1100.11 453.02 1100.23 437.609 1109.81 428.176C1119.38 418.742 1134.79 418.858 1144.23 428.434L1179.55 464.296C1188.99 473.872 1188.87 489.283 1179.3 498.717C1169.87 508.003 1154.79 508.036 1145.32 498.9L1144.87 498.458Z" stroke="white" stroke-width="2"/>
<path d="M1341.85 56.2917L1377.71 20.9642C1387.29 11.5306 1402.7 11.6462 1412.13 21.2225C1421.57 30.7988 1421.45 46.2097 1411.88 55.6433L1376.01 90.9708C1366.44 100.404 1351.03 100.289 1341.59 90.7125C1332.31 81.2857 1332.27 66.2052 1341.41 56.7379L1341.85 56.2917Z" stroke="white" stroke-width="2"/>
<path d="M1341.5 90.5842L1306.17 54.7224C1296.74 45.1461 1296.85 29.7353 1306.43 20.3016C1316.01 10.8681 1331.42 10.9837 1340.85 20.5599L1376.18 56.4217C1385.61 65.998 1385.5 81.4088 1375.92 90.8425C1366.49 100.129 1351.41 100.162 1341.95 91.026L1341.5 90.5842Z" stroke="white" stroke-width="2"/>
<path d="M1341.85 328.458L1377.71 293.13C1387.29 283.697 1402.7 283.812 1412.13 293.389C1421.57 302.965 1421.45 318.376 1411.88 327.809L1376.01 363.137C1366.44 372.57 1351.03 372.455 1341.59 362.878C1332.31 353.452 1332.27 338.371 1341.41 328.904L1341.85 328.458Z" stroke="white" stroke-width="2"/>
<path d="M1341.5 362.75L1306.17 326.888C1296.74 317.312 1296.85 301.901 1306.43 292.468C1316.01 283.034 1331.42 283.15 1340.85 292.726L1376.18 328.588C1385.61 338.164 1385.5 353.575 1375.92 363.009C1366.49 372.295 1351.41 372.328 1341.95 363.192L1341.5 362.75Z" stroke="white" stroke-width="2"/>
<path d="M1341.85 192.643L1377.71 157.316C1387.29 147.882 1402.7 147.998 1412.13 157.574C1421.57 167.15 1421.45 182.561 1411.88 191.995L1376.01 227.322C1366.44 236.756 1351.03 236.64 1341.59 227.064C1332.31 217.637 1332.27 202.557 1341.41 193.089L1341.85 192.643Z" stroke="white" stroke-width="2"/>
<path d="M1341.5 226.937L1306.17 191.075C1296.74 181.499 1296.85 166.088 1306.43 156.654C1316.01 147.221 1331.42 147.336 1340.85 156.912L1376.18 192.774C1385.61 202.351 1385.5 217.761 1375.92 227.195C1366.49 236.481 1351.41 236.514 1341.95 227.379L1341.5 226.937Z" stroke="white" stroke-width="2"/>
<path d="M1341.85 464.809L1377.71 429.482C1387.29 420.048 1402.7 420.164 1412.13 429.74C1421.57 439.316 1421.45 454.727 1411.88 464.161L1376.01 499.488C1366.44 508.922 1351.03 508.806 1341.59 499.23C1332.31 489.803 1332.27 474.723 1341.41 465.256L1341.85 464.809Z" stroke="white" stroke-width="2"/>
<path d="M1341.5 499.103L1306.17 463.241C1296.74 453.665 1296.85 438.254 1306.43 428.82C1316.01 419.387 1331.42 419.502 1340.85 429.079L1376.18 464.94C1385.61 474.517 1385.5 489.927 1375.92 499.361C1366.49 508.647 1351.41 508.681 1341.95 499.545L1341.5 499.103Z" stroke="white" stroke-width="2"/>
<path d="M1738.71 56.2927L1774.57 20.9652C1784.15 11.5315 1799.56 11.6472 1808.99 21.2235C1818.43 30.7998 1818.31 46.2107 1808.74 55.6443L1772.87 90.9718C1763.3 100.405 1747.89 100.29 1738.45 90.7134C1729.17 81.2867 1729.13 66.2062 1738.27 56.7389L1738.71 56.2927Z" stroke="white" stroke-width="2"/>
<path d="M1738.36 90.5842L1703.03 54.7224C1693.6 45.1461 1693.72 29.7353 1703.29 20.3016C1712.87 10.8681 1728.28 10.9837 1737.71 20.5599L1773.04 56.4217C1782.47 65.998 1782.36 81.4088 1772.78 90.8425C1763.35 100.129 1748.27 100.162 1738.81 91.026L1738.36 90.5842Z" stroke="white" stroke-width="2"/>
<path d="M1738.71 328.458L1774.57 293.13C1784.15 283.697 1799.56 283.812 1809 293.389C1818.43 302.965 1818.31 318.376 1808.74 327.809L1772.88 363.137C1763.3 372.57 1747.89 372.455 1738.45 362.878C1729.17 353.452 1729.13 338.371 1738.27 328.904L1738.71 328.458Z" stroke="white" stroke-width="2"/>
<path d="M1738.36 362.75L1703.03 326.888C1693.6 317.312 1693.72 301.901 1703.29 292.468C1712.87 283.034 1728.28 283.15 1737.71 292.726L1773.04 328.588C1782.47 338.164 1782.36 353.575 1772.78 363.009C1763.36 372.295 1748.27 372.328 1738.81 363.192L1738.36 362.75Z" stroke="white" stroke-width="2"/>
<path d="M1738.71 192.643L1774.57 157.316C1784.15 147.882 1799.56 147.998 1809 157.574C1818.43 167.15 1818.31 182.561 1808.74 191.995L1772.88 227.322C1763.3 236.756 1747.89 236.64 1738.45 227.064C1729.17 217.637 1729.13 202.557 1738.27 193.089L1738.71 192.643Z" stroke="white" stroke-width="2"/>
<path d="M1738.36 226.937L1703.03 191.075C1693.6 181.499 1693.72 166.088 1703.29 156.654C1712.87 147.221 1728.28 147.336 1737.71 156.912L1773.04 192.774C1782.47 202.351 1782.36 217.761 1772.78 227.195C1763.36 236.481 1748.27 236.514 1738.81 227.379L1738.36 226.937Z" stroke="white" stroke-width="2"/>
<path d="M1738.71 464.81L1774.57 429.483C1784.15 420.049 1799.56 420.165 1809 429.741C1818.43 439.317 1818.31 454.728 1808.74 464.162L1772.88 499.489C1763.3 508.923 1747.89 508.807 1738.45 499.231C1729.17 489.804 1729.13 474.724 1738.27 465.256L1738.71 464.81Z" stroke="white" stroke-width="2"/>
<path d="M1738.36 499.103L1703.03 463.241C1693.6 453.665 1693.72 438.254 1703.29 428.82C1712.87 419.387 1728.28 419.502 1737.71 429.079L1773.04 464.94C1782.47 474.517 1782.36 489.927 1772.78 499.361C1763.36 508.647 1748.27 508.681 1738.81 499.545L1738.36 499.103Z" stroke="white" stroke-width="2"/>
<path d="M1541.83 54.486L1577.69 19.1585C1587.27 9.72489 1602.68 9.84055 1612.11 19.4169C1621.55 28.9932 1621.43 44.404 1611.85 53.8376L1575.99 89.1651C1566.42 98.5987 1551.01 98.483 1541.57 88.9068C1532.29 79.48 1532.25 64.3995 1541.39 54.9323L1541.83 54.486Z" stroke="white" stroke-width="2"/>
<path d="M1541.48 88.7785L1506.15 52.9167C1496.72 43.3404 1496.83 27.9296 1506.41 18.496C1515.99 9.06242 1531.4 9.17801 1540.83 18.7543L1576.16 54.6161C1585.59 64.1923 1585.48 79.6032 1575.9 89.0368C1566.47 98.3232 1551.39 98.3563 1541.92 89.2204L1541.48 88.7785Z" stroke="white" stroke-width="2"/>
<path d="M1541.83 326.651L1577.69 291.324C1587.27 281.89 1602.68 282.006 1612.11 291.582C1621.55 301.158 1621.43 316.569 1611.85 326.003L1575.99 361.33C1566.42 370.764 1551.01 370.648 1541.57 361.072C1532.29 351.645 1532.25 336.565 1541.39 327.097L1541.83 326.651Z" stroke="white" stroke-width="2"/>
<path d="M1541.48 360.945L1506.15 325.083C1496.72 315.506 1496.83 300.096 1506.41 290.662C1515.99 281.228 1531.4 281.344 1540.83 290.92L1576.16 326.782C1585.59 336.358 1585.48 351.769 1575.9 361.203C1566.47 370.489 1551.39 370.522 1541.92 361.386L1541.48 360.945Z" stroke="white" stroke-width="2"/>
<path d="M1541.83 190.838L1577.69 155.51C1587.27 146.076 1602.68 146.192 1612.11 155.768C1621.55 165.345 1621.43 180.756 1611.85 190.189L1575.99 225.517C1566.42 234.95 1551.01 234.835 1541.57 225.258C1532.29 215.832 1532.25 200.751 1541.39 191.284L1541.83 190.838Z" stroke="white" stroke-width="2"/>
<path d="M1541.48 225.13L1506.15 189.268C1496.72 179.692 1496.83 164.281 1506.41 154.848C1515.99 145.414 1531.4 145.53 1540.83 155.106L1576.16 190.968C1585.59 200.544 1585.48 215.955 1575.9 225.388C1566.47 234.675 1551.39 234.708 1541.92 225.572L1541.48 225.13Z" stroke="white" stroke-width="2"/>
<path d="M1541.83 463.005L1577.69 427.677C1587.27 418.243 1602.68 418.359 1612.11 427.935C1621.55 437.512 1621.43 452.923 1611.85 462.356L1575.99 497.684C1566.42 507.117 1551.01 507.002 1541.57 497.425C1532.29 487.999 1532.25 472.918 1541.39 463.451L1541.83 463.005Z" stroke="white" stroke-width="2"/>
<path d="M1541.48 497.296L1506.15 461.434C1496.72 451.858 1496.83 436.447 1506.41 427.014C1515.99 417.58 1531.4 417.696 1540.83 427.272L1576.16 463.134C1585.59 472.71 1585.48 488.121 1575.9 497.554C1566.47 506.841 1551.39 506.874 1541.92 497.738L1541.48 497.296Z" stroke="white" stroke-width="2"/>
<path d="M1938.69 54.486L1974.55 19.1585C1984.13 9.72489 1999.54 9.84055 2008.97 19.4169C2018.41 28.9932 2018.29 44.404 2008.72 53.8376L1972.85 89.1651C1963.28 98.5987 1947.87 98.483 1938.43 88.9068C1929.15 79.48 1929.11 64.3995 1938.25 54.9323L1938.69 54.486Z" stroke="white" stroke-width="2"/>
<path d="M1938.34 88.7785L1903.01 52.9167C1893.58 43.3404 1893.69 27.9296 1903.27 18.496C1912.85 9.06242 1928.26 9.17801 1937.69 18.7543L1973.02 54.6161C1982.45 64.1923 1982.34 79.6032 1972.76 89.0368C1963.33 98.3232 1948.25 98.3563 1938.79 89.2204L1938.34 88.7785Z" stroke="white" stroke-width="2"/>
<path d="M1938.69 326.651L1974.55 291.324C1984.13 281.89 1999.54 282.006 2008.97 291.582C2018.41 301.158 2018.29 316.569 2008.72 326.003L1972.85 361.33C1963.28 370.764 1947.87 370.648 1938.43 361.072C1929.15 351.645 1929.11 336.565 1938.25 327.097L1938.69 326.651Z" stroke="white" stroke-width="2"/>
<path d="M1938.34 360.945L1903.01 325.083C1893.58 315.506 1893.69 300.096 1903.27 290.662C1912.85 281.228 1928.26 281.344 1937.69 290.92L1973.02 326.782C1982.45 336.358 1982.34 351.769 1972.76 361.203C1963.33 370.489 1948.25 370.522 1938.79 361.386L1938.34 360.945Z" stroke="white" stroke-width="2"/>
<path d="M1938.69 190.838L1974.55 155.51C1984.13 146.076 1999.54 146.192 2008.97 155.768C2018.41 165.345 2018.29 180.756 2008.72 190.189L1972.85 225.517C1963.28 234.95 1947.87 234.835 1938.43 225.258C1929.15 215.832 1929.11 200.751 1938.25 191.284L1938.69 190.838Z" stroke="white" stroke-width="2"/>
<path d="M1938.34 225.13L1903.01 189.268C1893.58 179.692 1893.69 164.281 1903.27 154.848C1912.85 145.414 1928.26 145.53 1937.69 155.106L1973.02 190.968C1982.45 200.544 1982.34 215.955 1972.76 225.388C1963.33 234.675 1948.25 234.708 1938.79 225.572L1938.34 225.13Z" stroke="white" stroke-width="2"/>
<path d="M1938.69 463.005L1974.55 427.677C1984.13 418.243 1999.54 418.359 2008.97 427.935C2018.41 437.512 2018.29 452.923 2008.72 462.356L1972.85 497.684C1963.28 507.117 1947.87 507.002 1938.43 497.425C1929.15 487.999 1929.11 472.918 1938.25 463.451L1938.69 463.005Z" stroke="white" stroke-width="2"/>
<path d="M1938.34 497.296L1903.01 461.434C1893.58 451.858 1893.69 436.447 1903.27 427.014C1912.85 417.58 1928.26 417.696 1937.69 427.272L1973.02 463.134C1982.45 472.71 1982.34 488.121 1972.76 497.554C1963.33 506.841 1948.25 506.874 1938.79 497.738L1938.34 497.296Z" stroke="white" stroke-width="2"/>
<path d="M89.3815 97.4279L53.9268 133.164C44.4591 142.707 29.048 142.767 19.5053 133.3C9.9627 123.832 9.90175 108.421 19.3693 98.8783L54.8241 63.1424C64.2917 53.5997 79.7028 53.5389 89.2456 63.0064C98.7883 72.474 98.8491 87.8851 89.3815 97.4279Z" stroke="white" stroke-width="2"/>
<path d="M89.3405 63.1341L125.076 98.5889C134.619 108.056 134.68 123.468 125.212 133.01C115.745 142.553 100.334 142.614 90.7909 133.146L55.055 97.6915C45.5123 88.224 45.4515 72.8128 54.919 63.2701C64.3866 53.7274 79.7977 53.6665 89.3405 63.1341Z" stroke="white" stroke-width="2"/>
<path d="M89.381 369.594L53.9263 405.33C44.4587 414.873 29.0475 414.933 19.5048 405.466C9.96221 395.998 9.90126 380.587 19.3688 371.044L54.8236 335.308C64.2912 325.766 79.7023 325.705 89.2451 335.172C98.7878 344.64 98.8487 360.051 89.381 369.594Z" stroke="white" stroke-width="2"/>
<path d="M89.3405 335.3L125.076 370.755C134.619 380.222 134.68 395.634 125.212 405.176C115.745 414.719 100.334 414.78 90.7909 405.312L55.055 369.858C45.5123 360.39 45.4515 344.979 54.919 335.436C64.3866 325.893 79.7977 325.832 89.3405 335.3Z" stroke="white" stroke-width="2"/>
<path d="M89.3815 233.78L53.9268 269.516C44.4591 279.059 29.048 279.12 19.5053 269.652C9.9627 260.185 9.90175 244.774 19.3693 235.231L54.8241 199.495C64.2917 189.952 79.7028 189.891 89.2456 199.359C98.7883 208.827 98.8491 224.238 89.3815 233.78Z" stroke="white" stroke-width="2"/>
<path d="M89.3405 199.487L125.076 234.941C134.619 244.409 134.68 259.82 125.212 269.363C115.745 278.905 100.334 278.966 90.7909 269.499L55.055 234.044C45.5123 224.576 45.4515 209.165 54.919 199.623C64.3866 190.08 79.7977 190.019 89.3405 199.487Z" stroke="white" stroke-width="2"/>
<path d="M89.381 505.945L53.9263 541.681C44.4587 551.224 29.0475 551.285 19.5048 541.817C9.96221 532.35 9.90126 516.939 19.3688 507.396L54.8236 471.66C64.2912 462.117 79.7023 462.056 89.2451 471.524C98.7878 480.992 98.8487 496.403 89.381 505.945Z" stroke="white" stroke-width="2"/>
<path d="M89.3405 471.65L125.076 507.104C134.619 516.572 134.68 531.983 125.212 541.526C115.745 551.069 100.334 551.13 90.7909 541.662L55.055 506.207C45.5123 496.74 45.4515 481.328 54.919 471.786C64.3866 462.243 79.7977 462.182 89.3405 471.65Z" stroke="white" stroke-width="2"/>
<path d="M286.006 98.0743L250.551 133.81C241.083 143.353 225.672 143.414 216.129 133.946C206.587 124.479 206.526 109.067 215.993 99.5248L251.448 63.7888C260.916 54.2462 276.327 54.1854 285.87 63.6529C295.412 73.1205 295.473 88.5316 286.006 98.0743Z" stroke="white" stroke-width="2"/>
<path d="M285.964 63.7806L321.7 99.2353C331.243 108.703 331.304 124.114 321.836 133.657C312.369 143.199 296.958 143.26 287.415 133.793L251.679 98.338C242.136 88.8704 242.075 73.4593 251.543 63.9166C261.011 54.3738 276.422 54.313 285.964 63.7806Z" stroke="white" stroke-width="2"/>
<path d="M286.006 370.237L250.551 405.973C241.083 415.516 225.672 415.577 216.129 406.109C206.587 396.642 206.526 381.231 215.993 371.688L251.448 335.952C260.916 326.409 276.327 326.348 285.87 335.816C295.412 345.284 295.473 360.695 286.006 370.237Z" stroke="white" stroke-width="2"/>
<path d="M285.964 335.944L321.7 371.398C331.243 380.866 331.304 396.277 321.836 405.82C312.369 415.363 296.958 415.423 287.415 405.956L251.679 370.501C242.136 361.034 242.075 345.622 251.543 336.08C261.011 326.537 276.422 326.476 285.964 335.944Z" stroke="white" stroke-width="2"/>
<path d="M286.006 234.424L250.551 270.16C241.083 279.703 225.672 279.764 216.129 270.296C206.587 260.828 206.526 245.417 215.993 235.874L251.448 200.138C260.916 190.596 276.327 190.535 285.87 200.002C295.412 209.47 295.473 224.881 286.006 234.424Z" stroke="white" stroke-width="2"/>
<path d="M285.964 200.13L321.7 235.585C331.243 245.053 331.304 260.464 321.836 270.006C312.369 279.549 296.958 279.61 287.415 270.142L251.679 234.688C242.136 225.22 242.075 209.809 251.543 200.266C261.011 190.723 276.422 190.663 285.964 200.13Z" stroke="white" stroke-width="2"/>
<path d="M286.005 506.59L250.55 542.326C241.083 551.869 225.672 551.93 216.129 542.462C206.586 532.994 206.525 517.583 215.993 508.04L251.448 472.304C260.915 462.762 276.326 462.701 285.869 472.169C295.412 481.636 295.473 497.047 286.005 506.59Z" stroke="white" stroke-width="2"/>
<path d="M285.964 472.296L321.7 507.751C331.243 517.219 331.304 532.63 321.836 542.172C312.369 551.715 296.958 551.776 287.415 542.308L251.679 506.854C242.136 497.386 242.075 481.975 251.543 472.432C261.011 462.889 276.422 462.829 285.964 472.296Z" stroke="white" stroke-width="2"/>
<path d="M682.867 98.0743L647.413 133.81C637.945 143.353 622.534 143.414 612.991 133.946C603.449 124.479 603.388 109.067 612.855 99.5248L648.31 63.7888C657.778 54.2462 673.189 54.1854 682.731 63.6529C692.274 73.1205 692.335 88.5316 682.867 98.0743Z" stroke="white" stroke-width="2"/>
<path d="M682.826 63.7806L718.562 99.2353C728.105 108.703 728.166 124.114 718.698 133.657C709.231 143.199 693.819 143.26 684.277 133.793L648.541 98.338C638.998 88.8704 638.937 73.4593 648.405 63.9166C657.872 54.3738 673.284 54.313 682.826 63.7806Z" stroke="white" stroke-width="2"/>
<path d="M682.867 370.237L647.412 405.973C637.945 415.516 622.533 415.577 612.991 406.109C603.448 396.642 603.387 381.231 612.855 371.688L648.309 335.952C657.777 326.409 673.188 326.348 682.731 335.816C692.274 345.284 692.334 360.695 682.867 370.237Z" stroke="white" stroke-width="2"/>
<path d="M682.826 335.944L718.562 371.398C728.105 380.866 728.166 396.277 718.698 405.82C709.231 415.363 693.819 415.423 684.277 405.956L648.541 370.501C638.998 361.034 638.937 345.622 648.405 336.08C657.872 326.537 673.284 326.476 682.826 335.944Z" stroke="white" stroke-width="2"/>
<path d="M682.867 234.424L647.413 270.16C637.945 279.703 622.534 279.764 612.991 270.296C603.449 260.828 603.388 245.417 612.855 235.874L648.31 200.138C657.778 190.596 673.189 190.535 682.731 200.002C692.274 209.47 692.335 224.881 682.867 234.424Z" stroke="white" stroke-width="2"/>
<path d="M682.826 200.13L718.562 235.585C728.105 245.053 728.166 260.464 718.698 270.006C709.231 279.549 693.819 279.61 684.277 270.142L648.541 234.688C638.998 225.22 638.937 209.809 648.405 200.266C657.872 190.723 673.284 190.663 682.826 200.13Z" stroke="white" stroke-width="2"/>
<path d="M682.867 506.59L647.412 542.326C637.945 551.869 622.533 551.93 612.991 542.462C603.448 532.994 603.387 517.583 612.855 508.04L648.309 472.304C657.777 462.762 673.188 462.701 682.731 472.169C692.274 481.636 692.334 497.047 682.867 506.59Z" stroke="white" stroke-width="2"/>
<path d="M682.826 472.296L718.562 507.751C728.105 517.219 728.166 532.63 718.698 542.172C709.231 551.715 693.819 551.776 684.277 542.308L648.541 506.854C638.998 497.386 638.937 481.975 648.405 472.432C657.872 462.889 673.284 462.829 682.826 472.296Z" stroke="white" stroke-width="2"/>
<path d="M485.985 96.2657L450.53 132.002C441.062 141.544 425.651 141.605 416.108 132.138C406.566 122.67 406.505 107.259 415.972 97.7162L451.427 61.9803C460.895 52.4376 476.306 52.3768 485.849 61.8443C495.391 71.3119 495.452 86.723 485.985 96.2657Z" stroke="white" stroke-width="2"/>
<path d="M485.943 61.972L521.679 97.4267C531.222 106.894 531.283 122.306 521.815 131.848C512.348 141.391 496.937 141.452 487.394 131.984L451.658 96.5294C442.115 87.0618 442.055 71.6507 451.522 62.108C460.99 52.5652 476.401 52.5044 485.943 61.972Z" stroke="white" stroke-width="2"/>
<path d="M485.985 368.432L450.53 404.168C441.062 413.71 425.651 413.771 416.108 404.304C406.566 394.836 406.505 379.425 415.972 369.882L451.427 334.146C460.895 324.604 476.306 324.543 485.849 334.01C495.391 343.478 495.452 358.889 485.985 368.432Z" stroke="white" stroke-width="2"/>
<path d="M485.943 334.139L521.679 369.594C531.222 379.061 531.283 394.472 521.815 404.015C512.348 413.558 496.937 413.619 487.394 404.151L451.658 368.696C442.115 359.229 442.055 343.818 451.522 334.275C460.99 324.732 476.401 324.671 485.943 334.139Z" stroke="white" stroke-width="2"/>
<path d="M485.985 232.616L450.53 268.352C441.063 277.895 425.652 277.956 416.109 268.488C406.566 259.021 406.505 243.609 415.973 234.067L451.428 198.331C460.895 188.788 476.306 188.727 485.849 198.195C495.392 207.662 495.453 223.074 485.985 232.616Z" stroke="white" stroke-width="2"/>
<path d="M485.944 198.323L521.68 233.777C531.223 243.245 531.284 258.656 521.816 268.199C512.348 277.741 496.937 277.802 487.394 268.335L451.658 232.88C442.116 223.412 442.055 208.001 451.523 198.459C460.99 188.916 476.401 188.855 485.944 198.323Z" stroke="white" stroke-width="2"/>
<path d="M485.984 504.784L450.529 540.52C441.062 550.063 425.651 550.124 416.108 540.656C406.565 531.189 406.504 515.777 415.972 506.235L451.427 470.499C460.894 460.956 476.305 460.895 485.848 470.363C495.391 479.83 495.452 495.242 485.984 504.784Z" stroke="white" stroke-width="2"/>
<path d="M485.943 470.491L521.679 505.945C531.222 515.413 531.283 530.824 521.815 540.367C512.348 549.909 496.937 549.97 487.394 540.503L451.658 505.048C442.115 495.58 442.055 480.169 451.522 470.627C460.99 461.084 476.401 461.023 485.943 470.491Z" stroke="white" stroke-width="2"/>
<path d="M882.846 96.2657L847.392 132.002C837.924 141.544 822.513 141.605 812.97 132.138C803.428 122.67 803.367 107.259 812.834 97.7162L848.289 61.9803C857.757 52.4376 873.168 52.3768 882.71 61.8443C892.253 71.3119 892.314 86.723 882.846 96.2657Z" stroke="white" stroke-width="2"/>
<path d="M882.805 61.972L918.541 97.4267C928.084 106.894 928.145 122.306 918.677 131.848C909.21 141.391 893.798 141.452 884.256 131.984L848.52 96.5294C838.977 87.0618 838.916 71.6507 848.384 62.108C857.851 52.5652 873.263 52.5044 882.805 61.972Z" stroke="white" stroke-width="2"/>
<path d="M882.846 368.432L847.391 404.168C837.924 413.71 822.512 413.771 812.97 404.304C803.427 394.836 803.366 379.425 812.834 369.882L848.288 334.146C857.756 324.604 873.167 324.543 882.71 334.01C892.253 343.478 892.313 358.889 882.846 368.432Z" stroke="white" stroke-width="2"/>
<path d="M882.805 334.139L918.541 369.594C928.084 379.061 928.145 394.472 918.677 404.015C909.21 413.558 893.798 413.619 884.256 404.151L848.52 368.696C838.977 359.229 838.916 343.818 848.384 334.275C857.851 324.732 873.263 324.671 882.805 334.139Z" stroke="white" stroke-width="2"/>
<path d="M882.846 232.617L847.392 268.353C837.924 277.896 822.513 277.957 812.97 268.489C803.428 259.022 803.367 243.61 812.834 234.068L848.289 198.332C857.757 188.789 873.168 188.728 882.71 198.196C892.253 207.663 892.314 223.075 882.846 232.617Z" stroke="white" stroke-width="2"/>
<path d="M882.805 198.324L918.541 233.778C928.084 243.246 928.145 258.657 918.677 268.2C909.21 277.742 893.798 277.803 884.256 268.336L848.52 232.881C838.977 223.413 838.916 208.002 848.384 198.46C857.851 188.917 873.263 188.856 882.805 198.324Z" stroke="white" stroke-width="2"/>
<path d="M882.846 504.784L847.391 540.52C837.924 550.063 822.512 550.124 812.97 540.656C803.427 531.189 803.366 515.777 812.834 506.235L848.288 470.499C857.756 460.956 873.167 460.895 882.71 470.363C892.253 479.83 892.313 495.242 882.846 504.784Z" stroke="white" stroke-width="2"/>
<path d="M882.805 470.491L918.541 505.945C928.084 515.413 928.145 530.824 918.677 540.367C909.21 549.909 893.798 549.97 884.256 540.503L848.52 505.048C838.977 495.58 838.916 480.169 848.384 470.627C857.851 461.084 873.263 461.023 882.805 470.491Z" stroke="white" stroke-width="2"/>
<path d="M154.68 56.8366L190.542 21.5091C200.119 12.0755 215.529 12.1911 224.963 21.7674C234.397 31.3438 234.281 46.7546 224.705 56.1882L188.843 91.5157C179.267 100.949 163.856 100.834 154.422 91.2574C145.136 81.8306 145.103 66.7501 154.239 57.2829L154.68 56.8366Z" stroke="white" stroke-width="2"/>
<path d="M154.329 91.1291L119.001 55.2673C109.568 45.691 109.683 30.2802 119.26 20.8465C128.836 11.413 144.247 11.5286 153.68 21.1049L189.008 56.9667C198.442 66.5429 198.326 81.9538 188.75 91.3874C179.323 100.674 164.242 100.707 154.775 91.5709L154.329 91.1291Z" stroke="white" stroke-width="2"/>
<path d="M154.68 329.004L190.542 293.676C200.119 284.242 215.529 284.358 224.963 293.934C234.397 303.511 234.281 318.922 224.705 328.355L188.843 363.683C179.267 373.116 163.856 373.001 154.422 363.424C145.136 353.998 145.103 338.917 154.239 329.45L154.68 329.004Z" stroke="white" stroke-width="2"/>
<path d="M154.329 363.296L119.001 327.434C109.568 317.858 109.683 302.447 119.26 293.014C128.836 283.58 144.247 283.696 153.68 293.272L189.008 329.134C198.442 338.71 198.326 354.121 188.75 363.554C179.323 372.841 164.242 372.874 154.775 363.738L154.329 363.296Z" stroke="white" stroke-width="2"/>
<path d="M154.68 193.188L190.542 157.861C200.119 148.427 215.529 148.543 224.963 158.119C234.397 167.695 234.281 183.106 224.705 192.54L188.843 227.867C179.267 237.301 163.856 237.185 154.422 227.609C145.136 218.182 145.103 203.102 154.239 193.634L154.68 193.188Z" stroke="white" stroke-width="2"/>
<path d="M154.329 227.482L119.001 191.62C109.568 182.044 109.683 166.633 119.26 157.199C128.836 147.766 144.247 147.881 153.68 157.457L189.008 193.319C198.442 202.895 198.326 218.306 188.75 227.74C179.323 237.026 164.242 237.059 154.775 227.923L154.329 227.482Z" stroke="white" stroke-width="2"/>
<path d="M154.68 465.355L190.542 430.028C200.119 420.594 215.529 420.71 224.963 430.286C234.397 439.862 234.281 455.273 224.705 464.707L188.843 500.034C179.267 509.468 163.856 509.352 154.422 499.776C145.136 490.349 145.103 475.269 154.239 465.801L154.68 465.355Z" stroke="white" stroke-width="2"/>
<path d="M154.329 499.647L119.001 463.785C109.568 454.209 109.683 438.798 119.26 429.364C128.836 419.931 144.247 420.046 153.68 429.622L189.008 465.484C198.442 475.061 198.326 490.471 188.75 499.905C179.323 509.191 164.242 509.224 154.775 500.089L154.329 499.647Z" stroke="white" stroke-width="2"/>
<path d="M351.305 57.4812L387.166 22.1536C396.743 12.72 412.153 12.8357 421.587 22.412C431.021 31.9883 430.905 47.3991 421.329 56.8327L385.467 92.1602C375.891 101.594 360.48 101.478 351.046 91.9019C341.76 82.4751 341.727 67.3946 350.863 57.9274L351.305 57.4812Z" stroke="white" stroke-width="2"/>
<path d="M350.953 91.7726L315.625 55.9109C306.192 46.3346 306.307 30.9237 315.884 21.4901C325.46 12.0566 340.871 12.1721 350.304 21.7484L385.632 57.6102C395.066 67.1865 394.95 82.5973 385.374 92.031C375.947 101.317 360.866 101.35 351.399 92.2145L350.953 91.7726Z" stroke="white" stroke-width="2"/>
<path d="M351.305 329.645L387.166 294.318C396.743 284.884 412.153 285 421.587 294.576C431.021 304.152 430.905 319.563 421.329 328.997L385.467 364.324C375.891 373.758 360.48 373.642 351.046 364.066C341.76 354.639 341.727 339.559 350.863 330.091L351.305 329.645Z" stroke="white" stroke-width="2"/>
<path d="M350.953 363.939L315.625 328.077C306.192 318.501 306.307 303.09 315.884 293.656C325.46 284.223 340.871 284.338 350.304 293.914L385.632 329.776C395.066 339.352 394.95 354.763 385.374 364.197C375.947 373.483 360.866 373.516 351.399 364.381L350.953 363.939Z" stroke="white" stroke-width="2"/>
<path d="M351.305 193.833L387.166 158.505C396.743 149.072 412.153 149.187 421.587 158.764C431.021 168.34 430.905 183.751 421.329 193.184L385.467 228.512C375.891 237.945 360.48 237.83 351.046 228.253C341.76 218.827 341.727 203.746 350.863 194.279L351.305 193.833Z" stroke="white" stroke-width="2"/>
<path d="M350.953 228.125L315.625 192.263C306.192 182.687 306.307 167.276 315.884 157.843C325.46 148.409 340.871 148.525 350.304 158.101L385.632 193.963C395.066 203.539 394.95 218.95 385.374 228.384C375.947 237.67 360.866 237.703 351.399 228.567L350.953 228.125Z" stroke="white" stroke-width="2"/>
<path d="M351.305 465.998L387.166 430.67C396.743 421.237 412.153 421.352 421.587 430.929C431.021 440.505 430.905 455.916 421.329 465.349L385.467 500.677C375.891 510.11 360.48 509.995 351.046 500.419C341.76 490.992 341.727 475.911 350.863 466.444L351.305 465.998Z" stroke="white" stroke-width="2"/>
<path d="M350.953 500.292L315.625 464.43C306.192 454.854 306.307 439.443 315.884 430.01C325.46 420.576 340.871 420.692 350.304 430.268L385.632 466.13C395.066 475.706 394.95 491.117 385.374 500.551C375.947 509.837 360.866 509.87 351.399 500.734L350.953 500.292Z" stroke="white" stroke-width="2"/>
<path d="M748.166 57.4812L784.028 22.1536C793.604 12.72 809.015 12.8357 818.449 22.412C827.882 31.9883 827.767 47.3991 818.191 56.8327L782.329 92.1602C772.752 101.594 757.342 101.478 747.908 91.9019C738.622 82.4751 738.589 67.3946 747.724 57.9274L748.166 57.4812Z" stroke="white" stroke-width="2"/>
<path d="M747.815 91.7726L712.487 55.9109C703.054 46.3346 703.169 30.9237 712.745 21.4901C722.322 12.0566 737.733 12.1721 747.166 21.7484L782.494 57.6102C791.927 67.1865 791.812 82.5973 782.235 92.031C772.809 101.317 757.728 101.35 748.261 92.2145L747.815 91.7726Z" stroke="white" stroke-width="2"/>
<path d="M748.166 329.645L784.028 294.318C793.604 284.884 809.015 285 818.449 294.576C827.882 304.152 827.767 319.563 818.191 328.997L782.329 364.324C772.752 373.758 757.342 373.642 747.908 364.066C738.622 354.639 738.589 339.559 747.724 330.091L748.166 329.645Z" stroke="white" stroke-width="2"/>
<path d="M747.815 363.939L712.487 328.077C703.054 318.501 703.169 303.09 712.745 293.656C722.322 284.223 737.733 284.338 747.166 293.914L782.494 329.776C791.927 339.352 791.812 354.763 782.235 364.197C772.809 373.483 757.728 373.516 748.261 364.381L747.815 363.939Z" stroke="white" stroke-width="2"/>
<path d="M748.166 193.833L784.028 158.505C793.604 149.072 809.015 149.187 818.448 158.764C827.882 168.34 827.766 183.751 818.19 193.184L782.328 228.512C772.752 237.945 757.341 237.83 747.908 228.253C738.621 218.827 738.588 203.746 747.724 194.279L748.166 193.833Z" stroke="white" stroke-width="2"/>
<path d="M747.815 228.125L712.487 192.263C703.054 182.687 703.169 167.276 712.745 157.843C722.322 148.409 737.733 148.525 747.166 158.101L782.494 193.963C791.927 203.539 791.812 218.95 782.235 228.384C772.809 237.67 757.728 237.703 748.261 228.567L747.815 228.125Z" stroke="white" stroke-width="2"/>
<path d="M748.166 465.999L784.028 430.671C793.604 421.238 809.015 421.353 818.449 430.93C827.882 440.506 827.767 455.917 818.191 465.35L782.329 500.678C772.752 510.111 757.342 509.996 747.908 500.419C738.622 490.993 738.589 475.912 747.724 466.445L748.166 465.999Z" stroke="white" stroke-width="2"/>
<path d="M747.815 500.292L712.487 464.43C703.054 454.854 703.169 439.443 712.745 430.01C722.322 420.576 737.733 420.692 747.166 430.268L782.494 466.13C791.927 475.706 791.812 491.117 782.235 500.551C772.809 509.837 757.728 509.87 748.261 500.734L747.815 500.292Z" stroke="white" stroke-width="2"/>
<path d="M551.284 55.6755L587.145 20.348C596.722 10.9143 612.132 11.03 621.566 20.6063C631 30.1826 630.884 45.5935 621.308 55.0271L585.446 90.3546C575.87 99.7882 560.459 99.6725 551.025 90.0963C541.739 80.6695 541.706 65.589 550.842 56.1217L551.284 55.6755Z" stroke="white" stroke-width="2"/>
<path d="M550.932 89.968L515.604 54.1062C506.171 44.5299 506.286 29.119 515.863 19.6854C525.439 10.2519 540.85 10.3675 550.283 19.9437L585.611 55.8055C595.045 65.3818 594.929 80.7926 585.353 90.2263C575.926 99.5126 560.845 99.5457 551.378 90.4098L550.932 89.968Z" stroke="white" stroke-width="2"/>
<path d="M551.284 327.841L587.145 292.513C596.722 283.079 612.132 283.195 621.566 292.771C631 302.348 630.884 317.759 621.308 327.192L585.446 362.52C575.87 371.953 560.459 371.838 551.025 362.261C541.739 352.835 541.706 337.754 550.842 328.287L551.284 327.841Z" stroke="white" stroke-width="2"/>
<path d="M550.932 362.134L515.604 326.272C506.171 316.696 506.286 301.285 515.863 291.851C525.439 282.418 540.85 282.533 550.283 292.11L585.611 327.972C595.045 337.548 594.929 352.959 585.353 362.392C575.926 371.679 560.845 371.712 551.378 362.576L550.932 362.134Z" stroke="white" stroke-width="2"/>
<path d="M551.284 192.026L587.145 156.699C596.722 147.265 612.132 147.381 621.566 156.957C631 166.533 630.884 181.944 621.308 191.378L585.446 226.705C575.87 236.139 560.459 236.023 551.025 226.447C541.739 217.02 541.706 201.94 550.842 192.472L551.284 192.026Z" stroke="white" stroke-width="2"/>
<path d="M550.932 226.32L515.604 190.458C506.171 180.881 506.286 165.471 515.863 156.037C525.439 146.603 540.85 146.719 550.283 156.295L585.611 192.157C595.045 201.733 594.929 217.144 585.353 226.578C575.926 235.864 560.845 235.897 551.378 226.761L550.932 226.32Z" stroke="white" stroke-width="2"/>
<path d="M551.284 464.193L587.145 428.866C596.722 419.432 612.132 419.548 621.566 429.124C631 438.7 630.884 454.111 621.308 463.545L585.446 498.872C575.87 508.306 560.459 508.19 551.025 498.614C541.739 489.187 541.706 474.107 550.842 464.639L551.284 464.193Z" stroke="white" stroke-width="2"/>
<path d="M550.932 498.486L515.604 462.624C506.171 453.047 506.286 437.637 515.863 428.203C525.439 418.769 540.85 418.885 550.283 428.461L585.611 464.323C595.045 473.899 594.929 489.31 585.353 498.744C575.926 508.03 560.845 508.063 551.378 498.927L550.932 498.486Z" stroke="white" stroke-width="2"/>
<path d="M948.145 55.6755L984.007 20.348C993.583 10.9143 1008.99 11.03 1018.43 20.6063C1027.86 30.1826 1027.75 45.5935 1018.17 55.0271L982.307 90.3546C972.731 99.7882 957.32 99.6725 947.887 90.0963C938.6 80.6695 938.567 65.589 947.703 56.1217L948.145 55.6755Z" stroke="white" stroke-width="2"/>
<path d="M947.793 89.968L912.466 54.1062C903.032 44.5299 903.148 29.119 912.724 19.6854C922.3 10.2519 937.711 10.3675 947.145 19.9437L982.472 55.8055C991.906 65.3818 991.79 80.7926 982.214 90.2263C972.787 99.5126 957.707 99.5457 948.239 90.4098L947.793 89.968Z" stroke="white" stroke-width="2"/>
<path d="M948.145 327.841L984.007 292.513C993.583 283.079 1008.99 283.195 1018.43 292.771C1027.86 302.348 1027.75 317.759 1018.17 327.192L982.307 362.52C972.731 371.953 957.32 371.838 947.887 362.261C938.6 352.835 938.567 337.754 947.703 328.287L948.145 327.841Z" stroke="white" stroke-width="2"/>
<path d="M947.793 362.134L912.466 326.272C903.032 316.696 903.148 301.285 912.724 291.851C922.3 282.418 937.711 282.533 947.145 292.11L982.472 327.972C991.906 337.548 991.79 352.959 982.214 362.392C972.787 371.679 957.707 371.712 948.239 362.576L947.793 362.134Z" stroke="white" stroke-width="2"/>
<path d="M948.145 192.026L984.007 156.699C993.583 147.265 1008.99 147.381 1018.43 156.957C1027.86 166.533 1027.75 181.944 1018.17 191.378L982.308 226.705C972.731 236.139 957.321 236.023 947.887 226.447C938.601 217.02 938.568 201.94 947.703 192.472L948.145 192.026Z" stroke="white" stroke-width="2"/>
<path d="M947.794 226.32L912.466 190.458C903.033 180.881 903.148 165.471 912.724 156.037C922.301 146.603 937.712 146.719 947.145 156.295L982.473 192.157C991.906 201.733 991.791 217.144 982.214 226.578C972.788 235.864 957.707 235.897 948.24 226.761L947.794 226.32Z" stroke="white" stroke-width="2"/>
<path d="M948.145 464.193L984.007 428.866C993.583 419.432 1008.99 419.548 1018.43 429.124C1027.86 438.7 1027.75 454.111 1018.17 463.545L982.308 498.872C972.731 508.306 957.321 508.19 947.887 498.614C938.601 489.187 938.568 474.107 947.703 464.639L948.145 464.193Z" stroke="white" stroke-width="2"/>
<path d="M947.794 498.486L912.466 462.624C903.033 453.047 903.148 437.637 912.724 428.203C922.301 418.769 937.712 418.885 947.145 428.461L982.473 464.323C991.906 473.899 991.791 489.31 982.214 498.744C972.788 508.03 957.707 508.063 948.24 498.927L947.794 498.486Z" stroke="white" stroke-width="2"/>
</svg>
