<svg width="2028" height="563" viewBox="0 0 2028 563" fill="none" xmlns="http://www.w3.org/2000/svg">
<path d="M1080.24 96.9288L1044.78 132.665C1035.32 142.208 1019.9 142.268 1010.36 132.801C1000.82 123.333 1000.76 107.922 1010.23 98.3793L1045.68 62.6433C1055.15 53.1007 1070.56 53.0399 1080.1 62.5074C1089.64 71.975 1089.71 87.3861 1080.24 96.9288Z" stroke="#EBC042" stroke-width="2"/>
<path d="M1080.2 62.6341L1115.93 98.0889C1125.48 107.556 1125.54 122.968 1116.07 132.51C1106.6 142.053 1091.19 142.114 1081.65 132.646L1045.91 97.1915C1036.37 87.724 1036.31 72.3128 1045.78 62.7701C1055.24 53.2274 1070.65 53.1665 1080.2 62.6341Z" stroke="#EBC042" stroke-width="2"/>
<path d="M1080.24 369.093L1044.78 404.829C1035.32 414.372 1019.9 414.432 1010.36 404.965C1000.82 395.497 1000.76 380.086 1010.23 370.543L1045.68 334.807C1055.15 325.265 1070.56 325.204 1080.1 334.671C1089.64 344.139 1089.71 359.55 1080.24 369.093Z" stroke="#EBC042" stroke-width="2"/>
<path d="M1080.2 334.8L1115.93 370.255C1125.48 379.722 1125.54 395.134 1116.07 404.676C1106.6 414.219 1091.19 414.28 1081.65 404.812L1045.91 369.358C1036.37 359.89 1036.31 344.479 1045.78 334.936C1055.24 325.393 1070.65 325.332 1080.2 334.8Z" stroke="#EBC042" stroke-width="2"/>
<path d="M1080.24 233.28L1044.78 269.016C1035.32 278.559 1019.9 278.62 1010.36 269.152C1000.82 259.685 1000.76 244.274 1010.23 234.731L1045.68 198.995C1055.15 189.452 1070.56 189.391 1080.1 198.859C1089.64 208.327 1089.71 223.738 1080.24 233.28Z" stroke="#EBC042" stroke-width="2"/>
<path d="M1080.2 198.986L1115.93 234.44C1125.48 243.908 1125.54 259.319 1116.07 268.862C1106.6 278.404 1091.19 278.465 1081.65 268.998L1045.91 233.543C1036.37 224.076 1036.31 208.664 1045.78 199.122C1055.24 189.579 1070.65 189.518 1080.2 198.986Z" stroke="#EBC042" stroke-width="2"/>
<path d="M1080.24 505.445L1044.78 541.181C1035.32 550.724 1019.9 550.785 1010.36 541.317C1000.82 531.85 1000.76 516.439 1010.23 506.896L1045.68 471.16C1055.15 461.617 1070.56 461.556 1080.1 471.024C1089.64 480.492 1089.71 495.903 1080.24 505.445Z" stroke="#EBC042" stroke-width="2"/>
<path d="M1080.2 471.151L1115.93 506.605C1125.48 516.073 1125.54 531.484 1116.07 541.027C1106.6 550.57 1091.19 550.63 1081.65 541.163L1045.91 505.708C1036.37 496.241 1036.31 480.829 1045.78 471.287C1055.24 461.744 1070.65 461.683 1080.2 471.151Z" stroke="#EBC042" stroke-width="2"/>
<path d="M1276.86 97.5753L1241.41 133.311C1231.94 142.854 1216.53 142.915 1206.99 133.447C1197.44 123.98 1197.38 108.568 1206.85 99.0258L1242.3 63.2898C1251.77 53.7471 1267.18 53.6863 1276.73 63.1539C1286.27 72.6215 1286.33 88.0326 1276.86 97.5753Z" stroke="#EBC042" stroke-width="2"/>
<path d="M1276.82 63.2806L1312.56 98.7353C1322.1 108.203 1322.16 123.614 1312.69 133.157C1303.23 142.699 1287.81 142.76 1278.27 133.293L1242.54 97.838C1232.99 88.3704 1232.93 72.9593 1242.4 63.4166C1251.87 53.8738 1267.28 53.813 1276.82 63.2806Z" stroke="#EBC042" stroke-width="2"/>
<path d="M1276.86 369.738L1241.41 405.474C1231.94 415.017 1216.53 415.078 1206.99 405.61C1197.44 396.143 1197.38 380.732 1206.85 371.189L1242.3 335.453C1251.77 325.91 1267.18 325.849 1276.73 335.317C1286.27 344.785 1286.33 360.196 1276.86 369.738Z" stroke="#EBC042" stroke-width="2"/>
<path d="M1276.82 335.446L1312.56 370.9C1322.1 380.368 1322.16 395.779 1312.69 405.322C1303.23 414.864 1287.81 414.925 1278.27 405.458L1242.54 370.003C1232.99 360.535 1232.93 345.124 1242.4 335.582C1251.87 326.039 1267.28 325.978 1276.82 335.446Z" stroke="#EBC042" stroke-width="2"/>
<path d="M1276.86 233.925L1241.41 269.661C1231.94 279.204 1216.53 279.264 1206.99 269.797C1197.44 260.329 1197.38 244.918 1206.85 235.375L1242.3 199.639C1251.77 190.097 1267.18 190.036 1276.73 199.503C1286.27 208.971 1286.33 224.382 1276.86 233.925Z" stroke="#EBC042" stroke-width="2"/>
<path d="M1276.82 199.63L1312.56 235.085C1322.1 244.553 1322.16 259.964 1312.69 269.506C1303.23 279.049 1287.81 279.11 1278.27 269.642L1242.54 234.188C1232.99 224.72 1232.93 209.309 1242.4 199.766C1251.87 190.223 1267.28 190.163 1276.82 199.63Z" stroke="#EBC042" stroke-width="2"/>
<path d="M1276.86 506.092L1241.41 541.828C1231.94 551.371 1216.53 551.431 1206.99 541.964C1197.44 532.496 1197.38 517.085 1206.85 507.542L1242.3 471.806C1251.77 462.264 1267.18 462.203 1276.73 471.67C1286.27 481.138 1286.33 496.549 1276.86 506.092Z" stroke="#EBC042" stroke-width="2"/>
<path d="M1276.82 471.796L1312.56 507.251C1322.1 516.719 1322.16 532.13 1312.69 541.672C1303.23 551.215 1287.81 551.276 1278.27 541.808L1242.54 506.354C1232.99 496.886 1232.93 481.475 1242.4 471.932C1251.87 462.389 1267.28 462.329 1276.82 471.796Z" stroke="#EBC042" stroke-width="2"/>
<path d="M1673.72 97.5753L1638.27 133.311C1628.8 142.854 1613.39 142.915 1603.85 133.447C1594.3 123.98 1594.24 108.568 1603.71 99.0258L1639.17 63.2898C1648.63 53.7471 1664.05 53.6863 1673.59 63.1539C1683.13 72.6215 1683.19 88.0326 1673.72 97.5753Z" stroke="#EBC042" stroke-width="2"/>
<path d="M1673.68 63.2806L1709.42 98.7353C1718.96 108.203 1719.02 123.614 1709.55 133.157C1700.09 142.699 1684.68 142.76 1675.13 133.293L1639.4 97.838C1629.85 88.3704 1629.79 72.9593 1639.26 63.4166C1648.73 53.8738 1664.14 53.813 1673.68 63.2806Z" stroke="#EBC042" stroke-width="2"/>
<path d="M1673.72 369.738L1638.27 405.474C1628.8 415.017 1613.39 415.078 1603.85 405.61C1594.3 396.143 1594.24 380.732 1603.71 371.189L1639.17 335.453C1648.63 325.91 1664.04 325.849 1673.59 335.317C1683.13 344.785 1683.19 360.196 1673.72 369.738Z" stroke="#EBC042" stroke-width="2"/>
<path d="M1673.68 335.446L1709.42 370.9C1718.96 380.368 1719.02 395.779 1709.55 405.322C1700.09 414.864 1684.68 414.925 1675.13 405.458L1639.4 370.003C1629.85 360.535 1629.79 345.124 1639.26 335.582C1648.73 326.039 1664.14 325.978 1673.68 335.446Z" stroke="#EBC042" stroke-width="2"/>
<path d="M1673.72 233.925L1638.27 269.661C1628.8 279.204 1613.39 279.264 1603.85 269.797C1594.3 260.329 1594.24 244.918 1603.71 235.375L1639.17 199.639C1648.63 190.097 1664.04 190.036 1673.59 199.503C1683.13 208.971 1683.19 224.382 1673.72 233.925Z" stroke="#EBC042" stroke-width="2"/>
<path d="M1673.68 199.63L1709.42 235.085C1718.96 244.553 1719.02 259.964 1709.55 269.506C1700.09 279.049 1684.68 279.11 1675.13 269.642L1639.4 234.188C1629.85 224.72 1629.79 209.309 1639.26 199.766C1648.73 190.223 1664.14 190.163 1673.68 199.63Z" stroke="#EBC042" stroke-width="2"/>
<path d="M1673.72 506.092L1638.27 541.828C1628.8 551.371 1613.39 551.431 1603.85 541.964C1594.3 532.496 1594.24 517.085 1603.71 507.542L1639.17 471.806C1648.63 462.264 1664.04 462.203 1673.59 471.67C1683.13 481.138 1683.19 496.549 1673.72 506.092Z" stroke="#EBC042" stroke-width="2"/>
<path d="M1673.68 471.796L1709.42 507.251C1718.96 516.719 1719.02 532.13 1709.55 541.672C1700.09 551.215 1684.68 551.276 1675.13 541.808L1639.4 506.354C1629.85 496.886 1629.79 481.475 1639.26 471.932C1648.73 462.389 1664.14 462.329 1673.68 471.796Z" stroke="#EBC042" stroke-width="2"/>
<path d="M1476.84 95.7677L1441.39 131.504C1431.92 141.046 1416.51 141.107 1406.96 131.64C1397.42 122.172 1397.36 106.761 1406.83 97.2182L1442.28 61.4822C1451.75 51.9395 1467.16 51.8787 1476.71 61.3462C1486.25 70.8139 1486.31 86.225 1476.84 95.7677Z" stroke="#EBC042" stroke-width="2"/>
<path d="M1476.8 61.4749L1512.54 96.9297C1522.08 106.397 1522.14 121.808 1512.67 131.351C1503.2 140.894 1487.79 140.955 1478.25 131.487L1442.51 96.0324C1432.97 86.5648 1432.91 71.1536 1442.38 61.6109C1451.85 52.0682 1467.26 52.0073 1476.8 61.4749Z" stroke="#EBC042" stroke-width="2"/>
<path d="M1476.84 367.934L1441.39 403.67C1431.92 413.212 1416.51 413.273 1406.96 403.806C1397.42 394.338 1397.36 378.927 1406.83 369.384L1442.28 333.648C1451.75 324.106 1467.16 324.045 1476.71 333.512C1486.25 342.98 1486.31 358.391 1476.84 367.934Z" stroke="#EBC042" stroke-width="2"/>
<path d="M1476.8 333.64L1512.54 369.095C1522.08 378.562 1522.14 393.973 1512.67 403.516C1503.2 413.059 1487.79 413.12 1478.25 403.652L1442.51 368.197C1432.97 358.73 1432.91 343.319 1442.38 333.776C1451.85 324.233 1467.26 324.172 1476.8 333.64Z" stroke="#EBC042" stroke-width="2"/>
<path d="M1476.84 232.118L1441.39 267.854C1431.92 277.397 1416.51 277.458 1406.96 267.99C1397.42 258.523 1397.36 243.111 1406.83 233.569L1442.28 197.833C1451.75 188.29 1467.16 188.229 1476.71 197.697C1486.25 207.164 1486.31 222.576 1476.84 232.118Z" stroke="#EBC042" stroke-width="2"/>
<path d="M1476.8 197.824L1512.54 233.278C1522.08 242.746 1522.14 258.157 1512.67 267.7C1503.2 277.242 1487.79 277.303 1478.25 267.836L1442.51 232.381C1432.97 222.913 1432.91 207.502 1442.38 197.96C1451.85 188.417 1467.26 188.356 1476.8 197.824Z" stroke="#EBC042" stroke-width="2"/>
<path d="M1476.84 504.284L1441.39 540.02C1431.92 549.563 1416.51 549.624 1406.96 540.156C1397.42 530.689 1397.36 515.277 1406.83 505.735L1442.28 469.999C1451.75 460.456 1467.16 460.395 1476.7 469.863C1486.25 479.33 1486.31 494.742 1476.84 504.284Z" stroke="#EBC042" stroke-width="2"/>
<path d="M1476.8 469.99L1512.54 505.444C1522.08 514.912 1522.14 530.323 1512.67 539.866C1503.2 549.408 1487.79 549.469 1478.25 540.002L1442.51 504.547C1432.97 495.079 1432.91 479.668 1442.38 470.126C1451.85 460.583 1467.26 460.522 1476.8 469.99Z" stroke="#EBC042" stroke-width="2"/>
<path d="M1873.7 95.7677L1838.25 131.504C1828.78 141.046 1813.37 141.107 1803.83 131.64C1794.28 122.172 1794.22 106.761 1803.69 97.2182L1839.14 61.4822C1848.61 51.9395 1864.02 51.8787 1873.57 61.3462C1883.11 70.8139 1883.17 86.225 1873.7 95.7677Z" stroke="#EBC042" stroke-width="2"/>
<path d="M1873.66 61.4749L1909.4 96.9297C1918.94 106.397 1919 121.808 1909.53 131.351C1900.07 140.894 1884.65 140.955 1875.11 131.487L1839.38 96.0324C1829.83 86.5648 1829.77 71.1536 1839.24 61.6109C1848.71 52.0682 1864.12 52.0073 1873.66 61.4749Z" stroke="#EBC042" stroke-width="2"/>
<path d="M1873.7 367.934L1838.25 403.67C1828.78 413.212 1813.37 413.273 1803.83 403.806C1794.28 394.338 1794.22 378.927 1803.69 369.384L1839.15 333.648C1848.61 324.106 1864.02 324.045 1873.57 333.512C1883.11 342.98 1883.17 358.391 1873.7 367.934Z" stroke="#EBC042" stroke-width="2"/>
<path d="M1873.66 333.64L1909.4 369.095C1918.94 378.562 1919 393.973 1909.53 403.516C1900.07 413.059 1884.65 413.12 1875.11 403.652L1839.38 368.197C1829.83 358.73 1829.77 343.319 1839.24 333.776C1848.71 324.233 1864.12 324.172 1873.66 333.64Z" stroke="#EBC042" stroke-width="2"/>
<path d="M1873.7 232.118L1838.25 267.854C1828.78 277.397 1813.37 277.458 1803.83 267.99C1794.28 258.523 1794.22 243.111 1803.69 233.569L1839.15 197.833C1848.61 188.29 1864.02 188.229 1873.57 197.697C1883.11 207.164 1883.17 222.576 1873.7 232.118Z" stroke="#EBC042" stroke-width="2"/>
<path d="M1873.66 197.826L1909.4 233.28C1918.94 242.748 1919 258.159 1909.53 267.702C1900.07 277.244 1884.65 277.305 1875.11 267.838L1839.38 232.383C1829.83 222.915 1829.77 207.504 1839.24 197.961C1848.71 188.419 1864.12 188.358 1873.66 197.826Z" stroke="#EBC042" stroke-width="2"/>
<path d="M1873.7 504.284L1838.25 540.02C1828.78 549.563 1813.37 549.624 1803.83 540.156C1794.28 530.689 1794.22 515.277 1803.69 505.735L1839.15 469.999C1848.61 460.456 1864.02 460.395 1873.57 469.863C1883.11 479.33 1883.17 494.742 1873.7 504.284Z" stroke="#EBC042" stroke-width="2"/>
<path d="M1873.66 469.99L1909.4 505.444C1918.94 514.912 1919 530.323 1909.53 539.866C1900.07 549.408 1884.65 549.469 1875.11 540.002L1839.38 504.547C1829.83 495.079 1829.77 479.668 1839.24 470.126C1848.71 460.583 1864.12 460.522 1873.66 469.99Z" stroke="#EBC042" stroke-width="2"/>
<path d="M1145.54 56.3376L1181.4 21.0101C1190.97 11.5765 1206.39 11.6921 1215.82 21.2684C1225.25 30.8447 1225.14 46.2556 1215.56 55.6892L1179.7 91.0167C1170.12 100.45 1154.71 100.335 1145.28 90.7584C1135.99 81.3316 1135.96 66.2511 1145.09 56.7838L1145.54 56.3376Z" stroke="#EBC042" stroke-width="2"/>
<path d="M1145.18 90.6301L1109.86 54.7683C1100.42 45.192 1100.54 29.7812 1110.12 20.3475C1119.69 10.914 1135.1 11.0296 1144.54 20.6058L1179.86 56.4676C1189.3 66.0439 1189.18 81.4547 1179.61 90.8884C1170.18 100.175 1155.1 100.208 1145.63 91.0719L1145.18 90.6301Z" stroke="#EBC042" stroke-width="2"/>
<path d="M1145.54 328.504L1181.4 293.176C1190.97 283.742 1206.39 283.858 1215.82 293.434C1225.25 303.011 1225.14 318.422 1215.56 327.855L1179.7 363.183C1170.12 372.616 1154.71 372.501 1145.28 362.924C1135.99 353.498 1135.96 338.417 1145.09 328.95L1145.54 328.504Z" stroke="#EBC042" stroke-width="2"/>
<path d="M1145.18 362.796L1109.86 326.934C1100.42 317.358 1100.54 301.947 1110.12 292.514C1119.69 283.08 1135.1 283.196 1144.54 292.772L1179.86 328.634C1189.3 338.21 1189.18 353.621 1179.61 363.054C1170.18 372.341 1155.1 372.374 1145.63 363.238L1145.18 362.796Z" stroke="#EBC042" stroke-width="2"/>
<path d="M1145.54 192.688L1181.4 157.361C1190.97 147.927 1206.39 148.043 1215.82 157.619C1225.25 167.195 1225.14 182.606 1215.56 192.04L1179.7 227.367C1170.12 236.801 1154.71 236.685 1145.28 227.109C1135.99 217.682 1135.96 202.602 1145.09 193.134L1145.54 192.688Z" stroke="#EBC042" stroke-width="2"/>
<path d="M1145.18 226.981L1109.86 191.119C1100.42 181.543 1100.54 166.132 1110.12 156.698C1119.69 147.265 1135.1 147.38 1144.54 156.956L1179.86 192.818C1189.3 202.394 1189.18 217.805 1179.61 227.239C1170.18 236.525 1155.1 236.558 1145.63 227.423L1145.18 226.981Z" stroke="#EBC042" stroke-width="2"/>
<path d="M1145.54 464.857L1181.4 429.53C1190.97 420.096 1206.39 420.212 1215.82 429.788C1225.25 439.364 1225.14 454.775 1215.56 464.209L1179.7 499.536C1170.12 508.97 1154.71 508.854 1145.28 499.278C1135.99 489.851 1135.96 474.771 1145.09 465.303L1145.54 464.857Z" stroke="#EBC042" stroke-width="2"/>
<path d="M1145.18 499.148L1109.86 463.286C1100.42 453.71 1100.54 438.299 1110.12 428.865C1119.69 419.432 1135.1 419.547 1144.54 429.123L1179.86 464.985C1189.3 474.561 1189.18 489.972 1179.61 499.406C1170.18 508.692 1155.1 508.725 1145.63 499.589L1145.18 499.148Z" stroke="#EBC042" stroke-width="2"/>
<path d="M1342.16 56.9812L1378.02 21.6536C1387.6 12.22 1403.01 12.3357 1412.44 21.912C1421.88 31.4883 1421.76 46.8991 1412.19 56.3327L1376.32 91.6602C1366.75 101.094 1351.34 100.978 1341.9 91.4019C1332.62 81.9751 1332.58 66.8946 1341.72 57.4274L1342.16 56.9812Z" stroke="#EBC042" stroke-width="2"/>
<path d="M1341.81 91.2726L1306.48 55.4109C1297.05 45.8346 1297.16 30.4237 1306.74 20.9901C1316.32 11.5566 1331.73 11.6721 1341.16 21.2484L1376.49 57.1102C1385.92 66.6865 1385.81 82.0973 1376.23 91.531C1366.8 100.817 1351.72 100.85 1342.26 91.7145L1341.81 91.2726Z" stroke="#EBC042" stroke-width="2"/>
<path d="M1342.16 329.146L1378.02 293.819C1387.6 284.385 1403.01 284.501 1412.44 294.077C1421.88 303.653 1421.76 319.064 1412.19 328.498L1376.32 363.825C1366.75 373.259 1351.34 373.143 1341.9 363.567C1332.62 354.14 1332.58 339.06 1341.72 329.592L1342.16 329.146Z" stroke="#EBC042" stroke-width="2"/>
<path d="M1341.81 363.439L1306.48 327.577C1297.05 318.001 1297.16 302.59 1306.74 293.156C1316.32 283.723 1331.73 283.838 1341.16 293.414L1376.49 329.276C1385.92 338.852 1385.81 354.263 1376.23 363.697C1366.8 372.983 1351.72 373.016 1342.26 363.881L1341.81 363.439Z" stroke="#EBC042" stroke-width="2"/>
<path d="M1342.16 193.333L1378.02 158.005C1387.6 148.572 1403.01 148.687 1412.44 158.264C1421.88 167.84 1421.76 183.251 1412.19 192.684L1376.32 228.012C1366.75 237.445 1351.34 237.33 1341.9 227.753C1332.62 218.327 1332.58 203.246 1341.72 193.779L1342.16 193.333Z" stroke="#EBC042" stroke-width="2"/>
<path d="M1341.81 227.625L1306.48 191.763C1297.05 182.187 1297.16 166.776 1306.74 157.343C1316.32 147.909 1331.73 148.025 1341.16 157.601L1376.49 193.463C1385.92 203.039 1385.81 218.45 1376.23 227.884C1366.8 237.17 1351.72 237.203 1342.26 228.067L1341.81 227.625Z" stroke="#EBC042" stroke-width="2"/>
<path d="M1342.16 465.499L1378.02 430.171C1387.6 420.738 1403.01 420.853 1412.44 430.43C1421.88 440.006 1421.76 455.417 1412.19 464.85L1376.32 500.178C1366.75 509.611 1351.34 509.496 1341.9 499.919C1332.62 490.493 1332.58 475.412 1341.72 465.945L1342.16 465.499Z" stroke="#EBC042" stroke-width="2"/>
<path d="M1341.81 499.792L1306.48 463.93C1297.05 454.354 1297.16 438.943 1306.74 429.51C1316.32 420.076 1331.73 420.192 1341.16 429.768L1376.49 465.63C1385.92 475.206 1385.81 490.617 1376.23 500.051C1366.8 509.337 1351.72 509.37 1342.26 500.234L1341.81 499.792Z" stroke="#EBC042" stroke-width="2"/>
<path d="M1739.02 56.9821L1774.88 21.6546C1784.46 12.221 1799.87 12.3366 1809.3 21.913C1818.74 31.4893 1818.62 46.9001 1809.05 56.3337L1773.18 91.6612C1763.61 101.095 1748.2 100.979 1738.76 91.4029C1729.48 81.9761 1729.44 66.8956 1738.58 57.4284L1739.02 56.9821Z" stroke="#EBC042" stroke-width="2"/>
<path d="M1738.67 91.2726L1703.34 55.4109C1693.91 45.8346 1694.03 30.4237 1703.6 20.9901C1713.18 11.5566 1728.59 11.6721 1738.02 21.2484L1773.35 57.1102C1782.78 66.6865 1782.67 82.0973 1773.09 91.531C1763.66 100.817 1748.58 100.85 1739.12 91.7145L1738.67 91.2726Z" stroke="#EBC042" stroke-width="2"/>
<path d="M1739.02 329.147L1774.88 293.82C1784.46 284.386 1799.87 284.502 1809.31 294.078C1818.74 303.654 1818.62 319.065 1809.05 328.499L1773.19 363.826C1763.61 373.26 1748.2 373.144 1738.76 363.568C1729.48 354.141 1729.44 339.061 1738.58 329.593L1739.02 329.147Z" stroke="#EBC042" stroke-width="2"/>
<path d="M1738.67 363.44L1703.34 327.578C1693.91 318.002 1694.03 302.591 1703.6 293.157C1713.18 283.724 1728.59 283.839 1738.02 293.415L1773.35 329.277C1782.78 338.853 1782.67 354.264 1773.09 363.698C1763.67 372.984 1748.58 373.017 1739.12 363.881L1738.67 363.44Z" stroke="#EBC042" stroke-width="2"/>
<path d="M1739.02 193.333L1774.88 158.005C1784.46 148.572 1799.87 148.687 1809.31 158.264C1818.74 167.84 1818.62 183.251 1809.05 192.684L1773.19 228.012C1763.61 237.445 1748.2 237.33 1738.76 227.753C1729.48 218.327 1729.44 203.246 1738.58 193.779L1739.02 193.333Z" stroke="#EBC042" stroke-width="2"/>
<path d="M1738.67 227.625L1703.34 191.763C1693.91 182.187 1694.03 166.776 1703.6 157.343C1713.18 147.909 1728.59 148.025 1738.02 157.601L1773.35 193.463C1782.78 203.039 1782.67 218.45 1773.09 227.884C1763.67 237.17 1748.58 237.203 1739.12 228.067L1738.67 227.625Z" stroke="#EBC042" stroke-width="2"/>
<path d="M1739.02 465.5L1774.88 430.172C1784.46 420.739 1799.87 420.854 1809.31 430.431C1818.74 440.007 1818.62 455.418 1809.05 464.851L1773.19 500.179C1763.61 509.612 1748.2 509.497 1738.76 499.92C1729.48 490.494 1729.44 475.413 1738.58 465.946L1739.02 465.5Z" stroke="#EBC042" stroke-width="2"/>
<path d="M1738.67 499.792L1703.34 463.93C1693.91 454.354 1694.03 438.943 1703.6 429.51C1713.18 420.076 1728.59 420.192 1738.02 429.768L1773.35 465.63C1782.78 475.206 1782.67 490.617 1773.09 500.051C1763.67 509.337 1748.58 509.37 1739.12 500.234L1738.67 499.792Z" stroke="#EBC042" stroke-width="2"/>
<path d="M1542.14 55.1755L1578 19.848C1587.58 10.4143 1602.99 10.53 1612.42 20.1063C1621.86 29.6826 1621.74 45.0935 1612.16 54.5271L1576.3 89.8546C1566.73 99.2882 1551.32 99.1725 1541.88 89.5963C1532.6 80.1695 1532.56 65.089 1541.7 55.6217L1542.14 55.1755Z" stroke="#EBC042" stroke-width="2"/>
<path d="M1541.79 89.467L1506.46 53.6052C1497.03 44.0289 1497.14 28.6181 1506.72 19.1844C1516.3 9.75089 1531.71 9.86648 1541.14 19.4428L1576.47 55.3045C1585.9 64.8808 1585.79 80.2917 1576.21 89.7253C1566.78 99.0117 1551.7 99.0448 1542.23 89.9088L1541.79 89.467Z" stroke="#EBC042" stroke-width="2"/>
<path d="M1542.14 327.341L1578 292.013C1587.58 282.579 1602.99 282.695 1612.42 292.271C1621.86 301.848 1621.74 317.259 1612.16 326.692L1576.3 362.02C1566.73 371.453 1551.32 371.338 1541.88 361.761C1532.6 352.335 1532.56 337.254 1541.7 327.787L1542.14 327.341Z" stroke="#EBC042" stroke-width="2"/>
<path d="M1541.79 361.633L1506.46 325.771C1497.03 316.195 1497.14 300.784 1506.72 291.35C1516.3 281.917 1531.71 282.033 1541.14 291.609L1576.47 327.471C1585.9 337.047 1585.79 352.458 1576.21 361.891C1566.78 371.178 1551.7 371.211 1542.23 362.075L1541.79 361.633Z" stroke="#EBC042" stroke-width="2"/>
<path d="M1542.14 191.527L1578 156.2C1587.58 146.766 1602.99 146.882 1612.42 156.458C1621.86 166.034 1621.74 181.445 1612.16 190.879L1576.3 226.206C1566.73 235.64 1551.32 235.524 1541.88 225.948C1532.6 216.521 1532.56 201.441 1541.7 191.973L1542.14 191.527Z" stroke="#EBC042" stroke-width="2"/>
<path d="M1541.79 225.819L1506.46 189.957C1497.03 180.38 1497.14 164.97 1506.72 155.536C1516.3 146.102 1531.71 146.218 1541.14 155.794L1576.47 191.656C1585.9 201.232 1585.79 216.643 1576.21 226.077C1566.78 235.363 1551.7 235.396 1542.23 226.26L1541.79 225.819Z" stroke="#EBC042" stroke-width="2"/>
<path d="M1542.14 463.694L1578 428.367C1587.58 418.933 1602.99 419.049 1612.42 428.625C1621.86 438.201 1621.74 453.612 1612.16 463.046L1576.3 498.373C1566.73 507.807 1551.32 507.691 1541.88 498.115C1532.6 488.688 1532.56 473.608 1541.7 464.14L1542.14 463.694Z" stroke="#EBC042" stroke-width="2"/>
<path d="M1541.79 497.985L1506.46 462.123C1497.03 452.546 1497.14 437.136 1506.72 427.702C1516.3 418.268 1531.71 418.384 1541.14 427.96L1576.47 463.822C1585.9 473.398 1585.79 488.809 1576.21 498.243C1566.78 507.529 1551.7 507.562 1542.23 498.426L1541.79 497.985Z" stroke="#EBC042" stroke-width="2"/>
<path d="M1939 55.1755L1974.86 19.848C1984.44 10.4143 1999.85 10.53 2009.28 20.1063C2018.72 29.6826 2018.6 45.0935 2009.03 54.5271L1973.16 89.8546C1963.59 99.2882 1948.18 99.1725 1938.74 89.5963C1929.46 80.1695 1929.42 65.089 1938.56 55.6217L1939 55.1755Z" stroke="#EBC042" stroke-width="2"/>
<path d="M1938.65 89.467L1903.32 53.6052C1893.89 44.0289 1894 28.6181 1903.58 19.1844C1913.16 9.75089 1928.57 9.86648 1938 19.4428L1973.33 55.3045C1982.76 64.8808 1982.65 80.2917 1973.07 89.7253C1963.64 99.0117 1948.56 99.0448 1939.1 89.9088L1938.65 89.467Z" stroke="#EBC042" stroke-width="2"/>
<path d="M1939 327.341L1974.86 292.013C1984.44 282.579 1999.85 282.695 2009.28 292.271C2018.72 301.848 2018.6 317.259 2009.03 326.692L1973.16 362.02C1963.59 371.453 1948.18 371.338 1938.74 361.761C1929.46 352.335 1929.42 337.254 1938.56 327.787L1939 327.341Z" stroke="#EBC042" stroke-width="2"/>
<path d="M1938.65 361.633L1903.32 325.771C1893.89 316.195 1894 300.784 1903.58 291.35C1913.16 281.917 1928.57 282.033 1938 291.609L1973.33 327.471C1982.76 337.047 1982.65 352.458 1973.07 361.891C1963.64 371.178 1948.56 371.211 1939.1 362.075L1938.65 361.633Z" stroke="#EBC042" stroke-width="2"/>
<path d="M1939 191.527L1974.86 156.2C1984.44 146.766 1999.85 146.882 2009.28 156.458C2018.72 166.034 2018.6 181.445 2009.03 190.879L1973.16 226.206C1963.59 235.64 1948.18 235.524 1938.74 225.948C1929.46 216.521 1929.42 201.441 1938.56 191.973L1939 191.527Z" stroke="#EBC042" stroke-width="2"/>
<path d="M1938.65 225.819L1903.32 189.957C1893.89 180.38 1894 164.97 1903.58 155.536C1913.16 146.102 1928.57 146.218 1938 155.794L1973.33 191.656C1982.76 201.232 1982.65 216.643 1973.07 226.077C1963.64 235.363 1948.56 235.396 1939.1 226.26L1938.65 225.819Z" stroke="#EBC042" stroke-width="2"/>
<path d="M1939 463.694L1974.86 428.367C1984.44 418.933 1999.85 419.049 2009.28 428.625C2018.72 438.201 2018.6 453.612 2009.03 463.046L1973.16 498.373C1963.59 507.807 1948.18 507.691 1938.74 498.115C1929.46 488.688 1929.42 473.608 1938.56 464.14L1939 463.694Z" stroke="#EBC042" stroke-width="2"/>
<path d="M1938.65 497.985L1903.32 462.123C1893.89 452.546 1894 437.136 1903.58 427.702C1913.16 418.268 1928.57 418.384 1938 427.96L1973.33 463.822C1982.76 473.398 1982.65 488.809 1973.07 498.243C1963.64 507.529 1948.56 507.562 1939.1 498.426L1938.65 497.985Z" stroke="#EBC042" stroke-width="2"/>
<path d="M89.6916 98.1173L54.2368 133.853C44.7692 143.396 29.3581 143.457 19.8154 133.989C10.2728 124.522 10.2118 109.11 19.6794 99.5678L55.1341 63.8318C64.6017 54.2891 80.0129 54.2283 89.5556 63.6958C99.0983 73.1635 99.1592 88.5746 89.6916 98.1173Z" stroke="#EBC042" stroke-width="2"/>
<path d="M89.6505 63.8236L125.386 99.2783C134.929 108.746 134.99 124.157 125.522 133.7C116.055 143.242 100.644 143.303 91.101 133.836L55.365 98.381C45.8223 88.9134 45.7615 73.5022 55.229 63.9595C64.6967 54.4168 80.1078 54.3559 89.6505 63.8236Z" stroke="#EBC042" stroke-width="2"/>
<path d="M89.6911 370.283L54.2363 406.019C44.7687 415.562 29.3576 415.623 19.8149 406.155C10.2723 396.688 10.2113 381.276 19.6789 371.734L55.1337 335.998C64.6012 326.455 80.0124 326.394 89.5551 335.862C99.0978 345.329 99.1587 360.741 89.6911 370.283Z" stroke="#EBC042" stroke-width="2"/>
<path d="M89.6505 335.991L125.386 371.445C134.929 380.913 134.99 396.324 125.522 405.867C116.055 415.409 100.644 415.47 91.101 406.003L55.365 370.548C45.8223 361.08 45.7615 345.669 55.229 336.127C64.6967 326.584 80.1078 326.523 89.6505 335.991Z" stroke="#EBC042" stroke-width="2"/>
<path d="M89.6916 234.47L54.2368 270.206C44.7692 279.749 29.3581 279.809 19.8154 270.342C10.2728 260.874 10.2118 245.463 19.6794 235.92L55.1341 200.184C64.6017 190.642 80.0129 190.581 89.5556 200.048C99.0983 209.516 99.1592 224.927 89.6916 234.47Z" stroke="#EBC042" stroke-width="2"/>
<path d="M89.6505 200.176L125.386 235.631C134.929 245.098 134.99 260.51 125.522 270.052C116.055 279.595 100.644 279.656 91.101 270.188L55.365 234.734C45.8223 225.266 45.7615 209.855 55.229 200.312C64.6967 190.769 80.1078 190.708 89.6505 200.176Z" stroke="#EBC042" stroke-width="2"/>
<path d="M89.6911 506.636L54.2363 542.372C44.7687 551.915 29.3576 551.975 19.8149 542.508C10.2723 533.04 10.2113 517.629 19.6789 508.086L55.1337 472.35C64.6012 462.808 80.0124 462.747 89.5551 472.214C99.0978 481.682 99.1587 497.093 89.6911 506.636Z" stroke="#EBC042" stroke-width="2"/>
<path d="M89.6505 472.34L125.386 507.795C134.929 517.263 134.99 532.674 125.522 542.216C116.055 551.759 100.644 551.82 91.101 542.352L55.365 506.898C45.8223 497.43 45.7615 482.019 55.229 472.476C64.6967 462.933 80.1078 462.873 89.6505 472.34Z" stroke="#EBC042" stroke-width="2"/>
<path d="M286.316 98.7628L250.861 134.499C241.393 144.042 225.982 144.102 216.439 134.635C206.897 125.167 206.836 109.756 216.303 100.213L251.758 64.4773C261.226 54.9346 276.637 54.8738 286.18 64.3414C295.722 73.809 295.783 89.2201 286.316 98.7628Z" stroke="#EBC042" stroke-width="2"/>
<path d="M286.275 64.47L322.011 99.9248C331.553 109.392 331.614 124.804 322.146 134.346C312.679 143.889 297.268 143.95 287.725 134.482L251.989 99.0275C242.446 89.5599 242.386 74.1487 251.853 64.606C261.321 55.0633 276.732 55.0024 286.275 64.47Z" stroke="#EBC042" stroke-width="2"/>
<path d="M286.316 370.927L250.861 406.663C241.393 416.206 225.982 416.266 216.439 406.799C206.897 397.331 206.836 381.92 216.303 372.377L251.758 336.641C261.226 327.099 276.637 327.038 286.18 336.505C295.722 345.973 295.783 361.384 286.316 370.927Z" stroke="#EBC042" stroke-width="2"/>
<path d="M286.275 336.634L322.011 372.089C331.553 381.556 331.614 396.968 322.146 406.51C312.679 416.053 297.268 416.114 287.725 406.646L251.989 371.192C242.446 361.724 242.386 346.313 251.853 336.77C261.321 327.227 276.732 327.166 286.275 336.634Z" stroke="#EBC042" stroke-width="2"/>
<path d="M286.316 235.114L250.861 270.85C241.393 280.393 225.982 280.454 216.439 270.986C206.897 261.519 206.836 246.108 216.303 236.565L251.758 200.829C261.226 191.286 276.637 191.225 286.18 200.693C295.722 210.161 295.783 225.572 286.316 235.114Z" stroke="#EBC042" stroke-width="2"/>
<path d="M286.275 200.821L322.011 236.275C331.553 245.743 331.614 261.154 322.146 270.697C312.679 280.239 297.268 280.3 287.725 270.833L251.989 235.378C242.446 225.91 242.386 210.499 251.853 200.957C261.321 191.414 276.732 191.353 286.275 200.821Z" stroke="#EBC042" stroke-width="2"/>
<path d="M286.315 507.28L250.86 543.016C241.393 552.559 225.982 552.62 216.439 543.152C206.896 533.685 206.835 518.274 216.303 508.731L251.758 472.995C261.225 463.452 276.636 463.391 286.179 472.859C295.722 482.327 295.783 497.738 286.315 507.28Z" stroke="#EBC042" stroke-width="2"/>
<path d="M286.275 472.987L322.011 508.441C331.553 517.909 331.614 533.32 322.146 542.863C312.679 552.405 297.268 552.466 287.725 542.999L251.989 507.544C242.446 498.076 242.386 482.665 251.853 473.123C261.321 463.58 276.732 463.519 286.275 472.987Z" stroke="#EBC042" stroke-width="2"/>
<path d="M683.177 98.7628L647.723 134.499C638.255 144.042 622.844 144.102 613.301 134.635C603.759 125.167 603.698 109.756 613.165 100.213L648.62 64.4773C658.088 54.9346 673.499 54.8738 683.041 64.3414C692.584 73.809 692.645 89.2201 683.177 98.7628Z" stroke="#EBC042" stroke-width="2"/>
<path d="M683.136 64.47L718.872 99.9248C728.415 109.392 728.476 124.804 719.008 134.346C709.541 143.889 694.13 143.95 684.587 134.482L648.851 99.0275C639.308 89.5599 639.247 74.1487 648.715 64.606C658.183 55.0633 673.594 55.0024 683.136 64.47Z" stroke="#EBC042" stroke-width="2"/>
<path d="M683.177 370.927L647.722 406.663C638.255 416.206 622.843 416.266 613.301 406.799C603.758 397.331 603.697 381.92 613.165 372.377L648.619 336.641C658.087 327.099 673.498 327.038 683.041 336.505C692.584 345.973 692.645 361.384 683.177 370.927Z" stroke="#EBC042" stroke-width="2"/>
<path d="M683.136 336.634L718.872 372.089C728.415 381.556 728.476 396.968 719.008 406.51C709.541 416.053 694.13 416.114 684.587 406.646L648.851 371.192C639.308 361.724 639.247 346.313 648.715 336.77C658.183 327.227 673.594 327.166 683.136 336.634Z" stroke="#EBC042" stroke-width="2"/>
<path d="M683.177 235.114L647.723 270.85C638.255 280.393 622.844 280.454 613.301 270.986C603.759 261.519 603.698 246.108 613.165 236.565L648.62 200.829C658.088 191.286 673.499 191.225 683.041 200.693C692.584 210.161 692.645 225.572 683.177 235.114Z" stroke="#EBC042" stroke-width="2"/>
<path d="M683.136 200.821L718.872 236.275C728.415 245.743 728.476 261.154 719.008 270.697C709.541 280.239 694.13 280.3 684.587 270.833L648.851 235.378C639.308 225.91 639.247 210.499 648.715 200.957C658.183 191.414 673.594 191.353 683.136 200.821Z" stroke="#EBC042" stroke-width="2"/>
<path d="M683.177 507.28L647.722 543.016C638.255 552.559 622.843 552.62 613.301 543.152C603.758 533.685 603.697 518.274 613.165 508.731L648.619 472.995C658.087 463.452 673.498 463.391 683.041 472.859C692.584 482.327 692.645 497.738 683.177 507.28Z" stroke="#EBC042" stroke-width="2"/>
<path d="M683.136 472.987L718.872 508.441C728.415 517.909 728.476 533.32 719.008 542.863C709.541 552.405 694.13 552.466 684.587 542.999L648.851 507.544C639.308 498.076 639.247 482.665 648.715 473.123C658.183 463.58 673.594 463.519 683.136 472.987Z" stroke="#EBC042" stroke-width="2"/>
<path d="M486.295 96.9562L450.84 132.692C441.372 142.235 425.961 142.296 416.418 132.828C406.876 123.36 406.815 107.949 416.282 98.4067L451.737 62.6707C461.205 53.128 476.616 53.0672 486.159 62.5347C495.701 72.0023 495.762 87.4135 486.295 96.9562Z" stroke="#EBC042" stroke-width="2"/>
<path d="M486.254 62.6624L521.99 98.1172C531.532 107.585 531.593 122.996 522.125 132.539C512.658 142.081 497.247 142.142 487.704 132.675L451.968 97.2199C442.425 87.7523 442.365 72.3411 451.832 62.7984C461.3 53.2557 476.711 53.1948 486.254 62.6624Z" stroke="#EBC042" stroke-width="2"/>
<path d="M486.295 369.122L450.84 404.858C441.372 414.401 425.961 414.462 416.418 404.994C406.876 395.527 406.815 380.115 416.282 370.573L451.737 334.837C461.205 325.294 476.616 325.233 486.159 334.701C495.701 344.168 495.762 359.579 486.295 369.122Z" stroke="#EBC042" stroke-width="2"/>
<path d="M486.254 334.828L521.99 370.283C531.532 379.751 531.593 395.162 522.125 404.705C512.658 414.247 497.247 414.308 487.704 404.841L451.968 369.386C442.425 359.918 442.365 344.507 451.832 334.964C461.3 325.422 476.711 325.361 486.254 334.828Z" stroke="#EBC042" stroke-width="2"/>
<path d="M486.295 233.307L450.84 269.043C441.372 278.585 425.961 278.646 416.418 269.179C406.876 259.711 406.815 244.3 416.282 234.757L451.737 199.021C461.205 189.479 476.616 189.418 486.159 198.885C495.701 208.353 495.762 223.764 486.295 233.307Z" stroke="#EBC042" stroke-width="2"/>
<path d="M486.254 199.013L521.99 234.468C531.532 243.935 531.593 259.347 522.125 268.889C512.658 278.432 497.247 278.493 487.704 269.025L451.968 233.57C442.425 224.103 442.365 208.692 451.832 199.149C461.3 189.606 476.711 189.545 486.254 199.013Z" stroke="#EBC042" stroke-width="2"/>
<path d="M486.294 505.475L450.839 541.211C441.372 550.753 425.961 550.814 416.418 541.347C406.875 531.879 406.814 516.468 416.282 506.925L451.737 471.189C461.204 461.647 476.615 461.586 486.158 471.053C495.701 480.521 495.762 495.932 486.294 505.475Z" stroke="#EBC042" stroke-width="2"/>
<path d="M486.254 471.18L521.99 506.635C531.532 516.102 531.593 531.514 522.125 541.056C512.658 550.599 497.247 550.66 487.704 541.192L451.968 505.737C442.425 496.27 442.365 480.859 451.832 471.316C461.3 461.773 476.711 461.712 486.254 471.18Z" stroke="#EBC042" stroke-width="2"/>
<path d="M883.156 96.9562L847.702 132.692C838.234 142.235 822.823 142.296 813.28 132.828C803.738 123.36 803.677 107.949 813.144 98.4067L848.599 62.6707C858.067 53.128 873.478 53.0672 883.02 62.5347C892.563 72.0023 892.624 87.4135 883.156 96.9562Z" stroke="#EBC042" stroke-width="2"/>
<path d="M883.115 62.6624L918.851 98.1172C928.394 107.585 928.455 122.996 918.987 132.539C909.52 142.081 894.109 142.142 884.566 132.675L848.83 97.2199C839.287 87.7523 839.226 72.3411 848.694 62.7984C858.162 53.2557 873.573 53.1948 883.115 62.6624Z" stroke="#EBC042" stroke-width="2"/>
<path d="M883.156 369.122L847.701 404.858C838.234 414.401 822.822 414.462 813.28 404.994C803.737 395.527 803.676 380.115 813.144 370.573L848.599 334.837C858.066 325.294 873.477 325.233 883.02 334.701C892.563 344.168 892.624 359.579 883.156 369.122Z" stroke="#EBC042" stroke-width="2"/>
<path d="M883.115 334.828L918.851 370.283C928.394 379.751 928.455 395.162 918.987 404.705C909.52 414.247 894.109 414.308 884.566 404.841L848.83 369.386C839.287 359.918 839.226 344.507 848.694 334.964C858.162 325.422 873.573 325.361 883.115 334.828Z" stroke="#EBC042" stroke-width="2"/>
<path d="M883.156 233.307L847.702 269.043C838.234 278.585 822.823 278.646 813.28 269.179C803.738 259.711 803.677 244.3 813.144 234.757L848.599 199.021C858.067 189.479 873.478 189.418 883.02 198.885C892.563 208.353 892.624 223.764 883.156 233.307Z" stroke="#EBC042" stroke-width="2"/>
<path d="M883.115 199.012L918.851 234.467C928.394 243.934 928.455 259.346 918.987 268.888C909.52 278.431 894.109 278.492 884.566 269.024L848.83 233.569C839.287 224.102 839.226 208.691 848.694 199.148C858.162 189.605 873.573 189.544 883.115 199.012Z" stroke="#EBC042" stroke-width="2"/>
<path d="M883.156 505.475L847.701 541.211C838.234 550.753 822.822 550.814 813.28 541.347C803.737 531.879 803.676 516.468 813.144 506.925L848.599 471.189C858.066 461.647 873.477 461.586 883.02 471.053C892.563 480.521 892.624 495.932 883.156 505.475Z" stroke="#EBC042" stroke-width="2"/>
<path d="M883.115 471.18L918.851 506.635C928.394 516.102 928.455 531.514 918.987 541.056C909.52 550.599 894.109 550.66 884.566 541.192L848.83 505.737C839.287 496.27 839.226 480.859 848.694 471.316C858.162 461.773 873.573 461.712 883.115 471.18Z" stroke="#EBC042" stroke-width="2"/>
<path d="M154.991 57.5271L190.852 22.1995C200.429 12.7659 215.839 12.8816 225.273 22.4579C234.707 32.0342 234.591 47.445 225.015 56.8786L189.153 92.2061C179.577 101.64 164.166 101.524 154.732 91.9478C145.446 82.521 145.413 67.4405 154.549 57.9733L154.991 57.5271Z" stroke="#EBC042" stroke-width="2"/>
<path d="M154.639 91.8185L119.311 55.9568C109.878 46.3805 109.993 30.9696 119.57 21.536C129.146 12.1025 144.557 12.218 153.99 21.7943L189.318 57.6561C198.752 67.2324 198.636 82.6432 189.06 92.0769C179.633 101.363 164.552 101.396 155.085 92.2604L154.639 91.8185Z" stroke="#EBC042" stroke-width="2"/>
<path d="M154.991 329.692L190.852 294.365C200.429 284.931 215.839 285.047 225.273 294.623C234.707 304.199 234.591 319.61 225.015 329.044L189.153 364.371C179.577 373.805 164.166 373.689 154.732 364.113C145.446 354.686 145.413 339.606 154.549 330.138L154.991 329.692Z" stroke="#EBC042" stroke-width="2"/>
<path d="M154.639 363.985L119.311 328.123C109.878 318.546 109.993 303.136 119.57 293.702C129.146 284.268 144.557 284.384 153.99 293.96L189.318 329.822C198.752 339.398 198.636 354.809 189.06 364.243C179.633 373.529 164.552 373.562 155.085 364.426L154.639 363.985Z" stroke="#EBC042" stroke-width="2"/>
<path d="M154.991 193.878L190.852 158.55C200.429 149.116 215.839 149.232 225.273 158.808C234.707 168.385 234.591 183.796 225.015 193.229L189.153 228.557C179.577 237.99 164.166 237.875 154.732 228.298C145.446 218.872 145.413 203.791 154.549 194.324L154.991 193.878Z" stroke="#EBC042" stroke-width="2"/>
<path d="M154.639 228.17L119.311 192.308C109.878 182.732 109.993 167.321 119.57 157.888C129.146 148.454 144.557 148.57 153.99 158.146L189.318 194.008C198.752 203.584 198.636 218.995 189.06 228.428C179.633 237.715 164.552 237.748 155.085 228.612L154.639 228.17Z" stroke="#EBC042" stroke-width="2"/>
<path d="M154.991 466.045L190.852 430.717C200.429 421.283 215.839 421.399 225.273 430.975C234.707 440.552 234.591 455.963 225.015 465.396L189.153 500.724C179.577 510.157 164.166 510.042 154.732 500.465C145.446 491.039 145.413 475.958 154.549 466.491L154.991 466.045Z" stroke="#EBC042" stroke-width="2"/>
<path d="M154.639 500.335L119.311 464.473C109.878 454.897 109.993 439.486 119.57 430.053C129.146 420.619 144.557 420.735 153.99 430.311L189.318 466.173C198.752 475.749 198.636 491.16 189.06 500.593C179.633 509.88 164.552 509.913 155.085 500.777L154.639 500.335Z" stroke="#EBC042" stroke-width="2"/>
<path d="M351.615 58.1706L387.476 22.8431C397.053 13.4095 412.463 13.5251 421.897 23.1014C431.331 32.6778 431.215 48.0886 421.639 57.5222L385.777 92.8497C376.201 102.283 360.79 102.168 351.356 92.5914C342.07 83.1646 342.037 68.0841 351.173 58.6168L351.615 58.1706Z" stroke="#EBC042" stroke-width="2"/>
<path d="M351.263 92.4621L315.935 56.6003C306.502 47.024 306.617 31.6132 316.194 22.1795C325.77 12.746 341.181 12.8616 350.614 22.4379L385.942 58.2997C395.376 67.8759 395.26 83.2868 385.684 92.7204C376.257 102.007 361.176 102.04 351.709 92.9039L351.263 92.4621Z" stroke="#EBC042" stroke-width="2"/>
<path d="M351.615 330.335L387.476 295.007C397.053 285.574 412.463 285.689 421.897 295.265C431.331 304.842 431.215 320.253 421.639 329.686L385.777 365.014C376.201 374.447 360.79 374.332 351.356 364.755C342.07 355.329 342.037 340.248 351.173 330.781L351.615 330.335Z" stroke="#EBC042" stroke-width="2"/>
<path d="M351.263 364.627L315.935 328.765C306.502 319.189 306.617 303.778 316.194 294.345C325.77 284.911 341.181 285.027 350.614 294.603L385.942 330.465C395.376 340.041 395.26 355.452 385.684 364.885C376.257 374.172 361.176 374.205 351.709 365.069L351.263 364.627Z" stroke="#EBC042" stroke-width="2"/>
<path d="M351.615 194.522L387.476 159.195C397.053 149.761 412.463 149.877 421.897 159.453C431.331 169.029 431.215 184.44 421.639 193.874L385.777 229.201C376.201 238.635 360.79 238.519 351.356 228.943C342.07 219.516 342.037 204.436 351.173 194.968L351.615 194.522Z" stroke="#EBC042" stroke-width="2"/>
<path d="M351.263 228.815L315.935 192.953C306.502 183.377 306.617 167.966 316.194 158.532C325.77 149.099 341.181 149.214 350.614 158.79L385.942 194.652C395.376 204.228 395.26 219.639 385.684 229.073C376.257 238.359 361.176 238.392 351.709 229.256L351.263 228.815Z" stroke="#EBC042" stroke-width="2"/>
<path d="M351.615 466.688L387.476 431.361C397.053 421.927 412.463 422.043 421.897 431.619C431.331 441.195 431.215 456.606 421.639 466.04L385.777 501.367C376.201 510.801 360.79 510.685 351.356 501.109C342.07 491.682 342.037 476.602 351.173 467.134L351.615 466.688Z" stroke="#EBC042" stroke-width="2"/>
<path d="M351.263 500.982L315.935 465.12C306.502 455.544 306.617 440.133 316.194 430.699C325.77 421.266 341.181 421.381 350.614 430.957L385.942 466.819C395.376 476.395 395.26 491.806 385.684 501.24C376.257 510.526 361.176 510.559 351.709 501.423L351.263 500.982Z" stroke="#EBC042" stroke-width="2"/>
<path d="M748.476 58.1706L784.338 22.8431C793.914 13.4095 809.325 13.5251 818.759 23.1014C828.192 32.6778 828.077 48.0886 818.501 57.5222L782.639 92.8497C773.063 102.283 757.652 102.168 748.218 92.5914C738.932 83.1646 738.899 68.0841 748.035 58.6168L748.476 58.1706Z" stroke="#EBC042" stroke-width="2"/>
<path d="M748.125 92.4621L712.797 56.6003C703.364 47.024 703.479 31.6132 713.056 22.1795C722.632 12.746 738.043 12.8616 747.476 22.4379L782.804 58.2997C792.237 67.8759 792.122 83.2868 782.545 92.7204C773.119 102.007 758.038 102.04 748.571 92.9039L748.125 92.4621Z" stroke="#EBC042" stroke-width="2"/>
<path d="M748.476 330.335L784.338 295.007C793.914 285.574 809.325 285.689 818.759 295.265C828.192 304.842 828.077 320.253 818.501 329.686L782.639 365.014C773.063 374.447 757.652 374.332 748.218 364.755C738.932 355.329 738.899 340.248 748.035 330.781L748.476 330.335Z" stroke="#EBC042" stroke-width="2"/>
<path d="M748.125 364.627L712.797 328.765C703.364 319.189 703.479 303.778 713.056 294.345C722.632 284.911 738.043 285.027 747.476 294.603L782.804 330.465C792.237 340.041 792.122 355.452 782.545 364.885C773.119 374.172 758.038 374.205 748.571 365.069L748.125 364.627Z" stroke="#EBC042" stroke-width="2"/>
<path d="M748.476 194.522L784.338 159.195C793.914 149.761 809.325 149.877 818.758 159.453C828.192 169.029 828.076 184.44 818.5 193.874L782.638 229.201C773.062 238.635 757.651 238.519 748.218 228.943C738.931 219.516 738.898 204.436 748.034 194.968L748.476 194.522Z" stroke="#EBC042" stroke-width="2"/>
<path d="M748.125 228.815L712.797 192.953C703.364 183.377 703.479 167.966 713.056 158.532C722.632 149.099 738.043 149.214 747.476 158.79L782.804 194.652C792.237 204.228 792.122 219.639 782.545 229.073C773.119 238.359 758.038 238.392 748.571 229.256L748.125 228.815Z" stroke="#EBC042" stroke-width="2"/>
<path d="M748.476 466.689L784.338 431.362C793.914 421.928 809.325 422.044 818.759 431.62C828.192 441.196 828.077 456.607 818.501 466.041L782.639 501.368C773.063 510.802 757.652 510.686 748.218 501.11C738.932 491.683 738.899 476.603 748.035 467.135L748.476 466.689Z" stroke="#EBC042" stroke-width="2"/>
<path d="M748.125 500.982L712.797 465.12C703.364 455.544 703.479 440.133 713.056 430.699C722.632 421.266 738.043 421.381 747.476 430.957L782.804 466.819C792.237 476.395 792.122 491.806 782.545 501.24C773.119 510.526 758.038 510.559 748.571 501.423L748.125 500.982Z" stroke="#EBC042" stroke-width="2"/>
<path d="M551.594 56.3649L587.455 21.0374C597.032 11.6038 612.442 11.7195 621.876 21.2958C631.31 30.8721 631.194 46.2829 621.618 55.7165L585.756 91.044C576.18 100.478 560.769 100.362 551.335 90.7857C542.049 81.3589 542.016 66.2784 551.152 56.8112L551.594 56.3649Z" stroke="#EBC042" stroke-width="2"/>
<path d="M551.242 90.6564L515.914 54.7947C506.481 45.2183 506.596 29.8075 516.173 20.3739C525.749 10.9403 541.16 11.0559 550.593 20.6322L585.921 56.494C595.355 66.0703 595.239 81.4811 585.663 90.9148C576.236 100.201 561.155 100.234 551.688 91.0983L551.242 90.6564Z" stroke="#EBC042" stroke-width="2"/>
<path d="M551.594 328.53L587.455 293.202C597.032 283.769 612.442 283.884 621.876 293.461C631.31 303.037 631.194 318.448 621.618 327.882L585.756 363.209C576.18 372.643 560.769 372.527 551.335 362.951C542.049 353.524 542.016 338.443 551.152 328.976L551.594 328.53Z" stroke="#EBC042" stroke-width="2"/>
<path d="M551.242 362.822L515.914 326.961C506.481 317.384 506.596 301.974 516.173 292.54C525.749 283.106 541.16 283.222 550.593 292.798L585.921 328.66C595.355 338.236 595.239 353.647 585.663 363.081C576.236 372.367 561.155 372.4 551.688 363.264L551.242 362.822Z" stroke="#EBC042" stroke-width="2"/>
<path d="M551.594 192.716L587.455 157.388C597.032 147.954 612.442 148.07 621.876 157.646C631.31 167.223 631.194 182.634 621.618 192.067L585.756 227.395C576.18 236.828 560.769 236.713 551.335 227.136C542.049 217.71 542.016 202.629 551.152 193.162L551.594 192.716Z" stroke="#EBC042" stroke-width="2"/>
<path d="M551.242 227.008L515.914 191.146C506.481 181.57 506.596 166.159 516.173 156.725C525.749 147.292 541.16 147.408 550.593 156.984L585.921 192.846C595.355 202.422 595.239 217.833 585.663 227.266C576.236 236.553 561.155 236.586 551.688 227.45L551.242 227.008Z" stroke="#EBC042" stroke-width="2"/>
<path d="M551.594 464.883L587.455 429.555C597.032 420.121 612.442 420.237 621.876 429.813C631.31 439.39 631.194 454.801 621.618 464.234L585.756 499.562C576.18 508.995 560.769 508.879 551.335 499.303C542.049 489.877 542.016 474.796 551.152 465.329L551.594 464.883Z" stroke="#EBC042" stroke-width="2"/>
<path d="M551.242 499.174L515.914 463.312C506.481 453.736 506.596 438.325 516.173 428.891C525.749 419.458 541.16 419.574 550.593 429.15L585.921 465.012C595.355 474.588 595.239 489.999 585.663 499.432C576.236 508.719 561.155 508.752 551.688 499.616L551.242 499.174Z" stroke="#EBC042" stroke-width="2"/>
<path d="M948.455 56.3649L984.317 21.0374C993.893 11.6038 1009.3 11.7195 1018.74 21.2958C1028.17 30.8721 1028.06 46.2829 1018.48 55.7165L982.617 91.044C973.041 100.478 957.63 100.362 948.197 90.7857C938.91 81.3589 938.877 66.2784 948.013 56.8112L948.455 56.3649Z" stroke="#EBC042" stroke-width="2"/>
<path d="M948.103 90.6564L912.776 54.7947C903.342 45.2183 903.458 29.8075 913.034 20.3739C922.61 10.9403 938.021 11.0559 947.455 20.6322L982.782 56.494C992.216 66.0703 992.1 81.4811 982.524 90.9148C973.097 100.201 958.017 100.234 948.549 91.0983L948.103 90.6564Z" stroke="#EBC042" stroke-width="2"/>
<path d="M948.455 328.53L984.317 293.202C993.893 283.769 1009.3 283.884 1018.74 293.461C1028.17 303.037 1028.06 318.448 1018.48 327.882L982.617 363.209C973.041 372.643 957.63 372.527 948.197 362.951C938.91 353.524 938.877 338.443 948.013 328.976L948.455 328.53Z" stroke="#EBC042" stroke-width="2"/>
<path d="M948.103 362.822L912.776 326.961C903.342 317.384 903.458 301.974 913.034 292.54C922.61 283.106 938.021 283.222 947.455 292.798L982.782 328.66C992.216 338.236 992.1 353.647 982.524 363.081C973.097 372.367 958.017 372.4 948.549 363.264L948.103 362.822Z" stroke="#EBC042" stroke-width="2"/>
<path d="M948.455 192.716L984.317 157.388C993.893 147.954 1009.3 148.07 1018.74 157.646C1028.17 167.223 1028.06 182.634 1018.48 192.067L982.618 227.395C973.042 236.828 957.631 236.713 948.197 227.136C938.911 217.71 938.878 202.629 948.014 193.162L948.455 192.716Z" stroke="#EBC042" stroke-width="2"/>
<path d="M948.104 227.008L912.776 191.146C903.343 181.57 903.458 166.159 913.035 156.725C922.611 147.292 938.022 147.408 947.455 156.984L982.783 192.846C992.216 202.422 992.101 217.833 982.524 227.266C973.098 236.553 958.017 236.586 948.55 227.45L948.104 227.008Z" stroke="#EBC042" stroke-width="2"/>
<path d="M948.455 464.883L984.317 429.555C993.893 420.121 1009.3 420.237 1018.74 429.813C1028.17 439.39 1028.06 454.801 1018.48 464.234L982.618 499.562C973.042 508.995 957.631 508.879 948.197 499.303C938.911 489.877 938.878 474.796 948.014 465.329L948.455 464.883Z" stroke="#EBC042" stroke-width="2"/>
<path d="M948.104 499.174L912.776 463.312C903.343 453.736 903.458 438.325 913.035 428.891C922.611 419.458 938.022 419.574 947.455 429.15L982.783 465.012C992.216 474.588 992.101 489.999 982.524 499.432C973.098 508.719 958.017 508.752 948.55 499.616L948.104 499.174Z" stroke="#EBC042" stroke-width="2"/>
</svg>
