<svg width="1562" height="1177" viewBox="0 0 1562 1177" fill="none" xmlns="http://www.w3.org/2000/svg">
<path opacity="0.6" d="M975.964 201.508L584.2 587.435C475.289 694.724 473.974 869.988 581.262 978.9C688.551 1087.81 863.816 1089.13 972.727 981.838L1364.49 595.911C1473.4 488.622 1474.72 313.357 1367.43 204.446C1260.14 95.5347 1084.87 94.2194 975.964 201.508Z" fill="#EBC042"/>
<path opacity="0.6" d="M194.264 585.728L580.19 977.491C687.479 1086.4 862.744 1087.72 971.655 980.429C1080.57 873.14 1081.88 697.875 974.593 588.964L588.666 197.201C481.378 88.2896 306.113 86.9741 197.202 194.263C88.2902 301.552 86.9748 476.816 194.264 585.728Z" fill="#EBC042"/>
</svg>
