<svg width="248" height="87" viewBox="0 0 248 87" fill="none" xmlns="http://www.w3.org/2000/svg">
<path d="M69.04 55.229C69.1458 57.9503 68.4063 60.6389 66.9194 62.9381C66.2267 64.0802 65.235 65.0194 64.0474 65.6582C62.8598 66.297 61.5197 66.612 60.1661 66.5705H59.6191C56.1344 66.5705 53.8315 65.0592 51.6839 62.0498C49.6984 65.0062 47.1457 66.513 44.0256 66.5705C40.9056 66.6279 38.4834 65.7441 36.7591 63.9191C36.7591 69.1092 35.2125 71.7408 32.1195 75.3666C29.0265 78.9924 25.2379 80.8418 20.7064 80.8418H16.1547C11.9136 80.8418 8.20824 79.1537 5.03868 75.7775C1.91325 72.4956 0.21702 68.1454 0.311351 63.6539V52.9753C0.311351 52.1579 0.642202 51.3739 1.23112 50.7958C1.82004 50.2178 2.61879 49.8931 3.45165 49.8931C3.86372 49.8931 4.27175 49.9728 4.65237 50.1278C5.03299 50.2828 5.37873 50.5099 5.66979 50.7962C5.96086 51.0825 6.19153 51.4224 6.34861 51.7963C6.50568 52.1702 6.58608 52.5709 6.58519 52.9753V64.0185C6.51439 66.6535 7.51251 69.2083 9.36015 71.1212C11.2078 73.0342 13.7537 74.1487 16.4383 74.2198H20.2944C21.6334 74.2427 22.9629 73.995 24.2002 73.4921C25.4375 72.9892 26.5562 72.2419 27.4867 71.2967C28.4556 70.3408 29.2162 69.2014 29.7224 67.948C30.2286 66.6945 30.4697 65.3531 30.4312 64.0052V46.6318C30.4382 45.9835 30.7037 45.3637 31.1708 44.9052C31.6379 44.4468 32.2694 44.1862 32.9299 44.1793C33.1584 44.1777 33.386 44.209 33.6053 44.2721L34.2806 44.4643C35.0158 44.6665 35.6628 45.1006 36.1217 45.6996C36.5806 46.2986 36.8259 47.0291 36.8198 47.7786V54.9838C36.8436 55.761 37.0468 56.5228 37.4141 57.2117C37.7814 57.9007 38.3033 58.4987 38.9404 58.9609C39.3933 59.3613 39.9086 59.688 40.4666 59.9287C41.0651 60.145 41.6998 60.2485 42.3373 60.2336C45.2412 60.2336 46.6955 58.8615 46.7 56.1173V48.2624C46.6982 47.8542 46.7783 47.4496 46.9359 47.0717C47.0934 46.6939 47.3252 46.3502 47.6181 46.0603C47.9109 45.7704 48.2591 45.5399 48.6427 45.3821C49.0263 45.2243 49.4378 45.1421 49.8538 45.1404C50.6974 45.1404 51.5064 45.4693 52.1029 46.0548C52.6995 46.6403 53.0346 47.4344 53.0346 48.2624V54.8247C53.0346 56.2167 53.7099 57.6021 55.0606 58.9808C56.0909 59.7555 57.3427 60.1936 58.6398 60.2336C61.5978 60.2336 62.5635 58.8615 62.5635 56.1173V48.3022C62.5635 47.4636 62.9029 46.6594 63.507 46.0665C64.1112 45.4735 64.9305 45.1404 65.7849 45.1404C66.6392 45.1404 67.4586 45.4735 68.0627 46.0665C68.6668 46.6594 69.0062 47.4636 69.0062 48.3022L69.04 55.229Z" fill="white"/>
<path d="M83.7884 66.1765C80.0796 66.0681 77.3308 64.9689 75.5421 62.8788C73.7533 60.7887 72.8114 57.6151 72.7163 53.3581V30.9108C72.7181 30.0547 73.0601 29.2342 73.6673 28.6288C74.2746 28.0235 75.0977 27.6826 75.9564 27.6808C76.3819 27.6808 76.8033 27.7643 77.1964 27.9267C77.5895 28.089 77.9467 28.3269 78.2475 28.6268C78.5484 28.9268 78.7871 29.2828 78.9499 29.6747C79.1128 30.0666 79.1966 30.4866 79.1966 30.9108V53.3987C79.1761 54.7318 79.489 56.049 80.1068 57.2314C80.7861 58.518 82.0767 59.2222 83.9786 59.3305H86.4648V66.1765H83.7884Z" fill="white"/>
<path fill-rule="evenodd" clip-rule="evenodd" d="M101.129 55.269C101.135 56.6031 100.905 57.9278 100.452 59.1834C99.9444 60.5416 99.1969 61.7987 98.2451 62.8956C97.4862 63.9091 96.5008 64.7331 95.3668 65.3025C94.2329 65.8719 92.9814 66.1712 91.7112 66.1767H83.7148V59.3653H89.6664C91.8737 59.3653 93.2888 58.8667 93.9185 57.8494C94.0876 57.4116 94.2211 56.961 94.318 56.5019C94.4745 55.7762 94.5405 55.0339 94.5144 54.2921V48.3902C94.5161 47.5182 94.8646 46.6823 95.4837 46.065C96.1028 45.4477 96.9421 45.0993 97.8185 45.0957C98.253 45.0957 98.6832 45.181 99.0846 45.3466C99.4859 45.5123 99.8504 45.755 100.157 46.0611C100.464 46.3671 100.707 46.7303 100.873 47.13C101.039 47.5297 101.124 47.9579 101.123 48.3902L101.129 55.269Z" fill="white"/>
<path fill-rule="evenodd" clip-rule="evenodd" d="M90.1305 75.0773C90.1393 75.7326 90.0264 76.3832 89.7985 76.9916C89.5705 77.6 89.2319 78.1543 88.8022 78.6223C87.8811 79.4163 86.7443 79.8714 85.5612 79.9197C84.9486 79.9508 84.3362 79.8521 83.7595 79.6294C83.1827 79.4068 82.6529 79.0645 82.2006 78.6223C81.4043 77.6368 80.9659 76.3788 80.9653 75.0773C80.9653 72.2414 82.4973 70.8022 85.5612 70.7596H85.7538C88.676 70.7596 90.1349 72.1989 90.1305 75.0773Z" fill="white"/>
<path fill-rule="evenodd" clip-rule="evenodd" d="M131.521 66.1761H113.612C112.735 66.1673 111.896 65.8078 111.276 65.1747C110.656 64.5417 110.304 63.6856 110.295 62.7904C110.295 61.8925 110.645 61.0313 111.267 60.3964C111.889 59.7614 112.732 59.4047 113.612 59.4047H118.872C118.556 58.2645 118.38 57.0885 118.348 55.9039V30.9107C118.349 30.4857 118.432 30.065 118.592 29.6726C118.752 29.2803 118.986 28.9239 119.281 28.624C119.576 28.3241 119.926 28.0864 120.311 27.9246C120.696 27.7627 121.109 27.6799 121.525 27.6808C121.941 27.6799 122.353 27.7628 122.737 27.9248C123.121 28.0868 123.47 28.3247 123.764 28.6248C124.058 28.9249 124.291 29.2814 124.45 29.6736C124.609 30.0659 124.69 30.4863 124.689 30.9107V54.3871C124.689 56.0664 125.047 57.2988 125.77 58.0978C126.493 58.8969 127.827 59.2964 129.79 59.3302C130.103 59.341 130.416 59.3229 130.725 59.2761C130.997 59.2219 131.302 59.1948 131.561 59.1406C131.992 59.077 132.405 58.924 132.776 58.6911C133.147 58.4582 133.467 58.1503 133.717 57.7864C133.881 57.3465 134.01 56.8935 134.101 56.4321C134.248 55.7657 134.312 55.0833 134.294 54.4007V30.8701C134.294 30.0243 134.623 29.213 135.209 28.6149C135.795 28.0168 136.589 27.6808 137.418 27.6808C137.828 27.6808 138.234 27.7633 138.613 27.9236C138.992 28.0838 139.337 28.3188 139.627 28.6149C139.917 28.9111 140.147 29.2627 140.304 29.6496C140.461 30.0366 140.542 30.4513 140.542 30.8701V55.8294C140.383 58.6328 139.759 60.8199 138.652 62.3841C137.761 63.77 136.473 64.8414 134.964 65.4516C134.678 65.5531 134.393 65.6479 134.095 65.7292C133.27 66.0336 132.398 66.185 131.521 66.1761Z" fill="white"/>
<path fill-rule="evenodd" clip-rule="evenodd" d="M214.141 10.2887C214.162 11.73 213.901 13.1612 213.376 14.4994C212.85 15.8375 212.069 17.0561 211.078 18.0848C208.957 19.83 206.339 20.8308 203.615 20.9386C202.203 21.0084 200.791 20.7921 199.461 20.3022C198.131 19.8124 196.91 19.0587 195.868 18.0848C194.043 15.9149 193.047 13.1469 193.062 10.2887C193.062 4.0527 196.593 0.885474 203.654 0.786987H204.096C210.793 0.786987 214.141 3.95422 214.141 10.2887Z" fill="white"/>
<path opacity="0.6" d="M214.544 31.6648L192.548 53.3324C186.434 59.3561 186.36 69.1963 192.383 75.311C198.407 81.4258 208.247 81.4997 214.362 75.476L236.357 53.8083C242.472 47.7846 242.546 37.9445 236.522 31.8297C230.499 25.7149 220.658 25.6411 214.544 31.6648Z" fill="white"/>
<path opacity="0.6" d="M170.659 53.2369L192.327 75.2323C198.35 81.3471 208.19 81.4209 214.305 75.3972C220.42 69.3736 220.494 59.5334 214.47 53.4186L192.802 31.4233C186.779 25.3085 176.939 25.2347 170.824 31.2583C164.709 37.282 164.635 47.1222 170.659 53.2369Z" fill="white"/>
</svg>
