<svg width="248" height="87" viewBox="0 0 248 87" fill="none" xmlns="http://www.w3.org/2000/svg">
<path d="M69.3029 55.2969C69.4087 58.0182 68.6692 60.7067 67.1824 63.0059C66.4896 64.1481 65.498 65.0873 64.3104 65.7261C63.1228 66.3648 61.7826 66.6798 60.429 66.6384H59.882C56.3973 66.6384 54.0944 65.1271 51.9469 62.1177C49.9614 65.074 47.4086 66.5809 44.2886 66.6384C41.1685 66.6958 38.7463 65.812 37.022 63.9869C37.022 69.1771 35.4755 71.8086 32.3825 75.4345C29.2894 79.0603 25.5008 80.9096 20.9693 80.9096H16.4176C12.1765 80.9096 8.47118 79.2216 5.30162 75.8454C2.17619 72.5634 0.47996 68.2133 0.57429 63.7218V53.0432C0.57429 52.2257 0.905141 51.4417 1.49406 50.8637C2.08298 50.2857 2.88173 49.9609 3.71459 49.9609C4.12666 49.9609 4.53468 50.0407 4.9153 50.1957C5.29592 50.3507 5.64166 50.5778 5.93273 50.8641C6.22379 51.1504 6.45447 51.4903 6.61155 51.8642C6.76862 52.2381 6.84902 52.6388 6.84813 53.0432V64.0864C6.77733 66.7214 7.77545 69.2762 9.62309 71.1891C11.4707 73.102 14.0167 74.2166 16.7012 74.2877H20.5574C21.8964 74.3106 23.2258 74.0628 24.4631 73.56C25.7004 73.0571 26.8191 72.3098 27.7497 71.3645C28.7185 70.4086 29.4792 69.2693 29.9854 68.0158C30.4915 66.7624 30.7327 65.4209 30.6941 64.0731V46.6997C30.7012 46.0514 30.9667 45.4316 31.4338 44.9731C31.9008 44.5146 32.5323 44.254 33.1929 44.2471C33.4214 44.2456 33.6489 44.2768 33.8682 44.3399L34.5435 44.5321C35.2787 44.7344 35.9257 45.1685 36.3846 45.7675C36.8435 46.3665 37.0889 47.097 37.0828 47.8464V55.0517C37.1065 55.8289 37.3097 56.5907 37.6771 57.2796C38.0444 57.9685 38.5662 58.5666 39.2033 59.0288C39.6563 59.4291 40.1715 59.7558 40.7296 59.9966C41.328 60.2129 41.9627 60.3163 42.6002 60.3015C45.5042 60.3015 46.9584 58.9294 46.9629 56.1851V48.3303C46.9611 47.9221 47.0413 47.5175 47.1988 47.1396C47.3564 46.7618 47.5882 46.4181 47.881 46.1282C48.1739 45.8383 48.522 45.6078 48.9056 45.45C49.2892 45.2921 49.7008 45.21 50.1167 45.2083C50.9603 45.2083 51.7694 45.5372 52.3659 46.1227C52.9624 46.7082 53.2975 47.5023 53.2975 48.3303V54.8926C53.2975 56.2846 53.9729 57.6699 55.3235 59.0487C56.3538 59.8233 57.6056 60.2615 58.9028 60.3015C61.8607 60.3015 62.8265 58.9294 62.8265 56.1851V48.3701C62.8265 47.5315 63.1659 46.7273 63.77 46.1343C64.3741 45.5414 65.1935 45.2083 66.0478 45.2083C66.9022 45.2083 67.7215 45.5414 68.3256 46.1343C68.9298 46.7273 69.2691 47.5315 69.2691 48.3701L69.3029 55.2969Z" fill="#0B3954"/>
<path d="M84.0511 66.2444C80.3423 66.136 77.5935 65.0368 75.8048 62.9466C74.016 60.8565 73.0741 57.683 72.979 53.426V30.9786C72.9808 30.1225 73.3227 29.302 73.93 28.6967C74.5373 28.0913 75.3603 27.7504 76.2191 27.7487C76.6446 27.7487 77.066 27.8322 77.4591 27.9945C77.8522 28.1568 78.2094 28.3948 78.5102 28.6947C78.8111 28.9946 79.0498 29.3507 79.2126 29.7426C79.3754 30.1345 79.4592 30.5545 79.4592 30.9786V53.4666C79.4388 54.7997 79.7517 56.1168 80.3695 57.2993C81.0488 58.5858 82.3394 59.2901 84.2413 59.3984H86.7275V66.2444H84.0511Z" fill="#0B3954"/>
<path fill-rule="evenodd" clip-rule="evenodd" d="M101.392 55.3369C101.398 56.6709 101.168 57.9957 100.715 59.2512C100.207 60.6095 99.4599 61.8666 98.508 62.9635C97.7491 63.9769 96.7637 64.8009 95.6298 65.3704C94.4958 65.9398 93.2443 66.2391 91.9742 66.2446H83.9778V59.4332H89.9294C92.1367 59.4332 93.5518 58.9346 94.1815 57.9173C94.3505 57.4794 94.4841 57.0288 94.5809 56.5698C94.7374 55.844 94.8034 55.1018 94.7773 54.36V48.4581C94.7791 47.5861 95.1275 46.7501 95.7466 46.1329C96.3657 45.5156 97.2051 45.1671 98.0815 45.1636C98.516 45.1636 98.9462 45.2488 99.3475 45.4145C99.7488 45.5801 100.113 45.8229 100.42 46.1289C100.727 46.4349 100.97 46.7982 101.136 47.1979C101.302 47.5975 101.387 48.0258 101.386 48.4581L101.392 55.3369Z" fill="#0B3954"/>
<path fill-rule="evenodd" clip-rule="evenodd" d="M90.3934 75.1452C90.4022 75.8004 90.2894 76.451 90.0614 77.0595C89.8334 77.6679 89.4948 78.2221 89.0651 78.6901C88.144 79.4842 87.0072 79.9393 85.8241 79.9876C85.2115 80.0186 84.5992 79.92 84.0224 79.6973C83.4457 79.4746 82.9159 79.1323 82.4636 78.6901C81.6672 77.7047 81.2288 76.4467 81.2283 75.1452C81.2283 72.3093 82.7602 70.8701 85.8241 70.8275H86.0167C88.939 70.8275 90.3979 72.2667 90.3934 75.1452Z" fill="#0B3954"/>
<path fill-rule="evenodd" clip-rule="evenodd" d="M131.784 66.244H113.875C112.998 66.2352 112.159 65.8756 111.539 65.2426C110.919 64.6095 110.567 63.7535 110.558 62.8583C110.558 61.9604 110.908 61.0992 111.529 60.4642C112.151 59.8293 112.995 59.4726 113.875 59.4726H119.135C118.818 58.3324 118.642 57.1564 118.611 55.9718V30.9786C118.611 30.5536 118.694 30.1328 118.854 29.7405C119.015 29.3481 119.249 28.9918 119.544 28.6919C119.839 28.392 120.189 28.1543 120.574 27.9925C120.959 27.8306 121.371 27.7478 121.788 27.7487C122.204 27.7478 122.615 27.8307 123 27.9927C123.384 28.1547 123.733 28.3926 124.027 28.6927C124.321 28.9928 124.554 29.3492 124.713 29.7415C124.871 30.1338 124.953 30.5542 124.952 30.9786V54.455C124.952 56.1343 125.31 57.3667 126.033 58.1657C126.756 58.9647 128.089 59.3643 130.053 59.3981C130.365 59.4089 130.678 59.3908 130.988 59.3439C131.26 59.2898 131.565 59.2627 131.824 59.2085C132.254 59.1449 132.668 58.9919 133.039 58.759C133.409 58.5261 133.73 58.2182 133.979 57.8542C134.144 57.4143 134.272 56.9614 134.364 56.5C134.51 55.8336 134.575 55.1512 134.556 54.4685V30.938C134.556 30.0921 134.886 29.2809 135.471 28.6828C136.057 28.0847 136.852 27.7487 137.681 27.7487C138.091 27.7487 138.497 27.8312 138.876 27.9914C139.255 28.1517 139.6 28.3866 139.89 28.6828C140.18 28.979 140.41 29.3305 140.567 29.7175C140.724 30.1044 140.805 30.5192 140.805 30.938V55.8973C140.646 58.7007 140.022 60.8878 138.914 62.452C138.024 63.8379 136.736 64.9092 135.226 65.5194C134.941 65.621 134.656 65.7158 134.357 65.7971C133.533 66.1015 132.661 66.2528 131.784 66.244Z" fill="#0B3954"/>
<path fill-rule="evenodd" clip-rule="evenodd" d="M214.404 10.3565C214.425 11.7979 214.164 13.2291 213.639 14.5672C213.113 15.9054 212.332 17.124 211.341 18.1526C209.219 19.8978 206.602 20.8987 203.878 21.0065C202.465 21.0762 201.054 20.8599 199.724 20.3701C198.394 19.8802 197.173 19.1266 196.131 18.1526C194.306 15.9827 193.309 13.2148 193.325 10.3565C193.325 4.12057 196.855 0.953345 203.917 0.854858H204.359C211.056 0.854858 214.404 4.02209 214.404 10.3565Z" fill="#087E8B"/>
<path opacity="0.6" d="M214.807 31.7326L192.812 53.4003C186.697 59.424 186.623 69.2641 192.647 75.3789C198.67 81.4937 208.51 81.5675 214.625 75.5439L236.621 53.8762C242.735 47.8525 242.809 38.0124 236.785 31.8976C230.762 25.7828 220.922 25.709 214.807 31.7326Z" fill="#EBC042"/>
<path opacity="0.6" d="M170.922 53.3048L192.59 75.3002C198.613 81.4149 208.453 81.4888 214.568 75.4651C220.683 69.4414 220.757 59.6013 214.733 53.4865L193.065 31.4911C187.042 25.3764 177.202 25.3025 171.087 31.3262C164.972 37.3499 164.898 47.19 170.922 53.3048Z" fill="#EBC042"/>
</svg>
