<svg width="186" height="199" viewBox="0 0 186 199" fill="none" xmlns="http://www.w3.org/2000/svg">
<path d="M90.7861 164.717C90.9258 168.311 89.949 171.862 87.9851 174.899C87.0701 176.408 85.7602 177.648 84.1916 178.492C82.623 179.336 80.8527 179.752 79.0649 179.697H78.3423C73.7395 179.697 70.6977 177.701 67.8611 173.726C65.2385 177.631 61.8667 179.621 57.7455 179.697C53.6244 179.773 50.425 178.606 48.1474 176.195C48.1474 183.051 46.1046 186.526 42.0192 191.316C37.9337 196.105 32.9295 198.548 26.944 198.548H20.9318C15.3299 198.548 10.4356 196.318 6.24909 191.858C2.12083 187.523 -0.119666 181.777 0.00493183 175.845V161.74C0.00493183 160.66 0.44194 159.625 1.21982 158.861C1.99771 158.098 3.05274 157.669 4.15284 157.669C4.69713 157.669 5.23607 157.774 5.73882 157.979C6.24157 158.183 6.69824 158.483 7.0827 158.862C7.46716 159.24 7.77184 159.689 7.97932 160.182C8.1868 160.676 8.29299 161.206 8.29182 161.74V176.326C8.1983 179.807 9.51669 183.181 11.9572 185.708C14.3976 188.235 17.7605 189.707 21.3064 189.801H26.3999C28.1685 189.831 29.9245 189.504 31.5588 188.84C33.1931 188.175 34.6708 187.188 35.8999 185.94C37.1796 184.677 38.1843 183.172 38.8529 181.517C39.5215 179.861 39.8401 178.089 39.7891 176.309V153.361C39.7984 152.505 40.1491 151.686 40.7661 151.08C41.383 150.475 42.2171 150.131 43.0896 150.121C43.3914 150.119 43.692 150.161 43.9816 150.244L44.8737 150.498C45.8448 150.765 46.6993 151.338 47.3055 152.13C47.9117 152.921 48.2357 153.886 48.2277 154.876V164.393C48.259 165.419 48.5274 166.426 49.0126 167.336C49.4978 168.246 50.1871 169.036 51.0286 169.646C51.6269 170.175 52.3075 170.606 53.0446 170.924C53.835 171.21 54.6734 171.347 55.5155 171.327C59.3512 171.327 61.272 169.515 61.278 165.89V155.515C61.2756 154.975 61.3815 154.441 61.5896 153.942C61.7976 153.443 62.1038 152.989 62.4907 152.606C62.8775 152.223 63.3374 151.919 63.8441 151.71C64.3507 151.502 64.8943 151.393 65.4437 151.391C66.558 151.391 67.6266 151.825 68.4146 152.599C69.2025 153.372 69.6451 154.421 69.6451 155.515V164.183C69.6451 166.021 70.5371 167.851 72.3212 169.672C73.6821 170.695 75.3355 171.274 77.0489 171.327C80.956 171.327 82.2316 169.515 82.2316 165.89V155.567C82.2316 154.46 82.6799 153.397 83.4778 152.614C84.2758 151.831 85.358 151.391 86.4865 151.391C87.615 151.391 88.6973 151.831 89.4952 152.614C90.2932 153.397 90.7415 154.46 90.7415 155.567L90.7861 164.717Z" fill="#0B3954"/>
<path d="M110.267 179.177C105.368 179.034 101.737 177.582 99.3743 174.821C97.0116 172.06 95.7675 167.868 95.6418 162.246V132.596C95.6442 131.465 96.0959 130.381 96.898 129.582C97.7001 128.782 98.7873 128.332 99.9216 128.329C100.484 128.329 101.04 128.44 101.559 128.654C102.079 128.869 102.55 129.183 102.948 129.579C103.345 129.975 103.661 130.445 103.876 130.963C104.091 131.481 104.201 132.035 104.201 132.596V162.299C104.174 164.06 104.588 165.8 105.404 167.362C106.301 169.061 108.006 169.991 110.518 170.134H113.802V179.177H110.267Z" fill="#0B3954"/>
<path fill-rule="evenodd" clip-rule="evenodd" d="M133.172 164.769C133.179 166.531 132.876 168.281 132.278 169.94C131.607 171.734 130.619 173.394 129.362 174.843C128.36 176.182 127.058 177.27 125.56 178.022C124.063 178.774 122.41 179.17 120.732 179.177H110.17V170.18H118.031C120.946 170.18 122.816 169.521 123.647 168.178C123.871 167.599 124.047 167.004 124.175 166.398C124.382 165.439 124.469 164.459 124.434 163.479V155.683C124.437 154.532 124.897 153.427 125.715 152.612C126.532 151.797 127.641 151.336 128.799 151.332C129.373 151.332 129.941 151.444 130.471 151.663C131.001 151.882 131.483 152.203 131.888 152.607C132.293 153.011 132.615 153.491 132.833 154.019C133.052 154.547 133.164 155.112 133.163 155.683L133.172 164.769Z" fill="#0B3954"/>
<path fill-rule="evenodd" clip-rule="evenodd" d="M118.644 190.934C118.655 191.799 118.506 192.658 118.205 193.462C117.904 194.266 117.457 194.998 116.889 195.616C115.673 196.665 114.171 197.266 112.608 197.33C111.799 197.371 110.99 197.24 110.229 196.946C109.467 196.652 108.767 196.2 108.17 195.616C107.118 194.314 106.539 192.653 106.538 190.934C106.538 187.188 108.561 185.287 112.608 185.23H112.863C116.723 185.23 118.65 187.131 118.644 190.934Z" fill="#0B3954"/>
<path fill-rule="evenodd" clip-rule="evenodd" d="M173.315 179.176H149.659C148.501 179.165 147.393 178.69 146.574 177.854C145.755 177.018 145.29 175.887 145.279 174.704C145.279 173.518 145.74 172.381 146.562 171.542C147.383 170.703 148.498 170.232 149.659 170.232H156.607C156.189 168.726 155.957 167.173 155.915 165.608V132.596C155.916 132.034 156.026 131.479 156.237 130.96C156.449 130.442 156.758 129.971 157.148 129.575C157.537 129.179 158 128.865 158.508 128.651C159.017 128.438 159.562 128.328 160.112 128.329C160.661 128.328 161.205 128.438 161.712 128.652C162.22 128.866 162.681 129.18 163.069 129.576C163.458 129.973 163.765 130.443 163.975 130.962C164.185 131.48 164.292 132.035 164.291 132.596V163.605C164.291 165.823 164.764 167.451 165.719 168.506C166.674 169.562 168.435 170.089 171.028 170.134C171.441 170.148 171.855 170.124 172.264 170.062C172.623 169.991 173.026 169.955 173.368 169.884C173.937 169.799 174.483 169.597 174.972 169.29C175.462 168.982 175.885 168.575 176.215 168.095C176.432 167.514 176.602 166.915 176.723 166.306C176.916 165.426 177.002 164.524 176.977 163.623V132.542C176.977 131.425 177.412 130.353 178.186 129.563C178.96 128.773 180.009 128.329 181.104 128.329C181.646 128.329 182.182 128.438 182.683 128.65C183.184 128.862 183.639 129.172 184.022 129.563C184.405 129.954 184.709 130.419 184.916 130.93C185.124 131.441 185.23 131.989 185.23 132.542V165.51C185.02 169.213 184.197 172.102 182.733 174.168C181.557 175.998 179.856 177.413 177.862 178.219C177.485 178.354 177.109 178.479 176.714 178.586C175.625 178.988 174.473 179.188 173.315 179.176Z" fill="#0B3954"/>
<path fill-rule="evenodd" clip-rule="evenodd" d="M106.519 12.5504C106.545 14.4543 106.202 16.3446 105.507 18.1122C104.813 19.8797 103.781 21.4893 102.473 22.848C99.6702 25.1532 96.2128 26.4752 92.6144 26.6176C90.7491 26.7097 88.8843 26.424 87.128 25.7769C85.3716 25.1299 83.7585 24.1344 82.3819 22.848C79.9713 19.9818 78.6552 16.3257 78.6753 12.5504C78.6753 4.31356 83.339 0.130087 92.6666 0H93.2496C102.096 0 106.519 4.18348 106.519 12.5504Z" fill="#145A62"/>
<path opacity="0.6" d="M107.05 40.7855L77.9976 69.4056C69.9208 77.362 69.8233 90.3595 77.7797 98.4363C85.7362 106.513 98.7337 106.611 106.81 98.6542L135.863 70.0342C143.94 62.0777 144.038 49.0802 136.081 41.0034C128.125 32.9266 115.127 32.8291 107.05 40.7855Z" fill="#EBC042"/>
<path opacity="0.6" d="M49.0841 69.2794L77.7042 98.3322C85.6606 106.409 98.6581 106.507 106.735 98.5501C114.812 90.5937 114.909 77.5962 106.953 69.5194L78.3328 40.4665C70.3763 32.3897 57.3788 32.2922 49.302 40.2486C41.2252 48.2051 41.1277 61.2026 49.0841 69.2794Z" fill="#EBC042"/>
</svg>
