<svg width="1562" height="1177" viewBox="0 0 1562 1177" fill="none" xmlns="http://www.w3.org/2000/svg">
<path opacity="0.6" d="M975.963 201.51L584.2 587.437C475.289 694.725 473.973 869.99 581.262 978.902C688.551 1087.81 863.815 1089.13 972.727 981.839L1364.49 595.913C1473.4 488.624 1474.72 313.359 1367.43 204.448C1260.14 95.5367 1084.87 94.2214 975.963 201.51Z" fill="#087E8B"/>
<path opacity="0.6" d="M194.264 585.729L580.19 977.492C687.479 1086.4 862.744 1087.72 971.655 980.43C1080.57 873.141 1081.88 697.876 974.593 588.965L588.666 197.202C481.378 88.2906 306.113 86.9751 197.202 194.264C88.2902 301.553 86.9748 476.817 194.264 585.729Z" fill="#087E8B"/>
</svg>
