<svg width="2028" height="563" viewBox="0 0 2028 563" fill="none" xmlns="http://www.w3.org/2000/svg">
<path d="M1079.93 96.2394L1044.47 131.975C1035.01 141.518 1019.59 141.579 1010.05 132.111C1000.51 122.644 1000.45 107.233 1009.92 97.6899L1045.37 61.9539C1054.84 52.4112 1070.25 52.3504 1079.79 61.8179C1089.33 71.2855 1089.4 86.6967 1079.93 96.2394Z" stroke="#087E8B" stroke-width="2"/>
<path d="M1079.89 61.9456L1115.62 97.4004C1125.17 106.868 1125.23 122.279 1115.76 131.822C1106.29 141.364 1090.88 141.425 1081.34 131.958L1045.6 96.5031C1036.06 87.0355 1036 71.6243 1045.47 62.0816C1054.93 52.5389 1070.34 52.478 1079.89 61.9456Z" stroke="#087E8B" stroke-width="2"/>
<path d="M1079.93 368.403L1044.47 404.139C1035.01 413.682 1019.59 413.743 1010.05 404.275C1000.51 394.808 1000.45 379.397 1009.92 369.854L1045.37 334.118C1054.84 324.575 1070.25 324.514 1079.79 333.982C1089.33 343.45 1089.4 358.861 1079.93 368.403Z" stroke="#087E8B" stroke-width="2"/>
<path d="M1079.89 334.111L1115.62 369.565C1125.17 379.033 1125.23 394.444 1115.76 403.987C1106.29 413.529 1090.88 413.59 1081.34 404.123L1045.6 368.668C1036.06 359.201 1036 343.789 1045.47 334.247C1054.93 324.704 1070.34 324.643 1079.89 334.111Z" stroke="#087E8B" stroke-width="2"/>
<path d="M1079.93 232.591L1044.47 268.327C1035.01 277.87 1019.59 277.931 1010.05 268.463C1000.51 258.995 1000.45 243.584 1009.92 234.041L1045.37 198.305C1054.84 188.763 1070.25 188.702 1079.79 198.169C1089.33 207.637 1089.4 223.048 1079.93 232.591Z" stroke="#087E8B" stroke-width="2"/>
<path d="M1079.89 198.296L1115.62 233.751C1125.17 243.219 1125.23 258.63 1115.76 268.172C1106.29 277.715 1090.88 277.776 1081.34 268.308L1045.6 232.854C1036.06 223.386 1036 207.975 1045.47 198.432C1054.93 188.889 1070.34 188.829 1079.89 198.296Z" stroke="#087E8B" stroke-width="2"/>
<path d="M1079.93 504.757L1044.47 540.493C1035.01 550.036 1019.59 550.097 1010.05 540.629C1000.51 531.161 1000.45 515.75 1009.92 506.207L1045.37 470.471C1054.84 460.929 1070.25 460.868 1079.79 470.335C1089.33 479.803 1089.4 495.214 1079.93 504.757Z" stroke="#087E8B" stroke-width="2"/>
<path d="M1079.89 470.461L1115.62 505.916C1125.17 515.384 1125.23 530.795 1115.76 540.337C1106.29 549.88 1090.88 549.941 1081.34 540.473L1045.6 505.019C1036.06 495.551 1036 480.14 1045.47 470.597C1054.93 461.055 1070.34 460.994 1079.89 470.461Z" stroke="#087E8B" stroke-width="2"/>
<path d="M1276.55 96.8859L1241.1 132.622C1231.63 142.165 1216.22 142.225 1206.68 132.758C1197.13 123.29 1197.07 107.879 1206.54 98.3363L1241.99 62.6004C1251.46 53.0577 1266.87 52.9969 1276.42 62.4644C1285.96 71.932 1286.02 87.3432 1276.55 96.8859Z" stroke="#087E8B" stroke-width="2"/>
<path d="M1276.51 62.5921L1312.25 98.0469C1321.79 107.514 1321.85 122.926 1312.38 132.468C1302.92 142.011 1287.5 142.072 1277.96 132.604L1242.23 97.1495C1232.68 87.682 1232.62 72.2708 1242.09 62.7281C1251.56 53.1854 1266.97 53.1245 1276.51 62.5921Z" stroke="#087E8B" stroke-width="2"/>
<path d="M1276.55 369.049L1241.1 404.785C1231.63 414.328 1216.22 414.389 1206.68 404.921C1197.13 395.453 1197.07 380.042 1206.54 370.499L1241.99 334.763C1251.46 325.221 1266.87 325.16 1276.42 334.627C1285.96 344.095 1286.02 359.506 1276.55 369.049Z" stroke="#087E8B" stroke-width="2"/>
<path d="M1276.51 334.756L1312.25 370.211C1321.79 379.679 1321.85 395.09 1312.38 404.632C1302.92 414.175 1287.5 414.236 1277.96 404.768L1242.23 369.314C1232.68 359.846 1232.62 344.435 1242.09 334.892C1251.56 325.349 1266.97 325.289 1276.51 334.756Z" stroke="#087E8B" stroke-width="2"/>
<path d="M1276.55 233.235L1241.1 268.971C1231.63 278.514 1216.22 278.575 1206.68 269.107C1197.13 259.64 1197.07 244.229 1206.54 234.686L1241.99 198.95C1251.46 189.407 1266.87 189.347 1276.42 198.814C1285.96 208.282 1286.02 223.693 1276.55 233.235Z" stroke="#087E8B" stroke-width="2"/>
<path d="M1276.51 198.941L1312.25 234.395C1321.79 243.863 1321.85 259.274 1312.38 268.817C1302.92 278.36 1287.5 278.421 1277.96 268.953L1242.23 233.498C1232.68 224.031 1232.62 208.619 1242.09 199.077C1251.56 189.534 1266.97 189.473 1276.51 198.941Z" stroke="#087E8B" stroke-width="2"/>
<path d="M1276.55 505.402L1241.1 541.138C1231.63 550.681 1216.22 550.742 1206.68 541.274C1197.13 531.807 1197.07 516.396 1206.54 506.853L1241.99 471.117C1251.46 461.574 1266.87 461.513 1276.42 470.981C1285.96 480.449 1286.02 495.86 1276.55 505.402Z" stroke="#087E8B" stroke-width="2"/>
<path d="M1276.51 471.107L1312.25 506.562C1321.79 516.029 1321.85 531.44 1312.38 540.983C1302.92 550.526 1287.5 550.587 1277.96 541.119L1242.23 505.664C1232.68 496.197 1232.62 480.785 1242.09 471.243C1251.56 461.7 1266.97 461.639 1276.51 471.107Z" stroke="#087E8B" stroke-width="2"/>
<path d="M1673.41 96.8859L1637.96 132.622C1628.49 142.165 1613.08 142.225 1603.54 132.758C1593.99 123.29 1593.93 107.879 1603.4 98.3363L1638.86 62.6004C1648.32 53.0577 1663.74 52.9969 1673.28 62.4644C1682.82 71.932 1682.88 87.3432 1673.41 96.8859Z" stroke="#087E8B" stroke-width="2"/>
<path d="M1673.37 62.5921L1709.11 98.0469C1718.65 107.514 1718.71 122.926 1709.24 132.468C1699.78 142.011 1684.37 142.072 1674.82 132.604L1639.09 97.1495C1629.54 87.682 1629.48 72.2708 1638.95 62.7281C1648.42 53.1854 1663.83 53.1245 1673.37 62.5921Z" stroke="#087E8B" stroke-width="2"/>
<path d="M1673.41 369.049L1637.96 404.785C1628.49 414.328 1613.08 414.389 1603.54 404.921C1593.99 395.453 1593.93 380.042 1603.4 370.499L1638.86 334.763C1648.32 325.221 1663.73 325.16 1673.28 334.627C1682.82 344.095 1682.88 359.506 1673.41 369.049Z" stroke="#087E8B" stroke-width="2"/>
<path d="M1673.37 334.756L1709.11 370.211C1718.65 379.679 1718.71 395.09 1709.24 404.632C1699.78 414.175 1684.37 414.236 1674.82 404.768L1639.09 369.314C1629.54 359.846 1629.48 344.435 1638.95 334.892C1648.42 325.349 1663.83 325.289 1673.37 334.756Z" stroke="#087E8B" stroke-width="2"/>
<path d="M1673.41 233.235L1637.96 268.971C1628.49 278.514 1613.08 278.575 1603.54 269.107C1593.99 259.64 1593.93 244.229 1603.4 234.686L1638.86 198.95C1648.32 189.407 1663.73 189.347 1673.28 198.814C1682.82 208.282 1682.88 223.693 1673.41 233.235Z" stroke="#087E8B" stroke-width="2"/>
<path d="M1673.37 198.941L1709.11 234.395C1718.65 243.863 1718.71 259.274 1709.24 268.817C1699.78 278.36 1684.37 278.421 1674.82 268.953L1639.09 233.498C1629.54 224.031 1629.48 208.619 1638.95 199.077C1648.42 189.534 1663.83 189.473 1673.37 198.941Z" stroke="#087E8B" stroke-width="2"/>
<path d="M1673.41 505.402L1637.96 541.138C1628.49 550.681 1613.08 550.742 1603.54 541.274C1593.99 531.807 1593.93 516.396 1603.4 506.853L1638.86 471.117C1648.32 461.574 1663.73 461.513 1673.28 470.981C1682.82 480.449 1682.88 495.86 1673.41 505.402Z" stroke="#087E8B" stroke-width="2"/>
<path d="M1673.37 471.107L1709.11 506.562C1718.65 516.029 1718.71 531.44 1709.24 540.983C1699.78 550.526 1684.37 550.587 1674.82 541.119L1639.09 505.664C1629.54 496.197 1629.48 480.785 1638.95 471.243C1648.42 461.7 1663.83 461.639 1673.37 471.107Z" stroke="#087E8B" stroke-width="2"/>
<path d="M1476.53 95.0773L1441.08 130.813C1431.61 140.356 1416.2 140.417 1406.65 130.949C1397.11 121.482 1397.05 106.07 1406.52 96.5277L1441.97 60.7918C1451.44 51.2491 1466.85 51.1883 1476.39 60.6558C1485.94 70.1234 1486 85.5346 1476.53 95.0773Z" stroke="#087E8B" stroke-width="2"/>
<path d="M1476.49 60.7845L1512.23 96.2392C1521.77 105.707 1521.83 121.118 1512.36 130.661C1502.89 140.203 1487.48 140.264 1477.94 130.797L1442.2 95.3419C1432.66 85.8743 1432.6 70.4632 1442.07 60.9205C1451.54 51.3777 1466.95 51.3169 1476.49 60.7845Z" stroke="#087E8B" stroke-width="2"/>
<path d="M1476.53 367.243L1441.08 402.979C1431.61 412.522 1416.2 412.583 1406.65 403.115C1397.11 393.648 1397.05 378.236 1406.52 368.694L1441.97 332.958C1451.44 323.415 1466.85 323.354 1476.39 332.822C1485.94 342.289 1486 357.701 1476.53 367.243Z" stroke="#087E8B" stroke-width="2"/>
<path d="M1476.49 332.95L1512.23 368.404C1521.77 377.872 1521.83 393.283 1512.36 402.826C1502.89 412.368 1487.48 412.429 1477.94 402.962L1442.2 367.507C1432.66 358.039 1432.6 342.628 1442.07 333.085C1451.54 323.543 1466.95 323.482 1476.49 332.95Z" stroke="#087E8B" stroke-width="2"/>
<path d="M1476.53 231.429L1441.08 267.165C1431.61 276.708 1416.2 276.768 1406.65 267.301C1397.11 257.833 1397.05 242.422 1406.52 232.879L1441.97 197.143C1451.44 187.601 1466.85 187.54 1476.39 197.007C1485.94 206.475 1486 221.886 1476.53 231.429Z" stroke="#087E8B" stroke-width="2"/>
<path d="M1476.49 197.134L1512.23 232.589C1521.77 242.056 1521.83 257.468 1512.36 267.01C1502.89 276.553 1487.48 276.614 1477.94 267.146L1442.2 231.692C1432.66 222.224 1432.6 206.813 1442.07 197.27C1451.54 187.727 1466.95 187.666 1476.49 197.134Z" stroke="#087E8B" stroke-width="2"/>
<path d="M1476.53 503.595L1441.08 539.331C1431.61 548.874 1416.2 548.934 1406.65 539.467C1397.11 529.999 1397.05 514.588 1406.52 505.045L1441.97 469.309C1451.44 459.767 1466.85 459.706 1476.39 469.173C1485.94 478.641 1486 494.052 1476.53 503.595Z" stroke="#087E8B" stroke-width="2"/>
<path d="M1476.49 469.3L1512.22 504.755C1521.77 514.222 1521.83 529.634 1512.36 539.176C1502.89 548.719 1487.48 548.78 1477.94 539.312L1442.2 503.858C1432.66 494.39 1432.6 478.979 1442.07 469.436C1451.54 459.893 1466.95 459.832 1476.49 469.3Z" stroke="#087E8B" stroke-width="2"/>
<path d="M1873.39 95.0773L1837.94 130.813C1828.47 140.356 1813.06 140.417 1803.52 130.949C1793.97 121.482 1793.91 106.07 1803.38 96.5277L1838.83 60.7918C1848.3 51.2491 1863.71 51.1883 1873.26 60.6558C1882.8 70.1234 1882.86 85.5346 1873.39 95.0773Z" stroke="#087E8B" stroke-width="2"/>
<path d="M1873.35 60.7845L1909.09 96.2392C1918.63 105.707 1918.69 121.118 1909.22 130.661C1899.76 140.203 1884.34 140.264 1874.8 130.797L1839.07 95.3419C1829.52 85.8743 1829.46 70.4632 1838.93 60.9205C1848.4 51.3777 1863.81 51.3169 1873.35 60.7845Z" stroke="#087E8B" stroke-width="2"/>
<path d="M1873.39 367.243L1837.94 402.979C1828.47 412.522 1813.06 412.583 1803.52 403.115C1793.97 393.648 1793.91 378.236 1803.38 368.694L1838.83 332.958C1848.3 323.415 1863.71 323.354 1873.26 332.822C1882.8 342.289 1882.86 357.701 1873.39 367.243Z" stroke="#087E8B" stroke-width="2"/>
<path d="M1873.35 332.951L1909.09 368.405C1918.63 377.873 1918.69 393.284 1909.22 402.827C1899.76 412.369 1884.34 412.43 1874.8 402.963L1839.07 367.508C1829.52 358.04 1829.46 342.629 1838.93 333.086C1848.4 323.544 1863.81 323.483 1873.35 332.951Z" stroke="#087E8B" stroke-width="2"/>
<path d="M1873.39 231.429L1837.94 267.165C1828.47 276.708 1813.06 276.768 1803.52 267.301C1793.97 257.833 1793.91 242.422 1803.38 232.879L1838.83 197.143C1848.3 187.601 1863.71 187.54 1873.26 197.007C1882.8 206.475 1882.86 221.886 1873.39 231.429Z" stroke="#087E8B" stroke-width="2"/>
<path d="M1873.35 197.136L1909.09 232.591C1918.63 242.058 1918.69 257.47 1909.22 267.012C1899.76 276.555 1884.34 276.616 1874.8 267.148L1839.07 231.693C1829.52 222.226 1829.46 206.815 1838.93 197.272C1848.4 187.729 1863.81 187.668 1873.35 197.136Z" stroke="#087E8B" stroke-width="2"/>
<path d="M1873.39 503.595L1837.94 539.331C1828.47 548.874 1813.06 548.934 1803.52 539.467C1793.97 529.999 1793.91 514.588 1803.38 505.045L1838.83 469.309C1848.3 459.767 1863.71 459.706 1873.26 469.173C1882.8 478.641 1882.86 494.052 1873.39 503.595Z" stroke="#087E8B" stroke-width="2"/>
<path d="M1873.35 469.3L1909.09 504.755C1918.63 514.222 1918.69 529.634 1909.22 539.176C1899.76 548.719 1884.34 548.78 1874.8 539.312L1839.07 503.858C1829.52 494.39 1829.46 478.979 1838.93 469.436C1848.4 459.893 1863.81 459.832 1873.35 469.3Z" stroke="#087E8B" stroke-width="2"/>
<path d="M1145.23 55.6481L1181.09 20.3206C1190.66 10.887 1206.08 11.0027 1215.51 20.579C1224.94 30.1553 1224.83 45.5661 1215.25 54.9997L1179.39 90.3272C1169.81 99.7608 1154.4 99.6451 1144.97 90.0689C1135.68 80.6421 1135.65 65.5616 1144.78 56.0944L1145.23 55.6481Z" stroke="#087E8B" stroke-width="2"/>
<path d="M1144.87 89.9406L1109.55 54.0788C1100.11 44.5025 1100.23 29.0917 1109.81 19.6581C1119.38 10.2245 1134.79 10.3401 1144.23 19.9164L1179.55 55.7782C1188.99 65.3545 1188.87 80.7653 1179.3 90.1989C1169.87 99.4853 1154.79 99.5184 1145.32 90.3825L1144.87 89.9406Z" stroke="#087E8B" stroke-width="2"/>
<path d="M1145.23 327.814L1181.09 292.487C1190.66 283.053 1206.08 283.169 1215.51 292.745C1224.94 302.321 1224.83 317.732 1215.25 327.166L1179.39 362.493C1169.81 371.927 1154.4 371.811 1144.97 362.235C1135.68 352.808 1135.65 337.728 1144.78 328.26L1145.23 327.814Z" stroke="#087E8B" stroke-width="2"/>
<path d="M1144.87 362.107L1109.55 326.245C1100.11 316.669 1100.23 301.258 1109.81 291.824C1119.38 282.391 1134.79 282.506 1144.23 292.082L1179.55 327.944C1188.99 337.52 1188.87 352.931 1179.3 362.365C1169.87 371.651 1154.79 371.684 1145.32 362.548L1144.87 362.107Z" stroke="#087E8B" stroke-width="2"/>
<path d="M1145.23 192L1181.09 156.672C1190.66 147.239 1206.08 147.354 1215.51 156.931C1224.94 166.507 1224.83 181.918 1215.25 191.351L1179.39 226.679C1169.81 236.112 1154.4 235.997 1144.97 226.42C1135.68 216.994 1135.65 201.913 1144.78 192.446L1145.23 192Z" stroke="#087E8B" stroke-width="2"/>
<path d="M1144.87 226.292L1109.55 190.43C1100.11 180.854 1100.23 165.443 1109.81 156.01C1119.38 146.576 1134.79 146.692 1144.23 156.268L1179.55 192.13C1188.99 201.706 1188.87 217.117 1179.3 226.551C1169.87 235.837 1154.79 235.87 1145.32 226.734L1144.87 226.292Z" stroke="#087E8B" stroke-width="2"/>
<path d="M1145.23 464.167L1181.09 428.839C1190.66 419.406 1206.08 419.521 1215.51 429.098C1224.94 438.674 1224.83 454.085 1215.25 463.518L1179.39 498.846C1169.81 508.279 1154.4 508.164 1144.97 498.587C1135.68 489.161 1135.65 474.08 1144.78 464.613L1145.23 464.167Z" stroke="#087E8B" stroke-width="2"/>
<path d="M1144.87 498.458L1109.55 462.596C1100.11 453.02 1100.23 437.609 1109.81 428.176C1119.38 418.742 1134.79 418.858 1144.23 428.434L1179.55 464.296C1188.99 473.872 1188.87 489.283 1179.3 498.717C1169.87 508.003 1154.79 508.036 1145.32 498.9L1144.87 498.458Z" stroke="#087E8B" stroke-width="2"/>
<path d="M1341.85 56.2917L1377.71 20.9642C1387.29 11.5306 1402.7 11.6462 1412.13 21.2225C1421.57 30.7988 1421.45 46.2097 1411.88 55.6433L1376.01 90.9708C1366.44 100.404 1351.03 100.289 1341.59 90.7125C1332.31 81.2857 1332.27 66.2052 1341.41 56.7379L1341.85 56.2917Z" stroke="#087E8B" stroke-width="2"/>
<path d="M1341.5 90.5842L1306.17 54.7224C1296.74 45.1461 1296.85 29.7353 1306.43 20.3016C1316.01 10.8681 1331.42 10.9837 1340.85 20.5599L1376.18 56.4217C1385.61 65.998 1385.5 81.4088 1375.92 90.8425C1366.49 100.129 1351.41 100.162 1341.95 91.026L1341.5 90.5842Z" stroke="#087E8B" stroke-width="2"/>
<path d="M1341.85 328.458L1377.71 293.13C1387.29 283.697 1402.7 283.812 1412.13 293.389C1421.57 302.965 1421.45 318.376 1411.88 327.809L1376.01 363.137C1366.44 372.57 1351.03 372.455 1341.59 362.878C1332.31 353.452 1332.27 338.371 1341.41 328.904L1341.85 328.458Z" stroke="#087E8B" stroke-width="2"/>
<path d="M1341.5 362.75L1306.17 326.888C1296.74 317.312 1296.85 301.901 1306.43 292.468C1316.01 283.034 1331.42 283.15 1340.85 292.726L1376.18 328.588C1385.61 338.164 1385.5 353.575 1375.92 363.009C1366.49 372.295 1351.41 372.328 1341.95 363.192L1341.5 362.75Z" stroke="#087E8B" stroke-width="2"/>
<path d="M1341.85 192.644L1377.71 157.317C1387.29 147.883 1402.7 147.999 1412.13 157.575C1421.57 167.151 1421.45 182.562 1411.88 191.996L1376.01 227.323C1366.44 236.757 1351.03 236.641 1341.59 227.065C1332.31 217.638 1332.27 202.558 1341.41 193.09L1341.85 192.644Z" stroke="#087E8B" stroke-width="2"/>
<path d="M1341.5 226.937L1306.17 191.075C1296.74 181.499 1296.85 166.088 1306.43 156.654C1316.01 147.221 1331.42 147.336 1340.85 156.912L1376.18 192.774C1385.61 202.351 1385.5 217.761 1375.92 227.195C1366.49 236.481 1351.41 236.514 1341.95 227.379L1341.5 226.937Z" stroke="#087E8B" stroke-width="2"/>
<path d="M1341.85 464.809L1377.71 429.482C1387.29 420.048 1402.7 420.164 1412.13 429.74C1421.57 439.316 1421.45 454.727 1411.88 464.161L1376.01 499.488C1366.44 508.922 1351.03 508.806 1341.59 499.23C1332.31 489.803 1332.27 474.723 1341.41 465.256L1341.85 464.809Z" stroke="#087E8B" stroke-width="2"/>
<path d="M1341.5 499.103L1306.17 463.241C1296.74 453.665 1296.85 438.254 1306.43 428.82C1316.01 419.387 1331.42 419.502 1340.85 429.079L1376.18 464.94C1385.61 474.517 1385.5 489.927 1375.92 499.361C1366.49 508.647 1351.41 508.681 1341.95 499.545L1341.5 499.103Z" stroke="#087E8B" stroke-width="2"/>
<path d="M1738.71 56.2927L1774.57 20.9652C1784.15 11.5315 1799.56 11.6472 1808.99 21.2235C1818.43 30.7998 1818.31 46.2107 1808.74 55.6443L1772.87 90.9718C1763.3 100.405 1747.89 100.29 1738.45 90.7134C1729.17 81.2867 1729.13 66.2062 1738.27 56.7389L1738.71 56.2927Z" stroke="#087E8B" stroke-width="2"/>
<path d="M1738.36 90.5842L1703.03 54.7224C1693.6 45.1461 1693.72 29.7353 1703.29 20.3016C1712.87 10.8681 1728.28 10.9837 1737.71 20.5599L1773.04 56.4217C1782.47 65.998 1782.36 81.4088 1772.78 90.8425C1763.35 100.129 1748.27 100.162 1738.81 91.026L1738.36 90.5842Z" stroke="#087E8B" stroke-width="2"/>
<path d="M1738.71 328.458L1774.57 293.13C1784.15 283.697 1799.56 283.812 1809 293.389C1818.43 302.965 1818.31 318.376 1808.74 327.809L1772.88 363.137C1763.3 372.57 1747.89 372.455 1738.45 362.878C1729.17 353.452 1729.13 338.371 1738.27 328.904L1738.71 328.458Z" stroke="#087E8B" stroke-width="2"/>
<path d="M1738.36 362.75L1703.03 326.888C1693.6 317.312 1693.72 301.901 1703.29 292.468C1712.87 283.034 1728.28 283.15 1737.71 292.726L1773.04 328.588C1782.47 338.164 1782.36 353.575 1772.78 363.009C1763.36 372.295 1748.27 372.328 1738.81 363.192L1738.36 362.75Z" stroke="#087E8B" stroke-width="2"/>
<path d="M1738.71 192.644L1774.57 157.317C1784.15 147.883 1799.56 147.999 1809 157.575C1818.43 167.151 1818.31 182.562 1808.74 191.996L1772.88 227.323C1763.3 236.757 1747.89 236.641 1738.45 227.065C1729.17 217.638 1729.13 202.558 1738.27 193.09L1738.71 192.644Z" stroke="#087E8B" stroke-width="2"/>
<path d="M1738.36 226.937L1703.03 191.075C1693.6 181.499 1693.72 166.088 1703.29 156.654C1712.87 147.221 1728.28 147.336 1737.71 156.912L1773.04 192.774C1782.47 202.351 1782.36 217.761 1772.78 227.195C1763.36 236.481 1748.27 236.514 1738.81 227.379L1738.36 226.937Z" stroke="#087E8B" stroke-width="2"/>
<path d="M1738.71 464.81L1774.57 429.483C1784.15 420.049 1799.56 420.165 1809 429.741C1818.43 439.317 1818.31 454.728 1808.74 464.162L1772.88 499.489C1763.3 508.923 1747.89 508.807 1738.45 499.231C1729.17 489.804 1729.13 474.724 1738.27 465.256L1738.71 464.81Z" stroke="#087E8B" stroke-width="2"/>
<path d="M1738.36 499.103L1703.03 463.241C1693.6 453.665 1693.72 438.254 1703.29 428.82C1712.87 419.387 1728.28 419.502 1737.71 429.079L1773.04 464.94C1782.47 474.517 1782.36 489.927 1772.78 499.361C1763.36 508.647 1748.27 508.681 1738.81 499.545L1738.36 499.103Z" stroke="#087E8B" stroke-width="2"/>
<path d="M1541.83 54.486L1577.69 19.1585C1587.27 9.72489 1602.68 9.84055 1612.11 19.4169C1621.55 28.9932 1621.43 44.404 1611.85 53.8376L1575.99 89.1651C1566.42 98.5987 1551.01 98.483 1541.57 88.9068C1532.29 79.48 1532.25 64.3995 1541.39 54.9323L1541.83 54.486Z" stroke="#087E8B" stroke-width="2"/>
<path d="M1541.48 88.7785L1506.15 52.9167C1496.72 43.3404 1496.83 27.9296 1506.41 18.496C1515.99 9.06242 1531.4 9.17801 1540.83 18.7543L1576.16 54.6161C1585.59 64.1923 1585.48 79.6032 1575.9 89.0368C1566.47 98.3232 1551.39 98.3563 1541.92 89.2204L1541.48 88.7785Z" stroke="#087E8B" stroke-width="2"/>
<path d="M1541.83 326.652L1577.69 291.325C1587.27 281.891 1602.68 282.007 1612.11 291.583C1621.55 301.159 1621.43 316.57 1611.85 326.004L1575.99 361.331C1566.42 370.765 1551.01 370.649 1541.57 361.073C1532.29 351.646 1532.25 336.566 1541.39 327.098L1541.83 326.652Z" stroke="#087E8B" stroke-width="2"/>
<path d="M1541.48 360.945L1506.15 325.083C1496.72 315.506 1496.83 300.096 1506.41 290.662C1515.99 281.228 1531.4 281.344 1540.83 290.92L1576.16 326.782C1585.59 336.358 1585.48 351.769 1575.9 361.203C1566.47 370.489 1551.39 370.522 1541.92 361.386L1541.48 360.945Z" stroke="#087E8B" stroke-width="2"/>
<path d="M1541.83 190.838L1577.69 155.51C1587.27 146.076 1602.68 146.192 1612.11 155.768C1621.55 165.345 1621.43 180.756 1611.85 190.189L1575.99 225.517C1566.42 234.95 1551.01 234.835 1541.57 225.258C1532.29 215.832 1532.25 200.751 1541.39 191.284L1541.83 190.838Z" stroke="#087E8B" stroke-width="2"/>
<path d="M1541.48 225.13L1506.15 189.268C1496.72 179.692 1496.83 164.281 1506.41 154.848C1515.99 145.414 1531.4 145.53 1540.83 155.106L1576.16 190.968C1585.59 200.544 1585.48 215.955 1575.9 225.388C1566.47 234.675 1551.39 234.708 1541.92 225.572L1541.48 225.13Z" stroke="#087E8B" stroke-width="2"/>
<path d="M1541.83 463.005L1577.69 427.677C1587.27 418.243 1602.68 418.359 1612.11 427.935C1621.55 437.512 1621.43 452.923 1611.85 462.356L1575.99 497.684C1566.42 507.117 1551.01 507.002 1541.57 497.425C1532.29 487.999 1532.25 472.918 1541.39 463.451L1541.83 463.005Z" stroke="#087E8B" stroke-width="2"/>
<path d="M1541.48 497.296L1506.15 461.434C1496.72 451.858 1496.83 436.447 1506.41 427.014C1515.99 417.58 1531.4 417.696 1540.83 427.272L1576.16 463.134C1585.59 472.71 1585.48 488.121 1575.9 497.554C1566.47 506.841 1551.39 506.874 1541.92 497.738L1541.48 497.296Z" stroke="#087E8B" stroke-width="2"/>
<path d="M1938.69 54.486L1974.55 19.1585C1984.13 9.72489 1999.54 9.84055 2008.97 19.4169C2018.41 28.9932 2018.29 44.404 2008.72 53.8376L1972.85 89.1651C1963.28 98.5987 1947.87 98.483 1938.43 88.9068C1929.15 79.48 1929.11 64.3995 1938.25 54.9323L1938.69 54.486Z" stroke="#087E8B" stroke-width="2"/>
<path d="M1938.34 88.7775L1903.01 52.9157C1893.58 43.3394 1893.69 27.9286 1903.27 18.495C1912.85 9.06144 1928.26 9.17703 1937.69 18.7533L1973.02 54.6151C1982.45 64.1914 1982.34 79.6022 1972.76 89.0359C1963.33 98.3222 1948.25 98.3553 1938.79 89.2194L1938.34 88.7775Z" stroke="#087E8B" stroke-width="2"/>
<path d="M1938.69 326.652L1974.55 291.325C1984.13 281.891 1999.54 282.007 2008.97 291.583C2018.41 301.159 2018.29 316.57 2008.72 326.004L1972.85 361.331C1963.28 370.765 1947.87 370.649 1938.43 361.073C1929.15 351.646 1929.11 336.566 1938.25 327.098L1938.69 326.652Z" stroke="#087E8B" stroke-width="2"/>
<path d="M1938.34 360.945L1903.01 325.083C1893.58 315.506 1893.69 300.096 1903.27 290.662C1912.85 281.228 1928.26 281.344 1937.69 290.92L1973.02 326.782C1982.45 336.358 1982.34 351.769 1972.76 361.203C1963.33 370.489 1948.25 370.522 1938.79 361.386L1938.34 360.945Z" stroke="#087E8B" stroke-width="2"/>
<path d="M1938.69 190.838L1974.55 155.51C1984.13 146.076 1999.54 146.192 2008.97 155.768C2018.41 165.345 2018.29 180.756 2008.72 190.189L1972.85 225.517C1963.28 234.95 1947.87 234.835 1938.43 225.258C1929.15 215.832 1929.11 200.751 1938.25 191.284L1938.69 190.838Z" stroke="#087E8B" stroke-width="2"/>
<path d="M1938.34 225.13L1903.01 189.268C1893.58 179.692 1893.69 164.281 1903.27 154.848C1912.85 145.414 1928.26 145.53 1937.69 155.106L1973.02 190.968C1982.45 200.544 1982.34 215.955 1972.76 225.388C1963.33 234.675 1948.25 234.708 1938.79 225.572L1938.34 225.13Z" stroke="#087E8B" stroke-width="2"/>
<path d="M1938.69 463.005L1974.55 427.677C1984.13 418.243 1999.54 418.359 2008.97 427.935C2018.41 437.512 2018.29 452.923 2008.72 462.356L1972.85 497.684C1963.28 507.117 1947.87 507.002 1938.43 497.425C1929.15 487.999 1929.11 472.918 1938.25 463.451L1938.69 463.005Z" stroke="#087E8B" stroke-width="2"/>
<path d="M1938.34 497.296L1903.01 461.434C1893.58 451.858 1893.69 436.447 1903.27 427.014C1912.85 417.58 1928.26 417.696 1937.69 427.272L1973.02 463.134C1982.45 472.71 1982.34 488.121 1972.76 497.554C1963.33 506.841 1948.25 506.874 1938.79 497.738L1938.34 497.296Z" stroke="#087E8B" stroke-width="2"/>
<path d="M89.3815 97.4279L53.9268 133.164C44.4591 142.707 29.048 142.767 19.5053 133.3C9.9627 123.832 9.90175 108.421 19.3693 98.8783L54.8241 63.1424C64.2917 53.5997 79.7028 53.5389 89.2456 63.0064C98.7883 72.474 98.8491 87.8851 89.3815 97.4279Z" stroke="#087E8B" stroke-width="2"/>
<path d="M89.3405 63.1341L125.076 98.5889C134.619 108.056 134.68 123.468 125.212 133.01C115.745 142.553 100.334 142.614 90.7909 133.146L55.055 97.6915C45.5123 88.224 45.4515 72.8128 54.919 63.2701C64.3866 53.7274 79.7977 53.6665 89.3405 63.1341Z" stroke="#087E8B" stroke-width="2"/>
<path d="M89.381 369.594L53.9263 405.33C44.4587 414.873 29.0475 414.933 19.5048 405.466C9.96221 395.998 9.90126 380.587 19.3688 371.044L54.8236 335.308C64.2912 325.766 79.7023 325.705 89.2451 335.172C98.7878 344.64 98.8487 360.051 89.381 369.594Z" stroke="#087E8B" stroke-width="2"/>
<path d="M89.3405 335.301L125.076 370.756C134.619 380.223 134.68 395.635 125.212 405.177C115.745 414.72 100.334 414.781 90.7909 405.313L55.055 369.859C45.5123 360.391 45.4515 344.98 54.919 335.437C64.3866 325.894 79.7977 325.833 89.3405 335.301Z" stroke="#087E8B" stroke-width="2"/>
<path d="M89.3815 233.78L53.9268 269.516C44.4591 279.059 29.048 279.12 19.5053 269.652C9.9627 260.185 9.90175 244.774 19.3693 235.231L54.8241 199.495C64.2917 189.952 79.7028 189.891 89.2456 199.359C98.7883 208.827 98.8491 224.238 89.3815 233.78Z" stroke="#087E8B" stroke-width="2"/>
<path d="M89.3405 199.487L125.076 234.941C134.619 244.409 134.68 259.82 125.212 269.363C115.745 278.905 100.334 278.966 90.7909 269.499L55.055 234.044C45.5123 224.576 45.4515 209.165 54.919 199.623C64.3866 190.08 79.7977 190.019 89.3405 199.487Z" stroke="#087E8B" stroke-width="2"/>
<path d="M89.381 505.946L53.9263 541.682C44.4587 551.225 29.0475 551.286 19.5048 541.818C9.96221 532.351 9.90126 516.94 19.3688 507.397L54.8236 471.661C64.2912 462.118 79.7023 462.057 89.2451 471.525C98.7878 480.993 98.8487 496.404 89.381 505.946Z" stroke="#087E8B" stroke-width="2"/>
<path d="M89.3405 471.651L125.076 507.105C134.619 516.573 134.68 531.984 125.212 541.527C115.745 551.07 100.334 551.13 90.7909 541.663L55.055 506.208C45.5123 496.741 45.4515 481.329 54.919 471.787C64.3866 462.244 79.7977 462.183 89.3405 471.651Z" stroke="#087E8B" stroke-width="2"/>
<path d="M286.006 98.0734L250.551 133.809C241.083 143.352 225.672 143.413 216.129 133.945C206.587 124.478 206.526 109.067 215.993 99.5238L251.448 63.7879C260.916 54.2452 276.327 54.1844 285.87 63.6519C295.412 73.1195 295.473 88.5307 286.006 98.0734Z" stroke="#087E8B" stroke-width="2"/>
<path d="M285.964 63.7806L321.7 99.2353C331.243 108.703 331.304 124.114 321.836 133.657C312.369 143.199 296.958 143.26 287.415 133.793L251.679 98.338C242.136 88.8704 242.075 73.4593 251.543 63.9166C261.011 54.3738 276.422 54.313 285.964 63.7806Z" stroke="#087E8B" stroke-width="2"/>
<path d="M286.006 370.237L250.551 405.973C241.083 415.516 225.672 415.577 216.129 406.109C206.587 396.642 206.526 381.231 215.993 371.688L251.448 335.952C260.916 326.409 276.327 326.348 285.87 335.816C295.412 345.284 295.473 360.695 286.006 370.237Z" stroke="#087E8B" stroke-width="2"/>
<path d="M285.964 335.945L321.7 371.399C331.243 380.867 331.304 396.278 321.836 405.821C312.369 415.363 296.958 415.424 287.415 405.957L251.679 370.502C242.136 361.034 242.075 345.623 251.543 336.081C261.011 326.538 276.422 326.477 285.964 335.945Z" stroke="#087E8B" stroke-width="2"/>
<path d="M286.006 234.425L250.551 270.161C241.083 279.704 225.672 279.764 216.129 270.297C206.587 260.829 206.526 245.418 215.993 235.875L251.448 200.139C260.916 190.597 276.327 190.536 285.87 200.003C295.412 209.471 295.473 224.882 286.006 234.425Z" stroke="#087E8B" stroke-width="2"/>
<path d="M285.964 200.131L321.7 235.586C331.243 245.054 331.304 260.465 321.836 270.007C312.369 279.55 296.958 279.611 287.415 270.143L251.679 234.689C242.136 225.221 242.075 209.81 251.543 200.267C261.011 190.724 276.422 190.664 285.964 200.131Z" stroke="#087E8B" stroke-width="2"/>
<path d="M286.005 506.591L250.55 542.327C241.083 551.87 225.672 551.931 216.129 542.463C206.586 532.995 206.525 517.584 215.993 508.041L251.448 472.305C260.915 462.763 276.326 462.702 285.869 472.169C295.412 481.637 295.473 497.048 286.005 506.591Z" stroke="#087E8B" stroke-width="2"/>
<path d="M285.964 472.297L321.7 507.752C331.243 517.22 331.304 532.631 321.836 542.173C312.369 551.716 296.958 551.777 287.415 542.309L251.679 506.855C242.136 497.387 242.075 481.976 251.543 472.433C261.011 462.89 276.422 462.83 285.964 472.297Z" stroke="#087E8B" stroke-width="2"/>
<path d="M682.867 98.0734L647.413 133.809C637.945 143.352 622.534 143.413 612.991 133.945C603.449 124.478 603.388 109.067 612.855 99.5238L648.31 63.7879C657.778 54.2452 673.189 54.1844 682.731 63.6519C692.274 73.1195 692.335 88.5307 682.867 98.0734Z" stroke="#087E8B" stroke-width="2"/>
<path d="M682.826 63.7806L718.562 99.2353C728.105 108.703 728.166 124.114 718.698 133.657C709.231 143.199 693.819 143.26 684.277 133.793L648.541 98.338C638.998 88.8704 638.937 73.4593 648.405 63.9166C657.872 54.3738 673.284 54.313 682.826 63.7806Z" stroke="#087E8B" stroke-width="2"/>
<path d="M682.867 370.237L647.412 405.973C637.945 415.516 622.533 415.577 612.991 406.109C603.448 396.642 603.387 381.231 612.855 371.688L648.309 335.952C657.777 326.409 673.188 326.348 682.731 335.816C692.274 345.284 692.334 360.695 682.867 370.237Z" stroke="#087E8B" stroke-width="2"/>
<path d="M682.826 335.945L718.562 371.399C728.105 380.867 728.166 396.278 718.698 405.821C709.231 415.363 693.819 415.424 684.277 405.957L648.541 370.502C638.998 361.034 638.937 345.623 648.405 336.081C657.872 326.538 673.284 326.477 682.826 335.945Z" stroke="#087E8B" stroke-width="2"/>
<path d="M682.867 234.425L647.413 270.161C637.945 279.704 622.534 279.764 612.991 270.297C603.449 260.829 603.388 245.418 612.855 235.875L648.31 200.139C657.778 190.597 673.189 190.536 682.731 200.003C692.274 209.471 692.335 224.882 682.867 234.425Z" stroke="#087E8B" stroke-width="2"/>
<path d="M682.826 200.131L718.562 235.586C728.105 245.054 728.166 260.465 718.698 270.007C709.231 279.55 693.819 279.611 684.277 270.143L648.541 234.689C638.998 225.221 638.937 209.81 648.405 200.267C657.872 190.724 673.284 190.664 682.826 200.131Z" stroke="#087E8B" stroke-width="2"/>
<path d="M682.867 506.591L647.412 542.327C637.945 551.87 622.533 551.931 612.991 542.463C603.448 532.995 603.387 517.584 612.855 508.041L648.309 472.305C657.777 462.763 673.188 462.702 682.731 472.169C692.274 481.637 692.334 497.048 682.867 506.591Z" stroke="#087E8B" stroke-width="2"/>
<path d="M682.826 472.297L718.562 507.752C728.105 517.22 728.166 532.631 718.698 542.173C709.231 551.716 693.819 551.777 684.277 542.309L648.541 506.855C638.998 497.387 638.937 481.976 648.405 472.433C657.872 462.89 673.284 462.83 682.826 472.297Z" stroke="#087E8B" stroke-width="2"/>
<path d="M485.985 96.2667L450.53 132.003C441.062 141.545 425.651 141.606 416.108 132.139C406.566 122.671 406.505 107.26 415.972 97.7172L451.427 61.9812C460.895 52.4386 476.306 52.3778 485.849 61.8453C495.391 71.3129 495.452 86.724 485.985 96.2667Z" stroke="#087E8B" stroke-width="2"/>
<path d="M485.943 61.973L521.679 97.4277C531.222 106.895 531.283 122.306 521.815 131.849C512.348 141.392 496.937 141.453 487.394 131.985L451.658 96.5304C442.115 87.0628 442.055 71.6517 451.522 62.1089C460.99 52.5662 476.401 52.5054 485.943 61.973Z" stroke="#087E8B" stroke-width="2"/>
<path d="M485.985 368.433L450.53 404.169C441.062 413.711 425.651 413.772 416.108 404.305C406.566 394.837 406.505 379.426 415.972 369.883L451.427 334.147C460.895 324.605 476.306 324.544 485.849 334.011C495.391 343.479 495.452 358.89 485.985 368.433Z" stroke="#087E8B" stroke-width="2"/>
<path d="M485.943 334.139L521.679 369.594C531.222 379.061 531.283 394.472 521.815 404.015C512.348 413.558 496.937 413.619 487.394 404.151L451.658 368.696C442.115 359.229 442.055 343.818 451.522 334.275C460.99 324.732 476.401 324.671 485.943 334.139Z" stroke="#087E8B" stroke-width="2"/>
<path d="M485.985 232.617L450.53 268.353C441.063 277.896 425.652 277.957 416.109 268.489C406.566 259.022 406.505 243.61 415.973 234.068L451.428 198.332C460.895 188.789 476.306 188.728 485.849 198.196C495.392 207.663 495.453 223.075 485.985 232.617Z" stroke="#087E8B" stroke-width="2"/>
<path d="M485.944 198.324L521.68 233.778C531.223 243.246 531.284 258.657 521.816 268.2C512.348 277.742 496.937 277.803 487.394 268.336L451.658 232.881C442.116 223.413 442.055 208.002 451.523 198.46C460.99 188.917 476.401 188.856 485.944 198.324Z" stroke="#087E8B" stroke-width="2"/>
<path d="M485.984 504.785L450.529 540.521C441.062 550.064 425.651 550.125 416.108 540.657C406.565 531.19 406.504 515.778 415.972 506.236L451.427 470.5C460.894 460.957 476.305 460.896 485.848 470.364C495.391 479.831 495.452 495.243 485.984 504.785Z" stroke="#087E8B" stroke-width="2"/>
<path d="M485.943 470.492L521.679 505.946C531.222 515.414 531.283 530.825 521.815 540.368C512.348 549.91 496.937 549.971 487.394 540.504L451.658 505.049C442.115 495.581 442.055 480.17 451.522 470.627C460.99 461.085 476.401 461.024 485.943 470.492Z" stroke="#087E8B" stroke-width="2"/>
<path d="M882.846 96.2667L847.392 132.003C837.924 141.545 822.513 141.606 812.97 132.139C803.428 122.671 803.367 107.26 812.834 97.7172L848.289 61.9812C857.757 52.4386 873.168 52.3778 882.71 61.8453C892.253 71.3129 892.314 86.724 882.846 96.2667Z" stroke="#087E8B" stroke-width="2"/>
<path d="M882.805 61.973L918.541 97.4277C928.084 106.895 928.145 122.306 918.677 131.849C909.21 141.392 893.798 141.453 884.256 131.985L848.52 96.5304C838.977 87.0628 838.916 71.6517 848.384 62.1089C857.851 52.5662 873.263 52.5054 882.805 61.973Z" stroke="#087E8B" stroke-width="2"/>
<path d="M882.846 368.433L847.391 404.169C837.924 413.711 822.512 413.772 812.97 404.305C803.427 394.837 803.366 379.426 812.834 369.883L848.288 334.147C857.756 324.605 873.167 324.544 882.71 334.011C892.253 343.479 892.313 358.89 882.846 368.433Z" stroke="#087E8B" stroke-width="2"/>
<path d="M882.805 334.139L918.541 369.594C928.084 379.061 928.145 394.472 918.677 404.015C909.21 413.558 893.798 413.619 884.256 404.151L848.52 368.696C838.977 359.229 838.916 343.818 848.384 334.275C857.851 324.732 873.263 324.671 882.805 334.139Z" stroke="#087E8B" stroke-width="2"/>
<path d="M882.846 232.617L847.392 268.353C837.924 277.896 822.513 277.957 812.97 268.489C803.428 259.022 803.367 243.61 812.834 234.068L848.289 198.332C857.757 188.789 873.168 188.728 882.71 198.196C892.253 207.663 892.314 223.075 882.846 232.617Z" stroke="#087E8B" stroke-width="2"/>
<path d="M882.805 198.323L918.541 233.777C928.084 243.245 928.145 258.656 918.677 268.199C909.21 277.741 893.798 277.802 884.256 268.335L848.52 232.88C838.977 223.412 838.916 208.001 848.384 198.459C857.851 188.916 873.263 188.855 882.805 198.323Z" stroke="#087E8B" stroke-width="2"/>
<path d="M882.846 504.785L847.391 540.521C837.924 550.064 822.512 550.125 812.97 540.657C803.427 531.19 803.366 515.778 812.834 506.236L848.288 470.5C857.756 460.957 873.167 460.896 882.71 470.364C892.253 479.831 892.313 495.243 882.846 504.785Z" stroke="#087E8B" stroke-width="2"/>
<path d="M882.805 470.492L918.541 505.946C928.084 515.414 928.145 530.825 918.677 540.368C909.21 549.91 893.798 549.971 884.256 540.504L848.52 505.049C838.977 495.581 838.916 480.17 848.384 470.627C857.851 461.085 873.263 461.024 882.805 470.492Z" stroke="#087E8B" stroke-width="2"/>
<path d="M154.68 56.8366L190.542 21.5091C200.119 12.0755 215.529 12.1911 224.963 21.7674C234.397 31.3438 234.281 46.7546 224.705 56.1882L188.843 91.5157C179.267 100.949 163.856 100.834 154.422 91.2574C145.136 81.8306 145.103 66.7501 154.239 57.2829L154.68 56.8366Z" stroke="#087E8B" stroke-width="2"/>
<path d="M154.329 91.1291L119.001 55.2673C109.568 45.691 109.683 30.2802 119.26 20.8465C128.836 11.413 144.247 11.5286 153.68 21.1049L189.008 56.9667C198.442 66.5429 198.326 81.9538 188.75 91.3874C179.323 100.674 164.242 100.707 154.775 91.5709L154.329 91.1291Z" stroke="#087E8B" stroke-width="2"/>
<path d="M154.68 329.004L190.542 293.676C200.119 284.242 215.529 284.358 224.963 293.934C234.397 303.511 234.281 318.922 224.705 328.355L188.843 363.683C179.267 373.116 163.856 373.001 154.422 363.424C145.136 353.998 145.103 338.917 154.239 329.45L154.68 329.004Z" stroke="#087E8B" stroke-width="2"/>
<path d="M154.329 363.296L119.001 327.434C109.568 317.858 109.683 302.447 119.26 293.014C128.836 283.58 144.247 283.696 153.68 293.272L189.008 329.134C198.442 338.71 198.326 354.121 188.75 363.554C179.323 372.841 164.242 372.874 154.775 363.738L154.329 363.296Z" stroke="#087E8B" stroke-width="2"/>
<path d="M154.68 193.189L190.542 157.862C200.119 148.428 215.529 148.544 224.963 158.12C234.397 167.696 234.281 183.107 224.705 192.541L188.843 227.868C179.267 237.302 163.856 237.186 154.422 227.61C145.136 218.183 145.103 203.103 154.239 193.635L154.68 193.189Z" stroke="#087E8B" stroke-width="2"/>
<path d="M154.329 227.482L119.001 191.62C109.568 182.044 109.683 166.633 119.26 157.199C128.836 147.766 144.247 147.881 153.68 157.457L189.008 193.319C198.442 202.895 198.326 218.306 188.75 227.74C179.323 237.026 164.242 237.059 154.775 227.923L154.329 227.482Z" stroke="#087E8B" stroke-width="2"/>
<path d="M154.68 465.354L190.542 430.027C200.119 420.593 215.529 420.709 224.963 430.285C234.397 439.861 234.281 455.272 224.705 464.706L188.843 500.033C179.267 509.467 163.856 509.351 154.422 499.775C145.136 490.348 145.103 475.268 154.239 465.8L154.68 465.354Z" stroke="#087E8B" stroke-width="2"/>
<path d="M154.329 499.646L119.001 463.784C109.568 454.208 109.683 438.797 119.26 429.363C128.836 419.93 144.247 420.045 153.68 429.621L189.008 465.483C198.442 475.06 198.326 490.47 188.75 499.904C179.323 509.19 164.242 509.223 154.775 500.088L154.329 499.646Z" stroke="#087E8B" stroke-width="2"/>
<path d="M351.305 57.4812L387.166 22.1536C396.743 12.72 412.153 12.8357 421.587 22.412C431.021 31.9883 430.905 47.3991 421.329 56.8327L385.467 92.1602C375.891 101.594 360.48 101.478 351.046 91.9019C341.76 82.4751 341.727 67.3946 350.863 57.9274L351.305 57.4812Z" stroke="#087E8B" stroke-width="2"/>
<path d="M350.953 91.7736L315.625 55.9118C306.192 46.3355 306.307 30.9247 315.884 21.4911C325.46 12.0575 340.871 12.1731 350.304 21.7494L385.632 57.6112C395.066 67.1875 394.95 82.5983 385.374 92.032C375.947 101.318 360.866 101.351 351.399 92.2155L350.953 91.7736Z" stroke="#087E8B" stroke-width="2"/>
<path d="M351.305 329.646L387.166 294.319C396.743 284.885 412.153 285.001 421.587 294.577C431.021 304.153 430.905 319.564 421.329 328.998L385.467 364.325C375.891 373.759 360.48 373.643 351.046 364.067C341.76 354.64 341.727 339.56 350.863 330.092L351.305 329.646Z" stroke="#087E8B" stroke-width="2"/>
<path d="M350.953 363.939L315.625 328.077C306.192 318.501 306.307 303.09 315.884 293.656C325.46 284.223 340.871 284.338 350.304 293.914L385.632 329.776C395.066 339.352 394.95 354.763 385.374 364.197C375.947 373.483 360.866 373.516 351.399 364.381L350.953 363.939Z" stroke="#087E8B" stroke-width="2"/>
<path d="M351.305 193.833L387.166 158.505C396.743 149.072 412.153 149.187 421.587 158.764C431.021 168.34 430.905 183.751 421.329 193.184L385.467 228.512C375.891 237.945 360.48 237.83 351.046 228.253C341.76 218.827 341.727 203.746 350.863 194.279L351.305 193.833Z" stroke="#087E8B" stroke-width="2"/>
<path d="M350.953 228.126L315.625 192.264C306.192 182.688 306.307 167.277 315.884 157.844C325.46 148.41 340.871 148.526 350.304 158.102L385.632 193.964C395.066 203.54 394.95 218.951 385.374 228.384C375.947 237.671 360.866 237.704 351.399 228.568L350.953 228.126Z" stroke="#087E8B" stroke-width="2"/>
<path d="M351.305 465.998L387.166 430.67C396.743 421.237 412.153 421.352 421.587 430.929C431.021 440.505 430.905 455.916 421.329 465.349L385.467 500.677C375.891 510.11 360.48 509.995 351.046 500.419C341.76 490.992 341.727 475.911 350.863 466.444L351.305 465.998Z" stroke="#087E8B" stroke-width="2"/>
<path d="M350.953 500.292L315.625 464.43C306.192 454.854 306.307 439.443 315.884 430.01C325.46 420.576 340.871 420.692 350.304 430.268L385.632 466.13C395.066 475.706 394.95 491.117 385.374 500.551C375.947 509.837 360.866 509.87 351.399 500.734L350.953 500.292Z" stroke="#087E8B" stroke-width="2"/>
<path d="M748.166 57.4812L784.028 22.1536C793.604 12.72 809.015 12.8357 818.449 22.412C827.882 31.9883 827.767 47.3991 818.191 56.8327L782.329 92.1602C772.752 101.594 757.342 101.478 747.908 91.9019C738.622 82.4751 738.589 67.3946 747.724 57.9274L748.166 57.4812Z" stroke="#087E8B" stroke-width="2"/>
<path d="M747.815 91.7736L712.487 55.9118C703.054 46.3355 703.169 30.9247 712.745 21.4911C722.322 12.0575 737.733 12.1731 747.166 21.7494L782.494 57.6112C791.927 67.1875 791.812 82.5983 782.235 92.032C772.809 101.318 757.728 101.351 748.261 92.2155L747.815 91.7736Z" stroke="#087E8B" stroke-width="2"/>
<path d="M748.166 329.646L784.028 294.319C793.604 284.885 809.015 285.001 818.449 294.577C827.882 304.153 827.767 319.564 818.191 328.998L782.329 364.325C772.752 373.759 757.342 373.643 747.908 364.067C738.622 354.64 738.589 339.56 747.724 330.092L748.166 329.646Z" stroke="#087E8B" stroke-width="2"/>
<path d="M747.815 363.939L712.487 328.077C703.054 318.501 703.169 303.09 712.745 293.656C722.322 284.223 737.733 284.338 747.166 293.914L782.494 329.776C791.927 339.352 791.812 354.763 782.235 364.197C772.809 373.483 757.728 373.516 748.261 364.381L747.815 363.939Z" stroke="#087E8B" stroke-width="2"/>
<path d="M748.166 193.833L784.028 158.505C793.604 149.072 809.015 149.187 818.448 158.764C827.882 168.34 827.766 183.751 818.19 193.184L782.328 228.512C772.752 237.945 757.341 237.83 747.908 228.253C738.621 218.827 738.588 203.746 747.724 194.279L748.166 193.833Z" stroke="#087E8B" stroke-width="2"/>
<path d="M747.815 228.126L712.487 192.264C703.054 182.688 703.169 167.277 712.745 157.844C722.322 148.41 737.733 148.526 747.166 158.102L782.494 193.964C791.927 203.54 791.812 218.951 782.235 228.384C772.809 237.671 757.728 237.704 748.261 228.568L747.815 228.126Z" stroke="#087E8B" stroke-width="2"/>
<path d="M748.166 466L784.028 430.672C793.604 421.239 809.015 421.354 818.449 430.931C827.882 440.507 827.767 455.918 818.191 465.351L782.329 500.679C772.752 510.112 757.342 509.997 747.908 500.42C738.622 490.994 738.589 475.913 747.724 466.446L748.166 466Z" stroke="#087E8B" stroke-width="2"/>
<path d="M747.815 500.292L712.487 464.43C703.054 454.854 703.169 439.443 712.745 430.01C722.322 420.576 737.733 420.692 747.166 430.268L782.494 466.13C791.927 475.706 791.812 491.117 782.235 500.551C772.809 509.837 757.728 509.87 748.261 500.734L747.815 500.292Z" stroke="#087E8B" stroke-width="2"/>
<path d="M551.284 55.6745L587.145 20.347C596.722 10.9134 612.132 11.029 621.566 20.6053C631 30.1817 630.884 45.5925 621.308 55.0261L585.446 90.3536C575.87 99.7872 560.459 99.6715 551.025 90.0953C541.739 80.6685 541.706 65.588 550.842 56.1207L551.284 55.6745Z" stroke="#087E8B" stroke-width="2"/>
<path d="M550.932 89.967L515.604 54.1052C506.171 44.5289 506.286 29.1181 515.863 19.6844C525.439 10.2509 540.85 10.3665 550.283 19.9428L585.611 55.8045C595.045 65.3808 594.929 80.7917 585.353 90.2253C575.926 99.5117 560.845 99.5448 551.378 90.4088L550.932 89.967Z" stroke="#087E8B" stroke-width="2"/>
<path d="M551.284 327.841L587.145 292.513C596.722 283.079 612.132 283.195 621.566 292.771C631 302.348 630.884 317.759 621.308 327.192L585.446 362.52C575.87 371.953 560.459 371.838 551.025 362.261C541.739 352.835 541.706 337.754 550.842 328.287L551.284 327.841Z" stroke="#087E8B" stroke-width="2"/>
<path d="M550.932 362.133L515.604 326.271C506.171 316.695 506.286 301.284 515.863 291.85C525.439 282.417 540.85 282.533 550.283 292.109L585.611 327.971C595.045 337.547 594.929 352.958 585.353 362.391C575.926 371.678 560.845 371.711 551.378 362.575L550.932 362.133Z" stroke="#087E8B" stroke-width="2"/>
<path d="M551.284 192.026L587.145 156.699C596.722 147.265 612.132 147.381 621.566 156.957C631 166.533 630.884 181.944 621.308 191.378L585.446 226.705C575.87 236.139 560.459 236.023 551.025 226.447C541.739 217.02 541.706 201.94 550.842 192.472L551.284 192.026Z" stroke="#087E8B" stroke-width="2"/>
<path d="M550.932 226.319L515.604 190.457C506.171 180.88 506.286 165.47 515.863 156.036C525.439 146.602 540.85 146.718 550.283 156.294L585.611 192.156C595.045 201.732 594.929 217.143 585.353 226.577C575.926 235.863 560.845 235.896 551.378 226.76L550.932 226.319Z" stroke="#087E8B" stroke-width="2"/>
<path d="M551.284 464.192L587.145 428.865C596.722 419.431 612.132 419.547 621.566 429.123C631 438.699 630.884 454.11 621.308 463.544L585.446 498.871C575.87 508.305 560.459 508.189 551.025 498.613C541.739 489.186 541.706 474.106 550.842 464.638L551.284 464.192Z" stroke="#087E8B" stroke-width="2"/>
<path d="M550.932 498.485L515.604 462.623C506.171 453.046 506.286 437.636 515.863 428.202C525.439 418.768 540.85 418.884 550.283 428.46L585.611 464.322C595.045 473.898 594.929 489.309 585.353 498.743C575.926 508.029 560.845 508.062 551.378 498.926L550.932 498.485Z" stroke="#087E8B" stroke-width="2"/>
<path d="M948.145 55.6745L984.007 20.347C993.583 10.9134 1008.99 11.029 1018.43 20.6053C1027.86 30.1817 1027.75 45.5925 1018.17 55.0261L982.307 90.3536C972.731 99.7872 957.32 99.6715 947.887 90.0953C938.6 80.6685 938.567 65.588 947.703 56.1207L948.145 55.6745Z" stroke="#087E8B" stroke-width="2"/>
<path d="M947.793 89.967L912.466 54.1052C903.032 44.5289 903.148 29.1181 912.724 19.6844C922.3 10.2509 937.711 10.3665 947.145 19.9428L982.472 55.8045C991.906 65.3808 991.79 80.7917 982.214 90.2253C972.787 99.5117 957.707 99.5448 948.239 90.4088L947.793 89.967Z" stroke="#087E8B" stroke-width="2"/>
<path d="M948.145 327.841L984.007 292.513C993.583 283.079 1008.99 283.195 1018.43 292.771C1027.86 302.348 1027.75 317.759 1018.17 327.192L982.307 362.52C972.731 371.953 957.32 371.838 947.887 362.261C938.6 352.835 938.567 337.754 947.703 328.287L948.145 327.841Z" stroke="#087E8B" stroke-width="2"/>
<path d="M947.793 362.133L912.466 326.271C903.032 316.695 903.148 301.284 912.724 291.85C922.3 282.417 937.711 282.533 947.145 292.109L982.472 327.971C991.906 337.547 991.79 352.958 982.214 362.391C972.787 371.678 957.707 371.711 948.239 362.575L947.793 362.133Z" stroke="#087E8B" stroke-width="2"/>
<path d="M948.145 192.026L984.007 156.699C993.583 147.265 1008.99 147.381 1018.43 156.957C1027.86 166.533 1027.75 181.944 1018.17 191.378L982.308 226.705C972.731 236.139 957.321 236.023 947.887 226.447C938.601 217.02 938.568 201.94 947.703 192.472L948.145 192.026Z" stroke="#087E8B" stroke-width="2"/>
<path d="M947.794 226.319L912.466 190.457C903.033 180.88 903.148 165.47 912.724 156.036C922.301 146.602 937.712 146.718 947.145 156.294L982.473 192.156C991.906 201.732 991.791 217.143 982.214 226.577C972.788 235.863 957.707 235.896 948.24 226.76L947.794 226.319Z" stroke="#087E8B" stroke-width="2"/>
<path d="M948.145 464.192L984.007 428.865C993.583 419.431 1008.99 419.547 1018.43 429.123C1027.86 438.699 1027.75 454.11 1018.17 463.544L982.308 498.871C972.731 508.305 957.321 508.189 947.887 498.613C938.601 489.186 938.568 474.106 947.703 464.638L948.145 464.192Z" stroke="#087E8B" stroke-width="2"/>
<path d="M947.794 498.485L912.466 462.623C903.033 453.046 903.148 437.636 912.724 428.202C922.301 418.768 937.712 418.884 947.145 428.46L982.473 464.322C991.906 473.898 991.791 489.309 982.214 498.743C972.788 508.029 957.707 508.062 948.24 498.926L947.794 498.485Z" stroke="#087E8B" stroke-width="2"/>
</svg>
