<svg width="809" height="790" viewBox="0 0 809 790" fill="none" xmlns="http://www.w3.org/2000/svg">
<path fill-rule="evenodd" clip-rule="evenodd" d="M501.925 87.5146C502.111 100.79 499.716 113.972 494.877 126.297C490.038 138.622 482.853 149.846 473.735 159.32C454.209 175.394 430.12 184.612 405.048 185.605C392.052 186.247 379.059 184.255 366.822 179.743C354.585 175.232 343.346 168.29 333.755 159.32C316.958 139.334 307.789 113.84 307.929 87.5146C307.929 30.0786 340.423 0.907101 405.412 0H409.474C471.108 0 501.925 29.1715 501.925 87.5146Z" fill="white" fill-opacity="0.05"/>
<path opacity="0.6" d="M505.5 285.02L302.574 484.922C246.16 540.496 245.478 631.279 301.052 687.693C356.625 744.107 447.409 744.789 503.823 689.215L706.749 489.313C763.163 433.739 763.844 342.955 708.271 286.541C652.697 230.127 561.913 229.446 505.5 285.02Z" fill="white" fill-opacity="0.05"/>
<path opacity="0.6" d="M100.625 484.041L300.527 686.967C356.101 743.381 446.884 744.062 503.298 688.489C559.712 632.915 560.394 542.131 504.82 485.717L304.918 282.792C249.344 226.378 158.56 225.696 102.146 281.27C45.7325 336.843 45.0511 427.627 100.625 484.041Z" fill="white" fill-opacity="0.05"/>
</svg>
