<svg width="116" height="114" viewBox="0 0 116 114" fill="none" xmlns="http://www.w3.org/2000/svg">
<path fill-rule="evenodd" clip-rule="evenodd" d="M71.841 12.5504C71.8677 14.4543 71.5239 16.3446 70.8294 18.1122C70.1349 19.8797 69.1036 21.4893 67.795 22.848C64.9924 25.1532 61.5351 26.4752 57.9367 26.6176C56.0713 26.7097 54.2066 26.424 52.4502 25.7769C50.6939 25.1299 49.0808 24.1344 47.7042 22.848C45.2935 19.9818 43.9775 16.3257 43.9975 12.5504C43.9975 4.31356 48.6613 0.130087 57.9889 0H58.5718C67.4179 0 71.841 4.18348 71.841 12.5504Z" fill="#145A62"/>
<path opacity="0.6" d="M72.3726 40.7855L43.3197 69.4056C35.243 77.362 35.1454 90.3595 43.1019 98.4363C51.0583 106.513 64.0558 106.611 72.1326 98.6542L101.185 70.0342C109.262 62.0777 109.36 49.0802 101.403 41.0034C93.4469 32.9266 80.4494 32.8291 72.3726 40.7855Z" fill="#EBC042"/>
<path opacity="0.6" d="M14.4064 69.2794L43.0264 98.3322C50.9829 106.409 63.9804 106.507 72.0572 98.5501C80.134 90.5937 80.2315 77.5962 72.275 69.5194L43.655 40.4665C35.6986 32.3897 22.7011 32.2922 14.6243 40.2486C6.54749 48.2051 6.44995 61.2026 14.4064 69.2794Z" fill="#EBC042"/>
</svg>
