<svg width="248" height="87" viewBox="0 0 248 87" fill="none" xmlns="http://www.w3.org/2000/svg">
<path d="M69.1713 55.2969C69.2772 58.0182 68.5376 60.7067 67.0508 63.0059C66.358 64.1481 65.3664 65.0873 64.1788 65.7261C62.9912 66.3648 61.651 66.6798 60.2974 66.6384H59.7504C56.2657 66.6384 53.9628 65.1271 51.8153 62.1177C49.8298 65.074 47.277 66.5809 44.157 66.6384C41.037 66.6958 38.6148 65.812 36.8904 63.9869C36.8904 69.1771 35.3439 71.8086 32.2509 75.4345C29.1578 79.0603 25.3692 80.9096 20.8377 80.9096H16.286C12.0449 80.9096 8.33959 79.2216 5.17003 75.8454C2.0446 72.5634 0.348368 68.2133 0.442699 63.7218V53.0432C0.442699 52.2257 0.773549 51.4417 1.36247 50.8637C1.95139 50.2857 2.75014 49.9609 3.583 49.9609C3.99507 49.9609 4.40309 50.0407 4.78371 50.1957C5.16433 50.3507 5.51007 50.5778 5.80114 50.8641C6.0922 51.1504 6.32288 51.4903 6.47995 51.8642C6.63703 52.2381 6.71743 52.6388 6.71654 53.0432V64.0864C6.64574 66.7214 7.64386 69.2762 9.4915 71.1891C11.3391 73.102 13.8851 74.2166 16.5696 74.2877H20.4258C21.7648 74.3106 23.0942 74.0628 24.3315 73.56C25.5688 73.0571 26.6875 72.3098 27.6181 71.3645C28.5869 70.4086 29.3476 69.2693 29.8538 68.0158C30.3599 66.7624 30.6011 65.4209 30.5625 64.0731V46.6997C30.5696 46.0514 30.8351 45.4316 31.3022 44.9731C31.7693 44.5146 32.4007 44.254 33.0613 44.2471C33.2898 44.2456 33.5173 44.2768 33.7366 44.3399L34.4119 44.5321C35.1471 44.7344 35.7941 45.1685 36.253 45.7675C36.7119 46.3665 36.9573 47.097 36.9512 47.8464V55.0517C36.9749 55.8289 37.1781 56.5907 37.5455 57.2796C37.9128 57.9685 38.4347 58.5666 39.0717 59.0288C39.5247 59.4291 40.0399 59.7558 40.598 59.9966C41.1964 60.2129 41.8311 60.3163 42.4687 60.3015C45.3726 60.3015 46.8268 58.9294 46.8313 56.1851V48.3303C46.8295 47.9221 46.9097 47.5175 47.0672 47.1396C47.2248 46.7618 47.4566 46.4181 47.7494 46.1282C48.0423 45.8383 48.3905 45.6078 48.7741 45.45C49.1577 45.2921 49.5692 45.21 49.9851 45.2083C50.8287 45.2083 51.6378 45.5372 52.2343 46.1227C52.8308 46.7082 53.1659 47.5023 53.1659 48.3303V54.8926C53.1659 56.2846 53.8413 57.6699 55.1919 59.0487C56.2222 59.8233 57.474 60.2615 58.7712 60.3015C61.7292 60.3015 62.6949 58.9294 62.6949 56.1851V48.3701C62.6949 47.5315 63.0343 46.7273 63.6384 46.1343C64.2425 45.5414 65.0619 45.2083 65.9162 45.2083C66.7706 45.2083 67.5899 45.5414 68.194 46.1343C68.7982 46.7273 69.1376 47.5315 69.1376 48.3701L69.1713 55.2969Z" fill="white"/>
<path d="M83.9195 66.2444C80.2107 66.136 77.4619 65.0368 75.6732 62.9466C73.8844 60.8565 72.9425 57.683 72.8474 53.426V30.9786C72.8492 30.1225 73.1912 29.302 73.7984 28.6967C74.4057 28.0913 75.2288 27.7504 76.0875 27.7487C76.513 27.7487 76.9344 27.8322 77.3275 27.9945C77.7206 28.1568 78.0778 28.3948 78.3787 28.6947C78.6795 28.9946 78.9182 29.3507 79.081 29.7426C79.2439 30.1345 79.3277 30.5545 79.3277 30.9786V53.4666C79.3072 54.7997 79.6201 56.1168 80.2379 57.2993C80.9172 58.5858 82.2078 59.2901 84.1097 59.3984H86.5959V66.2444H83.9195Z" fill="white"/>
<path fill-rule="evenodd" clip-rule="evenodd" d="M101.261 55.3369C101.266 56.6709 101.037 57.9957 100.584 59.2512C100.076 60.6095 99.3283 61.8666 98.3764 62.9635C97.6175 63.9769 96.6321 64.8009 95.4982 65.3704C94.3642 65.9398 93.1127 66.2391 91.8426 66.2446H83.8462V59.4332H89.7978C92.0051 59.4332 93.4202 58.9346 94.0499 57.9173C94.2189 57.4794 94.3525 57.0288 94.4493 56.5698C94.6059 55.844 94.6718 55.1018 94.6457 54.36V48.4581C94.6475 47.5861 94.996 46.7501 95.615 46.1329C96.2341 45.5156 97.0735 45.1671 97.9499 45.1636C98.3844 45.1636 98.8146 45.2488 99.2159 45.4145C99.6172 45.5801 99.9818 45.8229 100.289 46.1289C100.596 46.4349 100.839 46.7982 101.004 47.1979C101.17 47.5975 101.255 48.0258 101.254 48.4581L101.261 55.3369Z" fill="white"/>
<path fill-rule="evenodd" clip-rule="evenodd" d="M90.2618 75.1452C90.2706 75.8004 90.1578 76.451 89.9298 77.0595C89.7018 77.6679 89.3632 78.2221 88.9336 78.6901C88.0125 79.4842 86.8756 79.9393 85.6925 79.9876C85.0799 80.0186 84.4676 79.92 83.8908 79.6973C83.3141 79.4746 82.7843 79.1323 82.332 78.6901C81.5356 77.7047 81.0972 76.4467 81.0967 75.1452C81.0967 72.3093 82.6286 70.8701 85.6925 70.8275H85.8851C88.8074 70.8275 90.2663 72.2667 90.2618 75.1452Z" fill="white"/>
<path fill-rule="evenodd" clip-rule="evenodd" d="M131.652 66.244H113.743C112.866 66.2352 112.028 65.8756 111.407 65.2426C110.787 64.6095 110.435 63.7535 110.427 62.8583C110.427 61.9604 110.776 61.0992 111.398 60.4642C112.02 59.8293 112.863 59.4726 113.743 59.4726H119.003C118.687 58.3324 118.511 57.1564 118.479 55.9718V30.9786C118.48 30.5536 118.563 30.1328 118.723 29.7405C118.883 29.3481 119.117 28.9918 119.412 28.6919C119.707 28.392 120.057 28.1543 120.442 27.9925C120.827 27.8306 121.24 27.7478 121.656 27.7487C122.072 27.7478 122.484 27.8307 122.868 27.9927C123.252 28.1547 123.601 28.3926 123.895 28.6927C124.189 28.9928 124.422 29.3492 124.581 29.7415C124.74 30.1338 124.821 30.5542 124.82 30.9786V54.455C124.82 56.1343 125.178 57.3667 125.901 58.1657C126.624 58.9647 127.958 59.3643 129.921 59.3981C130.234 59.4089 130.547 59.3908 130.856 59.3439C131.128 59.2898 131.433 59.2627 131.692 59.2085C132.123 59.1449 132.536 58.9919 132.907 58.759C133.278 58.5261 133.598 58.2182 133.848 57.8542C134.012 57.4143 134.141 56.9614 134.232 56.5C134.379 55.8336 134.443 55.1512 134.425 54.4685V30.938C134.425 30.0921 134.754 29.2809 135.34 28.6828C135.926 28.0847 136.72 27.7487 137.549 27.7487C137.959 27.7487 138.365 27.8312 138.745 27.9914C139.124 28.1517 139.468 28.3866 139.758 28.6828C140.048 28.979 140.278 29.3305 140.435 29.7175C140.592 30.1044 140.673 30.5192 140.673 30.938V55.8973C140.514 58.7007 139.89 60.8878 138.783 62.452C137.892 63.8379 136.604 64.9092 135.095 65.5194C134.81 65.621 134.524 65.7158 134.226 65.7971C133.401 66.1015 132.529 66.2528 131.652 66.244Z" fill="white"/>
<path fill-rule="evenodd" clip-rule="evenodd" d="M214.273 10.3565C214.293 11.7979 214.033 13.2291 213.507 14.5672C212.981 15.9054 212.2 17.124 211.21 18.1526C209.088 19.8978 206.47 20.8987 203.746 21.0065C202.334 21.0762 200.922 20.8599 199.592 20.3701C198.263 19.8802 197.041 19.1266 195.999 18.1526C194.174 15.9827 193.178 13.2148 193.193 10.3565C193.193 4.12057 196.724 0.953345 203.786 0.854858H204.227C210.924 0.854858 214.273 4.02209 214.273 10.3565Z" fill="#17636C"/>
<path opacity="0.6" d="M214.675 31.7326L192.68 53.4003C186.565 59.424 186.491 69.2641 192.515 75.3789C198.539 81.4937 208.379 81.5675 214.494 75.5439L236.489 53.8762C242.604 47.8525 242.678 38.0124 236.654 31.8976C230.63 25.7828 220.79 25.709 214.675 31.7326Z" fill="#EBC042"/>
<path opacity="0.6" d="M170.79 53.3048L192.458 75.3002C198.482 81.4149 208.322 81.4888 214.437 75.4651C220.551 69.4414 220.625 59.6013 214.601 53.4865L192.934 31.4911C186.91 25.3764 177.07 25.3025 170.955 31.3262C164.84 37.3499 164.767 47.19 170.79 53.3048Z" fill="#EBC042"/>
</svg>
